<?xml version="1.0" encoding="UTF-8" standalone="no"?>
<svg
   xmlns:dc="http://purl.org/dc/elements/1.1/"
   xmlns:cc="http://creativecommons.org/ns#"
   xmlns:rdf="http://www.w3.org/1999/02/22-rdf-syntax-ns#"
   xmlns:svg="http://www.w3.org/2000/svg"
   xmlns="http://www.w3.org/2000/svg"
   xmlns:sodipodi="http://sodipodi.sourceforge.net/DTD/sodipodi-0.dtd"
   xmlns:inkscape="http://www.inkscape.org/namespaces/inkscape"
   id="a3d63ade-9d52-45e1-91e7-e418fb2122b3"
   data-name="Layer 1"
   width="631.83868"
   height="513.50476"
   viewBox="0 0 631.83868 513.50477"
   version="1.1"
   sodipodi:docname="career.svg"
   inkscape:version="0.92.3 (2405546, 2018-03-11)">
  <metadata
     id="metadata109">
    <rdf:RDF>
      <cc:Work
         rdf:about="">
        <dc:format>image/svg+xml</dc:format>
        <dc:type
           rdf:resource="http://purl.org/dc/dcmitype/StillImage" />
        <dc:title>career development</dc:title>
      </cc:Work>
    </rdf:RDF>
  </metadata>
  <defs
     id="defs107" />
  <sodipodi:namedview
     pagecolor="#ffffff"
     bordercolor="#666666"
     borderopacity="1"
     objecttolerance="10"
     gridtolerance="10"
     guidetolerance="10"
     inkscape:pageopacity="0"
     inkscape:pageshadow="2"
     inkscape:window-width="1890"
     inkscape:window-height="1052"
     id="namedview105"
     showgrid="false"
     showborder="true"
     inkscape:zoom="0.3192389"
     inkscape:cx="-906.9145"
     inkscape:cy="250.06532"
     inkscape:window-x="30"
     inkscape:window-y="0"
     inkscape:window-maximized="1"
     inkscape:current-layer="a3d63ade-9d52-45e1-91e7-e418fb2122b3"
     fit-margin-top="0"
     fit-margin-left="0"
     fit-margin-right="0"
     fit-margin-bottom="0" />
  <title
     id="title2">career development</title>
  <rect
     x="237.80803"
     y="141.09419"
     width="60.957222"
     height="11.952397"
     id="rect10"
     style="fill:#6c63ff;stroke-width:0.99999994" />
  <rect
     x="188.37013"
     y="190.53207"
     width="60.957222"
     height="11.952397"
     id="rect12"
     style="fill:#6c63ff;stroke-width:0.99999994" />
  <rect
     x="301.55417"
     y="280.14038"
     width="30.677813"
     height="11.952397"
     id="rect14"
     style="fill:#3f3d56;stroke-width:0.99999994" />
  <rect
     x="407.13364"
     y="280.14038"
     width="30.677813"
     height="11.952397"
     id="rect16"
     style="fill:#3f3d56;stroke-width:0.99999994" />
  <rect
     x="462.51303"
     y="280.14038"
     width="30.677813"
     height="11.952397"
     id="rect18"
     style="fill:#3f3d56;stroke-width:0.99999994" />
  <rect
     x="434.62418"
     y="370.97861"
     width="30.677813"
     height="11.952397"
     id="rect20"
     style="fill:#3f3d56;stroke-width:0.99999994" />
  <rect
     x="545.383"
     y="370.97861"
     width="30.677813"
     height="11.952397"
     id="rect22"
     style="fill:#3f3d56;stroke-width:0.99999994" />
  <rect
     x="517.89246"
     y="280.14038"
     width="30.677813"
     height="11.952397"
     id="rect24"
     style="fill:#3f3d56;stroke-width:0.99999994" />
  <rect
     x="573.27191"
     y="280.14038"
     width="30.677813"
     height="11.952397"
     id="rect26"
     style="fill:#3f3d56;stroke-width:0.99999994" />
  <polygon
     points="496.181,265.916 946,265.916 946,266.903 495.194,266.903 495.194,203.277 496.181,203.277 "
     id="polygon28"
     transform="matrix(0.80777508,0,0,0.80777508,-132.31656,1.6384772e-6)"
     style="fill:#3f3d56;stroke-width:1.23796833" />
  <polygon
     points="619.576,379.604 910.241,379.604 910.241,380.591 618.589,380.591 618.589,266.594 619.576,266.594 "
     id="polygon30"
     transform="matrix(0.80777508,0,0,0.80777508,-132.31656,1.6384772e-6)"
     style="fill:#3f3d56;stroke-width:1.23796833" />
  <rect
     x="316.49466"
     y="215.39825"
     width="0.79682976"
     height="51.345108"
     id="rect32"
     style="fill:#3f3d56;stroke-width:0.99999994" />
  <rect
     x="422.07413"
     y="215.39825"
     width="0.79682976"
     height="51.345108"
     id="rect34"
     style="fill:#3f3d56;stroke-width:0.99999994" />
  <rect
     x="477.45352"
     y="215.39825"
     width="0.79682976"
     height="51.345108"
     id="rect36"
     style="fill:#3f3d56;stroke-width:0.99999994" />
  <rect
     x="532.83295"
     y="215.39825"
     width="0.79682976"
     height="51.345108"
     id="rect38"
     style="fill:#3f3d56;stroke-width:0.99999994" />
  <rect
     x="588.2124"
     y="215.39825"
     width="0.79682976"
     height="51.345108"
     id="rect40"
     style="fill:#3f3d56;stroke-width:0.99999994" />
  <rect
     x="449.56467"
     y="307.03329"
     width="0.79682976"
     height="51.345108"
     id="rect42"
     style="fill:#3f3d56;stroke-width:0.99999994" />
  <rect
     x="560.32349"
     y="307.03329"
     width="0.79682976"
     height="51.345108"
     id="rect44"
     style="fill:#3f3d56;stroke-width:0.99999994" />
  <rect
     x="237.80803"
     y="242.03128"
     width="60.957222"
     height="11.952397"
     id="rect46"
     style="fill:#6c63ff;stroke-width:0.99999994" />
  <rect
     x="301.55417"
     y="102.98509"
     width="30.677813"
     height="11.952397"
     id="rect48"
     style="fill:#3f3d56;stroke-width:0.99999994" />
  <rect
     x="407.13364"
     y="102.98509"
     width="30.677813"
     height="11.952397"
     id="rect50"
     style="fill:#3f3d56;stroke-width:0.99999994" />
  <rect
     x="462.51303"
     y="102.98509"
     width="30.677813"
     height="11.952397"
     id="rect52"
     style="fill:#3f3d56;stroke-width:0.99999994" />
  <rect
     x="434.62418"
     y="12.146877"
     width="30.677813"
     height="11.952397"
     id="rect54"
     style="fill:#3f3d56;stroke-width:0.99999994" />
  <rect
     x="545.383"
     y="12.146877"
     width="30.677813"
     height="11.952397"
     id="rect56"
     style="fill:#3f3d56;stroke-width:0.99999994" />
  <rect
     x="517.89246"
     y="102.98509"
     width="30.677813"
     height="11.952397"
     id="rect58"
     style="fill:#3f3d56;stroke-width:0.99999994" />
  <rect
     x="573.27191"
     y="102.98509"
     width="30.677813"
     height="11.952397"
     id="rect60"
     style="fill:#3f3d56;stroke-width:0.99999994" />
  <polygon
     points="496.181,223.178 946,223.178 946,222.191 495.194,222.191 495.194,285.817 496.181,285.817 "
     id="polygon62"
     transform="matrix(0.80777508,0,0,0.80777508,-132.31656,1.6384772e-6)"
     style="fill:#3f3d56;stroke-width:1.23796833" />
  <polygon
     points="619.576,109.49 910.241,109.49 910.241,108.503 618.589,108.503 618.589,222.5 619.576,222.5 "
     id="polygon64"
     transform="matrix(0.80777508,0,0,0.80777508,-132.31656,1.6384772e-6)"
     style="fill:#3f3d56;stroke-width:1.23796833" />
  <rect
     x="316.49466"
     y="128.33452"
     width="0.79682976"
     height="51.345108"
     id="rect66"
     style="fill:#3f3d56;stroke-width:0.99999994" />
  <rect
     x="422.07413"
     y="128.33452"
     width="0.79682976"
     height="51.345108"
     id="rect68"
     style="fill:#3f3d56;stroke-width:0.99999994" />
  <rect
     x="477.45352"
     y="128.33452"
     width="0.79682976"
     height="51.345108"
     id="rect70"
     style="fill:#3f3d56;stroke-width:0.99999994" />
  <rect
     x="532.83295"
     y="128.33452"
     width="0.79682976"
     height="51.345108"
     id="rect72"
     style="fill:#3f3d56;stroke-width:0.99999994" />
  <rect
     x="588.2124"
     y="128.33452"
     width="0.79682976"
     height="51.345108"
     id="rect74"
     style="fill:#3f3d56;stroke-width:0.99999994" />
  <rect
     x="449.56467"
     y="36.699482"
     width="0.79682976"
     height="51.345108"
     id="rect76"
     style="fill:#3f3d56;stroke-width:0.99999994" />
  <rect
     x="560.32349"
     y="36.699482"
     width="0.79682976"
     height="51.345108"
     id="rect78"
     style="fill:#3f3d56;stroke-width:0.99999994" />
  <path
     d="M 109.31298,17.063159 C 99.698906,0.81835764 80.678256,0.06127864 80.678256,0.06127864 c 0,0 -18.53456,-2.37018204 -30.42435,22.37084636 -11.08224,23.060664 -26.37715,45.326204 -2.46236,50.724544 l 4.31971,-13.44485 2.67517,14.4458 a 93.57105,93.57105 0 0 0 10.23225,0.17488 c 25.6108,-0.82687 50.001224,0.24192 49.215894,-8.94832 -1.04397,-12.21711 4.32907,-32.690281 -4.92159,-48.32102 z"
     id="path80"
     inkscape:connector-curvature="0"
     style="fill:#2f2e41;stroke-width:0.99999994" />
  <path
     d="m 73.845856,72.410879 c 0.0465,1.82849 0.0326,3.75692 -0.87602,5.34435 -1.80125,3.14694 -6.19849,3.61802 -8.84345,6.09833 -2.78154,2.60838 -3.09638,6.84165 -3.22895,10.65257 -0.1386,3.9843 -0.25618,8.099181 1.19793,11.811291 a 28.713278,28.713278 0 0 0 3.35461,5.76326 q 2.42226,3.49169 4.88934,6.95201 a 30.015169,30.015169 0 0 0 2.92765,3.67402 c 2.94554,3.00041 6.98586,4.66124 11.02003,5.84623 2.60645,0.76561 5.42075,1.362 8.00683,0.53021 a 15.329051,15.329051 0 0 0 4.65617,-2.86307 24.950137,24.950137 0 0 0 5.270434,-5.10831 c 2.17162,-3.15011 2.77269,-7.09359 3.22283,-10.89313 a 235.06399,235.06399 0 0 0 1.54942,-33.862451 8.2993316,8.2993316 0 0 0 -0.6465,-3.59789 c -1.33934,-2.61523 -4.92652,-3.17354 -6.816664,-5.42313 -1.61601,-1.92331 -1.68192,-4.66821 -1.66814,-7.18031 l 0.0351,-6.39516 a 2.6790749,2.6790749 0 0 0 -0.3108,-1.55807 2.6395828,2.6395828 0 0 0 -1.83445,-0.85588 61.840788,61.840788 0 0 0 -12.03152,-0.80493 c -3.26498,0.0998 -9.52959,-0.17351 -12.35273,1.64498 -2.56256,1.65064 0.64593,6.20956 1.2395,8.77037 a 57.138083,57.138083 0 0 1 1.23937,11.45471 z"
     id="path82"
     inkscape:connector-curvature="0"
     style="fill:#ffb8b8;stroke-width:0.99999994" />
  <path
     d="m 20.749076,500.60194 c -0.82982,2.82348 -1.21496,6.11578 0.50864,8.50111 a 8.5851709,8.5851709 0 0 0 3.63353,2.66137 c 3.59798,1.56669 7.62547,1.87541 11.54553,1.69402 a 5.4518275,5.4518275 0 0 0 4.08423,-1.56812 50.314492,50.314492 0 0 0 17.40529,-29.69139 2.8149184,2.8149184 0 0 0 -0.0926,-1.82184 2.8872062,2.8872062 0 0 0 -1.21237,-1.0283 27.258023,27.258023 0 0 0 -6.50022,-2.96835 c -12.51788,-3.23183 -26.27049,13.66875 -29.37201,24.2215 z"
     id="path84"
     inkscape:connector-curvature="0"
     style="fill:#2f2e41;stroke-width:0.99999994" />
  <path
     d="m 152.0268,461.03658 a 18.434187,18.434187 0 0 0 6.08508,4.6342 8.5431181,8.5431181 0 0 0 7.43719,-0.12661 c 3.44374,-1.96047 4.41927,-6.51602 4.14446,-10.4694 -0.5083,-7.31172 -4.00107,-13.90064 -8.01485,-19.87344 -1.26993,-1.88973 -4.08116,-7.51392 -6.54838,-7.58389 -1.17201,-0.0333 -5.55514,4.21628 -6.74614,5.02511 -4.35121,2.955 -7.36512,5.06921 -6.45962,10.74141 1.01001,6.32663 5.84475,13.09716 10.10226,17.65262 z"
     id="path86"
     inkscape:connector-curvature="0"
     style="fill:#2f2e41;stroke-width:0.99999994" />
  <circle
     cx="81.339958"
     cy="35.580029"
     r="25.848803"
     id="circle88"
     style="fill:#ffb8b8;stroke-width:0.99999994" />
  <path
     d="m 70.696036,99.605789 a 37.814375,37.814375 0 0 1 -4.03121,-7.82953 12.712449,12.712449 0 0 1 -0.0702,-8.64634 c -2.7932,-1.62079 -6.58563,-0.30826 -8.61977,2.19996 -2.03413,2.50822 -2.6567,5.87042 -2.83604,9.09483 -0.17934,3.22441 0.0108,6.496261 -0.69093,9.648501 -1.55245,6.9741 -7.31327,12.70765 -7.74167,19.83959 -0.42145,7.01633 4.38988,13.12859 6.75683,19.74705 a 32.929403,32.929403 0 0 1 1.7641,12.85352 c -0.0767,1.40721 -0.16505,3.01103 0.82789,4.01111 a 4.574818,4.574818 0 0 0 1.78913,0.96392 c 11.4216,4.01837 23.75859,4.36603 35.86257,4.67259 l 19.991744,0.50638 a 6.3717783,6.3717783 0 0 0 3.53032,-0.59118 c 1.79357,-1.09971 2.03362,-3.56477 2.06412,-5.66841 0.26261,-18.1181 -0.50804,-36.2335 -1.27853,-54.33711 -0.27926,-6.561771 -0.56326,-13.161601 -1.95473,-19.580221 -0.35431,-1.63443 -0.93533,-3.45199 -2.44415,-4.17335 -1.27713,-0.6106 -2.79233,-0.21528 -4.12026,0.27514 a 32.807228,32.807228 0 0 0 -15.365124,11.82783 c -4.10206,5.838211 -6.11986,12.841611 -10.13443,18.724131 -2.91334,4.26889 -4.59826,0.54848 -6.53934,-2.59525 q -3.37892,-5.47237 -6.76033,-10.943161 z"
     id="path90"
     inkscape:connector-curvature="0"
     style="fill:#6c63ff;stroke-width:0.99999994" />
  <path
     d="m 64.072376,76.118219 c -1.53824,0.75603 -3.27486,1.0848 -4.73888,1.9761 -1.75239,1.06685 -2.94393,2.83 -4.07976,4.53849 l -6.12733,9.21656 a 28.575496,28.575496 0 0 0 -3.512,6.41235 c -0.9564,2.795611 -1.02141,5.804961 -1.11089,8.758291 q -0.37335,12.32227 -1.53149,24.60402 a 88.407881,88.407881 0 0 1 -1.70208,11.74262 c -0.72997,3.1399 -1.76206,6.20023 -2.79248,9.25473 l -11.35313,33.65404 a 12.717094,12.717094 0 0 0 -0.97763,5.29974 c 0.18827,1.80137 1.38026,3.63256 3.16278,3.9535 a 6.2051747,6.2051747 0 0 0 3.40865,-0.68932 c 4.33422,-1.80979 8.63636,-3.95213 11.97355,-7.25728 5.48524,-5.4326 7.69145,-13.26367 9.68722,-20.72144 1.05885,-3.95672 2.12538,-7.96929 2.12109,-12.06524 -0.01,-9.29731 -5.50041,-17.9086 -5.64609,-27.20478 a 47.624989,47.624989 0 0 1 0.68026,-7.53601 c 0.97837,-6.77077 1.99426,-13.59312 4.33977,-20.01953 2.3455,-6.426411 6.14286,-12.507551 11.72815,-16.457881 2.67744,-1.89369 9.86717,-5.68566 7.05975,-10.03984 -2.79837,-4.3402 -7.85231,1.23561 -10.58946,2.58088 z"
     id="path92"
     inkscape:connector-curvature="0"
     style="fill:#575a88;stroke-width:0.99999994" />
  <path
     d="M 113.87698,159.43139 Q 86.091396,157.27674 58.255856,155.8481 c -1.55913,-0.08 -3.33321,-0.077 -4.40328,1.0598 a 5.4342018,5.4342018 0 0 0 -1.00811,1.89791 l -3.964,10.69053 c -1.75597,4.7357 -2.55627,9.20621 -6.06208,12.84206 -3.50581,3.63585 -7.67697,6.58498 -11.13813,10.26339 a 37.852712,37.852712 0 0 0 -9.75308,19.90115 c -0.96488,6.11995 -0.4161,12.46216 -1.99748,18.45248 -1.94906,7.38311 1.17865,15.07134 1.12959,22.70722 -0.073,11.3721 -1.63308,22.67618 -3.1902,33.94141 -4.51465,32.66194 -9.0293796,65.32478 -13.9333096,97.93056 -4.02617001,26.76973 -7.99063,55.66713 4.5815,79.64149 3.0049296,5.73025 7.0979796,11.17145 12.8452796,14.14366 a 38.95673,38.95673 0 0 0 10.02101,3.14588 230.34889,230.34889 0 0 0 26.96868,3.99445 c 3.67538,0.32358 7.95901,0.31837 10.31609,-2.5202 1.58122,-1.90423 1.80215,-4.55756 1.95385,-7.02805 l 0.99066,-16.13439 c 1.28194,-20.87838 0.81197,-42.52332 -3.84635,-62.91573 -1.57063,-6.87568 -3.54613,-13.6606 -4.86073,-20.58979 a 110.37051,110.37051 0 0 1 -1.93139,-19.96255 63.635939,63.635939 0 0 1 1.31702,-14.303 c 3.4076,-15.1632 14.69799,-28.8367 13.05643,-44.29111 10.4035,15.25825 13.85198,32.72743 17.10715,50.90574 2.37445,13.25998 4.94262,26.54834 9.438674,39.24682 4.88785,13.80511 12.14496,27.5112 11.11226,42.11966 a 55.099905,55.099905 0 0 1 -1.51087,9.02426 c -2.95573,12.26127 9.53404,22.74687 21.05111,17.60566 q 0.11822,-0.0528 0.23605,-0.10704 c 10.64405,-4.90335 16.02016,-17.81336 26.87744,-22.22448 5.0399,-2.04762 11.32016,-2.33673 13.36241,-8.52679 a 10.86569,10.86569 0 0 0 0.4467,-4.43071 c -0.47758,-5.00635 -3.33021,-9.05638 -5.55056,-13.35951 -4.84342,-9.38685 -6.67963,-19.99013 -8.42165,-30.40826 q -2.59614,-15.52607 -5.09712,-31.06784 c -1.09003,-6.77372 -2.17619,-13.5892 -4.4028,-20.07873 -0.97474,-2.84088 -2.16572,-5.61166 -2.94689,-8.51174 -2.91849,-10.83488 0.10017,-22.37849 -1.12001,-33.53301 -1.3726,-12.54746 -3.89293,-25.0071 -6.65237,-37.32405 -3.57441,-15.95476 -4.30457,-32.39305 -4.87893,-48.73322 -0.22814,-6.49033 -0.46608,-13.14007 -2.91214,-19.15619 -3.45002,-8.48571 -10.25678,-15.2612 -17.6093,-20.72445 z"
     id="path94"
     inkscape:connector-curvature="0"
     style="fill:#2f2e41;stroke-width:0.99999994" />
  <polygon
     points="248.378,40.704 253,29.919 253,40.526 260.634,40.233 265.066,23.062 267.835,41.341 294.976,40.787 293.868,19.185 270.604,6.999 238.479,11.984 231.832,41.341 "
     id="polygon96"
     transform="matrix(0.80777508,0,0,0.80777508,-132.31656,1.6384772e-6)"
     style="fill:#2f2e41;stroke-width:1.23796833" />
  <path
     d="m 95.177446,87.555129 a 10.494283,10.494283 0 0 1 5.504334,-2.73171 2.8405653,2.8405653 0 0 0 1.94325,-0.78192 2.4427118,2.4427118 0 0 0 0.33031,-1.4426 70.154523,70.154523 0 0 0 -1.12859,-13.58969 13.665131,13.665131 0 0 1 5.53589,-0.75186 l 17.40009,0.0487 c 3.49896,0.01 7.12103,0.0452 10.30485,1.49644 a 16.394369,16.394369 0 0 1 7.44445,7.62256 43.995647,43.995647 0 0 1 3.36551,10.29173 c 2.06817,8.92962 -5.35528,17.917011 -6.01899,27.058931 -0.19145,2.63648 0.0301,5.29258 -0.21245,7.92486 -0.25532,2.77162 -1.02274,5.49035 -1.08541,8.273 -0.0775,3.44087 0.92513,6.81102 2.08075,10.05294 3.53079,9.90516 8.55891,19.20199 12.63941,28.89366 a 24.121295,24.121295 0 0 1 2.08216,6.98759 9.0262322,9.0262322 0 0 1 -1.91928,6.85131 c -1.70103,1.90911 -4.29175,2.68859 -6.68085,3.59989 a 43.731739,43.731739 0 0 0 -8.54508,4.38992 17.974611,17.974611 0 0 1 -3.48094,2.01739 22.143538,22.143538 0 0 1 -3.70294,0.81874 c -3.22364,0.61385 -6.26864,1.9134 -9.38351,2.94596 -1.02697,0.34045 -2.21186,0.63754 -3.14021,0.0819 a 3.7834408,3.7834408 0 0 1 -1.21359,-1.44402 c -5.97063,-10.33922 -8.0789,-22.42159 -9.44759,-34.28222 -1.36868,-11.86062 -2.1241,-23.9127 -5.75471,-35.28664 -1.10392,-3.45835 -2.473494,-6.85317 -3.100824,-10.4288 -0.90691,-5.16915 -0.22745,-10.52046 -1.16093,-15.68488 -0.82755,-4.578321 -2.97091,-8.289321 -2.65511,-12.931161 z"
     id="path98"
     inkscape:connector-curvature="0"
     style="fill:#575a88;stroke-width:0.99999994" />
  <path
     d="m 134.85182,186.22093 c -5.18053,2.47754 -9.27861,6.4174 -12.7463,10.99463 -0.7341,0.96897 0.2505,2.77627 2.45044,2.74668 2.04697,-0.0275 3.26987,-2.65225 5.31678,-2.67978 a 88.893951,88.893951 0 0 0 3.38401,16.13393 c 4.08374,-3.58614 6.52914,-8.63435 8.86872,-13.53981 l 4.6247,-9.69674 c 1.69786,-3.55995 3.39642,-7.12146 4.92687,-10.75653 a 7.7602952,7.7602952 0 0 0 0.75858,-2.71126 c 0.20141,-6.25555 -5.96617,-6.29347 -8.62605,-2.37855 -2.90925,4.28196 -3.81534,9.428 -8.95775,11.88743 z"
     id="path100"
     inkscape:connector-curvature="0"
     style="fill:#ffb8b8;stroke-width:0.99999994" />
  <path
     d="m 135.91543,78.674539 c 3.95424,4.10876 7.93623,8.25242 11.00587,13.05817 3.06963,4.80575 5.20212,10.377671 5.05946,16.078341 a 15.339649,15.339649 0 0 0 0.1567,4.32893 12.339637,12.339637 0 0 0 1.96969,3.64451 69.422072,69.422072 0 0 1 8.92166,18.48979 16.232943,16.232943 0 0 0 1.46008,3.72335 c 0.5839,0.95566 1.38023,1.7627 2.02397,2.6791 a 10.271765,10.271765 0 0 1 0.17585,11.25597 3.7736263,3.7736263 0 0 0 -0.69639,1.37334 c -0.2652,1.57047 1.70576,2.51541 2.43053,3.93367 0.73497,1.43821 0.0313,3.27552 -1.18748,4.33532 a 11.010378,11.010378 0 0 1 -4.38502,1.96053 c 2.03917,2.91941 -0.43564,7.02288 -1.26558,10.48587 -0.58079,2.42332 -0.5734,4.94652 -0.95352,7.40927 -0.38012,2.46276 -1.23518,4.99528 -3.13216,6.61121 a 1.9622149,1.9622149 0 0 1 -0.86271,0.48274 c -1.05217,0.20531 -1.76891,-1.01186 -2.13723,-2.01863 -1.14684,-3.13474 -2.30469,-6.33045 -4.3267,-8.98625 -2.02202,-2.6558 -5.08669,-4.73575 -8.42461,-4.72562 a 4.4949937,4.4949937 0 0 1 0.3268,-4.1017 c 0.66884,-1.26143 1.64933,-2.33048 2.38707,-3.55291 a 16.351242,16.351242 0 0 0 1.87791,-5.36715 35.216094,35.216094 0 0 0 -4.64976,-25.11846 24.053821,24.053821 0 0 0 -3.87998,-4.84994 c -1.62983,-1.52737 -3.53677,-2.75532 -5.04152,-4.40608 a 17.226078,17.226078 0 0 1 -4.01159,-9.73351 51.323516,51.323516 0 0 1 0.28284,-10.67873 c 0.67692,-7.025271 1.5466,-14.060741 2.55008,-21.046841 a 7.8502086,7.8502086 0 0 1 0.69653,-2.6285 c 0.78782,-1.46936 2.12025,-1.92676 3.62921,-2.63579 z"
     id="path102"
     inkscape:connector-curvature="0"
     style="fill:#575a88;stroke-width:0.99999994" />
</svg>
