<?xml version="1.0" encoding="UTF-8" standalone="no"?>
<svg
   xmlns:dc="http://purl.org/dc/elements/1.1/"
   xmlns:cc="http://creativecommons.org/ns#"
   xmlns:rdf="http://www.w3.org/1999/02/22-rdf-syntax-ns#"
   xmlns:svg="http://www.w3.org/2000/svg"
   xmlns="http://www.w3.org/2000/svg"
   xmlns:xlink="http://www.w3.org/1999/xlink"
   xmlns:sodipodi="http://sodipodi.sourceforge.net/DTD/sodipodi-0.dtd"
   xmlns:inkscape="http://www.inkscape.org/namespaces/inkscape"
   id="d000d172-d3f6-4067-9bff-b7a6a8e5b081"
   data-name="Layer 1"
   width="228.6241"
   height="134.78902"
   viewBox="0 0 228.6241 134.78902"
   version="1.1"
   sodipodi:docname="story.svg"
   inkscape:version="0.92.3 (2405546, 2018-03-11)">
  <metadata
     id="metadata371">
    <rdf:RDF>
      <cc:Work
         rdf:about="">
        <dc:format>image/svg+xml</dc:format>
        <dc:type
           rdf:resource="http://purl.org/dc/dcmitype/StillImage" />
        <dc:title>conversation</dc:title>
      </cc:Work>
    </rdf:RDF>
  </metadata>
  <sodipodi:namedview
     pagecolor="#ffffff"
     bordercolor="#666666"
     borderopacity="1"
     objecttolerance="10"
     gridtolerance="10"
     guidetolerance="10"
     inkscape:pageopacity="0"
     inkscape:pageshadow="2"
     inkscape:window-width="1890"
     inkscape:window-height="1052"
     id="namedview369"
     showgrid="false"
     showborder="true"
     inkscape:zoom="0.2600937"
     inkscape:cx="-1743.622"
     inkscape:cy="-93.241426"
     inkscape:window-x="30"
     inkscape:window-y="0"
     inkscape:window-maximized="1"
     inkscape:current-layer="d000d172-d3f6-4067-9bff-b7a6a8e5b081"
     fit-margin-top="-0.5"
     fit-margin-left="0"
     fit-margin-right="0"
     fit-margin-bottom="0" />
  <defs
     id="defs10">
    <linearGradient
       id="6b2b92d3-a44d-4448-98ae-26e2a0ff69e8"
       x1="697.19"
       y1="782.63"
       x2="697.19"
       y2="256.04999"
       gradientUnits="userSpaceOnUse">
      <stop
         offset="0"
         stop-color="gray"
         stop-opacity="0.25"
         id="stop2" />
      <stop
         offset="0.54"
         stop-color="gray"
         stop-opacity="0.12"
         id="stop4" />
      <stop
         offset="1"
         stop-color="gray"
         stop-opacity="0.1"
         id="stop6" />
    </linearGradient>
    <linearGradient
       id="6a61e424-f11c-4682-b27d-5ab95be8b857"
       x1="319.26001"
       y1="783.27002"
       x2="319.26001"
       y2="229.16"
       xlink:href="#6b2b92d3-a44d-4448-98ae-26e2a0ff69e8"
       gradientTransform="matrix(0.24029252,0,0,0.24029252,-4.6760042,-55.565246)" />
    <linearGradient
       inkscape:collect="always"
       xlink:href="#6b2b92d3-a44d-4448-98ae-26e2a0ff69e8"
       id="linearGradient942"
       gradientUnits="userSpaceOnUse"
       x1="697.19"
       y1="782.63"
       x2="697.19"
       y2="256.04999"
       gradientTransform="matrix(0.24029252,0,0,0.24029252,-4.6760042,-55.565246)" />
  </defs>
  <title
     id="title12">conversation</title>
  <path
     d="m 228.62401,97.537134 -6.89399,-0.11294 -5.3369,-0.0913 -10.90928,-0.18262 h -0.48058 l -9.18158,-0.15379 v 0 l -18.35595,-0.31478 -9.95291,-0.1658 -1.24232,-0.0216 h -0.48058 v 0 l -0.93234,-0.0144 h -0.22106 -0.26913 l -5.16389,-0.10333 -2.9604,-0.0505 -0.79297,-0.0144 v 0 h -0.27153 -0.0673 l -5.421,-0.0913 -5.32728,-0.0865 -42.91385,-0.72087 h -0.58631 l -16.279824,-0.27153 -1.01884,-0.0192 v 0 l -7.8071,-0.12735 -5.32729,-0.0889 -4.80585,-0.0817 h -0.4109 l -18.96869,-0.31719 v 0 l -6.29566,-0.12975 -17.15689,-0.28836 -1.73731,-0.0288 h -0.0192 l -3.56354,-0.0601 -17.32509018,-0.28835 c -0.11053,-1.57632 -0.14898,-3.16225 -0.14656999775,-4.75059 q 0,-1.58353 0.0456999977,-3.15984 l 17.42601018,0.37966 3.3641,0.0745 h 0.0601 l 1.90072,0.0409 8.00414,0.17301 4.29883,0.0937 25.47101,0.55268 1.78297,0.0384 8.06662,0.17542 1.00442,0.0216 1.78778,0.0409 2.35487,0.0505 h 0.18022 l 7.6413,0.16581 10.9261,0.24029 0.67762,0.0144 26.127014,0.56709 h 0.42772 l 22.80857,0.495 3.50346,0.0769 0.51183,0.012 h 0.50942 l 0.80257,0.0168 1.00443,0.024 v 0 l 4.50548,0.0961 v 0 h 0.49741 l 1.42012,0.0312 h 0.58391 l 0.55748,0.012 3.12381,0.0697 11.15678,0.24029 h 0.50221 l 0.75211,0.0168 30.73822,0.66561 h 0.46377 l 11.40909,0.2403 4.76019,0.10332 0.56709,0.0793 3.88553,0.54546 c 0.42051,0.74731 0.82901,1.49222 1.20147,2.23713 a 31.314921,31.314921 0 0 1 1.8118,4.14504 z"
     id="path18"
     inkscape:connector-curvature="0"
     style="fill:#ffffff;stroke-width:1" />
  <path
     d="m 228.62401,97.537134 -6.89399,-0.11294 -5.3369,-0.0913 -10.90928,-0.18262 h -0.48058 l -9.18158,-0.15379 v 0 l -18.35595,-0.31478 -9.95291,-0.1658 -1.24232,-0.0216 h -0.48058 v 0 l -0.93234,-0.0144 h -0.22106 -0.26913 l -5.16389,-0.10333 -2.9604,-0.0505 -0.79297,-0.0144 v 0 h -0.27153 -0.0673 l -5.421,-0.0913 -5.32728,-0.0865 -42.91385,-0.72087 h -0.58631 l -16.279824,-0.27153 -1.01884,-0.0192 v 0 l -7.8071,-0.12735 -5.32729,-0.0889 -4.80585,-0.0817 h -0.4109 l -18.96869,-0.31719 v 0 l -6.29566,-0.12975 -17.15689,-0.28836 -1.73731,-0.0288 h -0.0192 l -3.56354,-0.0601 -17.32509018,-0.28835 c -0.11053,-1.57632 -0.14898,-3.16225 -0.14656999775,-4.75059 L 17.471766,89.309614 l 3.60439,0.0697 h 0.0553 l 1.66523,0.0336 10.11391,0.19945 5.71175,0.11534 9.64775,0.19223 9.56845,0.18983 v 0 l 5.49549,0.10813 h 0.11534 l 6.02893,0.11775 h 0.22107 l 0.72088,0.0168 5.32729,0.10572 h 0.10813 l 2.76096,0.0529 0.93954,0.0216 1.71809,0.0312 15.67429,0.31238 h 0.62956 l 46.772944,0.92753 5.32729,0.10813 4.54633,0.0889 h 0.0601 0.2403 0.29796 l 3.72213,0.0721 0.69204,0.0168 v 0 h 0.55268 l 11.23607,0.22347 h 0.49981 l 0.78576,0.0144 13.36026,0.26673 v 0 l 14.62421,0.28835 v 0 l 4.12342,0.0817 h 0.39167 l 11.5773,0.24029 5.32728,0.10573 5.09901,0.10092 a 31.314921,31.314921 0 0 1 1.8094,4.12582 z"
     id="path20"
     inkscape:connector-curvature="0"
     style="fill:#d0d0db;stroke-width:1" />
  <path
     d="m 208.79267,120.11742 q -0.22107,0.13937 -0.43253,0.28835 -0.45415,0.30517 -0.88908,0.63678 v 0 c -0.48058,0.36524 -0.94195,0.75452 -1.38889,1.15821 q -0.39648,0.36284 -0.77855,0.7449 c -0.20184,0.19704 -0.40369,0.40129 -0.60073,0.61035 -0.37966,0.39648 -0.74971,0.80498 -1.11255,1.21828 l -0.28595,0.3316 q -0.39889,0.48059 -0.79297,0.94676 c -0.34121,0.4133 -0.67522,0.83141 -1.00923,1.25192 -0.48058,0.60073 -0.96117,1.20146 -1.42733,1.80219 -0.13937,0.17301 -0.27634,0.34362 -0.4109,0.51663 -0.78336,0.96117 -1.56911,1.92234 -2.40293,2.81143 l -21.00877,0.0408 h -2.85228 -2.93397 l -0.0793,-0.0456 v 0 l -0.54787,-0.31719 -0.25711,-0.14898 c -0.6512,-0.37966 -1.30239,-0.75932 -1.95118,-1.12937 l -0.15619,-0.0913 c -0.91551,-0.52144 -1.82382,-1.02846 -2.72732,-1.50664 q -0.81699,-0.43252 -1.65081,-0.8266 a 46.455753,46.455753 0 0 0 -5.6661,-2.27317 48.822634,48.822634 0 0 0 -7.75183,-1.86707 q -1.60516,-0.25712 -3.22713,-0.40129 c -0.69685,-0.0625 -1.3985,-0.11294 -2.10016,-0.14658 a 49.581959,49.581959 0 0 0 -16.8421,2.04729 c -0.74251,0.22588 -1.48261,0.48059 -2.2131,0.7353 -0.13696,0.0456 -0.27153,0.0961 -0.40369,0.14417 0.024,-0.12255 0.0505,-0.24029 0.0769,-0.36765 0.19944,-0.91791 1.02845,-1.92234 2.17705,-2.93397 0.48058,-5.88476 5.40177,-10.57287 5.40177,-10.57287 l 11.659,-5.04614 0.14417,-0.0961 c 2.03288,-1.36486 4.1883,-2.463 5.32729,-2.86669 a 3.2055022,3.2055022 0 0 1 0.495,-0.14417 c 2.13139,-0.42532 4.00327,-2.12659 5.52673,-3.05893 0.66801,-0.4085 0.78816,-1.874276 0.70646,-3.402536 0,-0.11774 0,-0.24029 -0.0192,-0.35323 l -0.34602,0.0192 -0.0673,-0.17781 -0.0865,-0.2403 c -0.0144,-0.0408 -0.0264,-0.0793 -0.0409,-0.11774 h -0.0577 -0.0216 -0.24029 c -0.13697,-0.35803 -0.26192,-0.69925 -0.37246,-1.02605 a 19.867386,19.867386 0 0 1 -0.78335,-2.86428 0.81699457,0.81699457 0 0 1 -0.0192,-0.11054 8.5856517,8.5856517 0 0 1 -0.13937,-1.30719 4.9500259,4.9500259 0 0 1 0.0577,-0.9852 3.2006964,3.2006964 0 0 1 0.0985,-0.41571 l -0.22107,0.0216 v 0 l -0.5767,0.0505 -0.17542,0.0144 -0.0769,0.0505 -3.65005,0.3244 -0.34842,0.0312 -0.17782,0.0144 a 0.10332578,0.10332578 0 0 0 0,-0.0264 c 0,0 0,0 0,-0.0192 l -0.33641,0.0312 -0.18021,0.0144 a 3.0228799,3.0228799 0 0 0 0.0649,-0.38206 l -0.37726,0.036 -0.13936,0.012 a 27.833083,27.833083 0 0 1 -3.84469,-0.048 c -4.99808,-0.33641 -11.03663,-1.48741 -11.03663,-1.48741 0,0 -6.82911,1.52826 -11.77433,-0.82181 a 8.67456,8.67456 0 0 1 -2.48943,-1.7325 v 0 a 7.9729058,7.9729058 0 0 1 -1.65562,-2.45099 6.1250563,6.1250563 0 0 1 -0.37005,-1.11015 3.3064251,3.3064251 0 0 1 -0.0889,-1.0669 c 0.42532,-4.80585 13.3891,-1.5643 16.04433,-0.20425 a 4.1690752,4.1690752 0 0 0 0.46857,0.20425 c 1.968,0.72088 5.11583,0.48059 7.22079,0.18022 l 0.4109,-0.0601 c -0.0889,-0.0553 -0.16099,-0.0937 -0.20665,-0.12015 l -0.0601,-0.0336 a 12.526449,12.526449 0 0 1 3.54191,-1.50904 8.5712342,8.5712342 0 0 1 2.30681,-0.24029 13.314609,13.314609 0 0 1 2.36928,0.20425 h 0.0553 a 2.7897962,2.7897962 0 0 0 0.59593,-0.15619 c 0.63197,-0.25471 1.10774,-0.77374 0.92272,-1.68205 a 4.2531776,4.2531776 0 0 1 0.25711,-2.37889 c 0,0 1.18224,0.31238 1.04527,-1.20147 v 0 a 4.9860698,4.9860698 0 0 0 -0.19463,-0.92272 c -0.0505,-0.1682 -0.0937,-0.33641 -0.12976,-0.50702 0,0 0,-0.0192 0,-0.0288 -0.49741,-2.42215 0.38927,-5.07258 0.38927,-5.07258 l 0.59593,-0.76413 0.0312,-0.0937 0.0216,-0.0577 -0.31718,-1.66042 v 0 l -0.0769,-0.39408 -0.1682,-5.69013 c 0,0 -0.0865,-8.91966 2.81142,-10.19321 l -0.0312,-0.40369 -0.0553,-0.69925 c 0,0 -1.23991,-0.36765 -1.98482,-0.96117 a 1.7589412,1.7589412 0 0 1 -0.41571,-0.45896 v 0 a 0.77374191,0.77374191 0 0 1 -0.11293,-0.60554 1.2014626,1.2014626 0 0 1 0.38446,-0.60073 6.3389167,6.3389167 0 0 0 1.87429,-3.39773 c 0,0 0.30997,-0.51423 0.81699,-1.31921 0.0336,-0.0577 0.0721,-0.11774 0.11054,-0.17782 -0.53345,-1.92234 -1.15341,-3.88312 -1.72531,-5.58199 -0.0529,-0.15859 -0.10332,-0.31719 -0.15619,-0.46857 -0.0336,-0.0961 -0.0649,-0.19224 -0.0961,-0.28595 -0.0577,-0.161 -0.11294,-0.31719 -0.1658,-0.48059 l -0.19464,0.0384 a 12.394288,12.394288 0 0 1 -2.20829,0.19944 12.139578,12.139578 0 0 1 -11.87045,-14.80442 c 0.0433,-0.18983 0.0889,-0.37966 0.14177,-0.56469 0.0264,-0.10332 0.0577,-0.20184 0.0913,-0.30276 a 2.0737244,2.0737244 0 0 0 -1.27835,0.16339 c -0.59593,0.26192 -1.11736,0.69926 -1.69887,0.99962 a 4.046526,4.046526 0 0 1 -1.84545,0.42532 4.1017933,4.1017933 0 0 1 -1.17022,-0.16821 v 0 a 4.1041962,4.1041962 0 0 1 -1.35045,-0.67762 c 0.0889,0 0.17302,0 0.25952,-0.0192 h 0.0721 l 0.20184,-0.036 h 0.0577 c 0.0841,-0.0216 0.16821,-0.0433 0.2403,-0.0697 l 0.0433,-0.012 c 0.0721,-0.024 0.14177,-0.0481 0.21146,-0.0769 l 0.0601,-0.024 0.24029,-0.10333 c 0,0 0,0 0,0 0.0841,-0.0384 0.1634,-0.0841 0.24029,-0.12975 a 0.48058504,0.48058504 0 0 1 0.0457,-0.0288 l 0.19944,-0.12735 0.0385,-0.0264 c 0.0793,-0.0529 0.15619,-0.10813 0.24029,-0.1682 a 5.6300537,5.6300537 0 0 0 0.78576,-0.74731 c 0.78335,-0.89389 1.34083,-1.99683 1.8911,-3.08536 l 1.44176,-2.86428 c 0.28835,-0.5695 0.58871,-1.1486 0.92753,-1.68205 a 7.1727317,7.1727317 0 0 1 0.80498,-1.0668998 4.2699981,4.2699981 0 0 1 0.88667,-0.7401 4.6184222,4.6184222 0 0 1 2.1338,-0.63678 c 1.17984,-0.0841 2.42696,0.10573 3.61881,0.0673 1.60755,-0.0529 3.17907,-0.54787 4.70252,-1.12938 a 14.083545,14.083545 0 0 1 2.20589,-0.72088 v 0 a 4.8539089,4.8539089 0 0 1 0.89389,-0.10332 5.7670205,5.7670205 0 0 1 2.50865,0.61995 9.8039348,9.8039348 0 0 1 3.02288,2.23713 c 0.12495,0.13216 0.24029,0.26912 0.36044,0.4109 0.29316,0.34842 0.5743,0.72087 0.85544,1.0668898 0.24029,0.29316 0.46617,0.58392 0.72088,0.86506 1.17262,1.33122 2.59756,2.36448 3.74135,3.72934 1.14379,1.36486 1.99443,3.19829 1.68205,5.0149 v 0.012 c 0,0.012 0,0.0192 0,0.0288 v 0 c -0.0216,0.12736 -0.0529,0.24029 -0.0865,0.37726 0,0.0409 -0.0216,0.0817 -0.0336,0.12015 -0.024,0.0865 -0.0481,0.17301 -0.0769,0.25711 l -0.0433,0.13456 c -0.0312,0.0889 -0.0601,0.18022 -0.0937,0.27153 -0.24029,0.66321 -0.48058,1.32161 -0.49981,2.02807 a 2.6552323,2.6552323 0 0 0 0,0.30998 c 0,0 0,0 0,0 0.0625,0.91071 0.48059,1.76855 0.74491,2.64322 a 4.7409714,4.7409714 0 0 1 0.22588,1.22309 c 0,0.0769 0,0.15379 0,0.22828 v 0.007 c 0,0.0721 0,0.14417 0,0.21626 a 2.3404491,2.3404491 0 0 1 -0.0553,0.34842 v 0 a 0.12014626,0.12014626 0 0 1 0,0.0385 0.21866619,0.21866619 0 0 1 0,0.0505 c 0,0 0,0.0168 0,0.0264 a 1.6820476,1.6820476 0 0 1 -0.0529,0.16821 c 0,0.0168 0,0.036 -0.0192,0.0553 l -0.0577,0.13216 -0.0336,0.0601 a 1.0404666,1.0404666 0 0 1 -0.0745,0.12255 0.38206511,0.38206511 0 0 1 -0.0312,0.0529 1.6291833,1.6291833 0 0 1 -0.12735,0.161 c -0.0288,0.0312 -0.0577,0.0577 -0.0889,0.0865 l 0.35563,0.21627 c 0.0312,0.0216 0.0625,0.0384 0.0961,0.0577 1.15581,0.24029 4.56556,0.96117 5.90639,1.02124 0.40609,0.0216 1.0717,0.28835 1.84304,0.67282 a 16.536931,16.536931 0 0 1 7.48752,7.8071 c 1.12457,2.40293 2.45338,5.01491 3.15263,5.52673 0.5671,0.42532 1.15101,1.27836 1.6388,2.12899 0.21146,0.36765 0.40369,0.7353 0.56709,1.0669 0.37005,0.7401 0.60554,1.30719 0.60554,1.30719 0,0 5.52673,3.73655 4.8515,7.389 0,0 1.20147,4.08497 2.38611,5.26721 1.18464,1.18224 3.91677,10.71464 3.91677,10.71464 0,0 1.02124,1.78297 0.93714,3.13822 -0.0841,1.35525 1.02364,4.25078 1.02364,4.25078 0,0 0.2403,1.20146 0.55268,2.40292 0.0961,0.36525 0.19944,0.72088 0.30997,1.0669 0.21627,0.68964 0.45175,1.25914 0.67042,1.44176 0.67762,0.59352 0.33881,1.86707 0.33881,1.86707 0,0 0.85064,2.20829 1.27836,2.80421 a 2.0785303,2.0785303 0 0 1 0.24029,0.98761 10.993383,10.993383 0 0 1 -0.0673,1.646 c 0,0 -0.0625,0.48059 -0.10092,1.13418 -0.0625,1.05248 -0.0625,2.53749 0.35563,3.1238 a 2.3476579,2.3476579 0 0 1 0.31238,1.00923 c 0.19944,1.44176 0.036,3.652446 0.62476,4.176286 0.76653,0.67762 0.42772,6.87957 0.42772,6.87957 0,0 1.19185,7.68456 2.24193,11.91851 z"
     id="path22"
     inkscape:connector-curvature="0"
     style="fill:url(#linearGradient942);stroke-width:1" />
  <path
     d="m 178.27552,104.68824 -0.80979,0.66321 -3.90715,3.20309 -0.79057,0.64879 -3.43378,2.81864 c 0,0 -9.65014,5.62044 -19.66073,10.37102 -1.07411,0.50942 -2.16263,1.00923 -3.22713,1.49222 -0.69685,-0.0625 -1.3985,-0.11294 -2.10015,-0.14658 a 49.581959,49.581959 0 0 0 -16.84211,2.04729 10.683405,10.683405 0 0 1 -0.0481,-2.24673 c 0.48059,-5.84632 5.35853,-10.50079 5.35853,-10.50079 l 11.53404,-5.00529 h 0.012 v 0 l 5.31287,-2.30441 8.02096,-3.48183 2.5399,0.30036 4.61842,0.55027 z"
     id="path24"
     inkscape:connector-curvature="0"
     style="fill:#95b6f0;stroke-width:1" />
  <path
     d="m 178.27552,104.68824 -0.80979,0.66321 -3.90715,3.20309 -0.79057,0.64879 -3.43378,2.81864 c 0,0 -9.65014,5.62044 -19.66073,10.37102 -1.07411,0.50942 -2.16263,1.00923 -3.22713,1.49222 -0.69685,-0.0625 -1.3985,-0.11294 -2.10015,-0.14658 a 49.581959,49.581959 0 0 0 -16.84211,2.04729 10.683405,10.683405 0 0 1 -0.0481,-2.24673 c 0.48059,-5.84632 5.35853,-10.50079 5.35853,-10.50079 l 11.53404,-5.00529 h 0.012 v 0 l 5.31287,-2.30441 8.02096,-3.48183 2.5399,0.30036 4.61842,0.55027 z"
     id="path26"
     inkscape:connector-curvature="0"
     style="opacity:0.05;stroke-width:1" />
  <path
     d="m 167.98619,128.13598 -0.0312,0.24029 -0.15379,1.15341 -0.0216,0.18262 -0.012,0.0625 -0.0577,0.43973 -0.0841,0.63918 -0.15619,-0.0913 c -0.91551,-0.52144 -1.82382,-1.02845 -2.72732,-1.50663 q -0.81699,-0.43253 -1.65081,-0.82661 a 46.455753,46.455753 0 0 0 -5.66609,-2.27317 l 0.52143,-0.96117 3.22713,0.94675 4.58478,1.35045 0.84103,0.24029 0.67041,0.19704 z"
     id="path28"
     inkscape:connector-curvature="0"
     style="fill:#5f546f;stroke-width:1" />
  <path
     d="m 167.98619,128.13598 -0.0312,0.24029 -0.15379,1.15341 -0.0216,0.18262 -0.012,0.0625 -0.0577,0.43973 -0.0841,0.63918 -0.15619,-0.0913 c -0.91551,-0.52144 -1.82382,-1.02845 -2.72732,-1.50663 q -0.81699,-0.43253 -1.65081,-0.82661 a 46.455753,46.455753 0 0 0 -5.66609,-2.27317 l 0.52143,-0.96117 3.22713,0.94675 4.58478,1.35045 0.84103,0.24029 0.67041,0.19704 z"
     id="path30"
     inkscape:connector-curvature="0"
     style="opacity:0.05;stroke-width:1" />
  <polygon
     points="698.76,677.7 672.08,667.17 668.92,655.59 694.89,666.12 "
     id="polygon32"
     style="fill:#ccccd8;stroke-width:4.16159439"
     transform="matrix(0.24029252,0,0,0.24029252,-0.00471418,-33.023406)" />
  <polygon
     points="698.76,677.7 672.08,667.17 668.92,655.59 694.89,666.12 "
     id="polygon34"
     style="opacity:0.05;stroke-width:4.16159439"
     transform="matrix(0.24029252,0,0,0.24029252,-0.00471418,-33.023406)" />
  <path
     d="m 201.49499,127.31418 c -0.48059,0.60073 -0.96117,1.20146 -1.42734,1.8022 -0.13937,0.17301 -0.27634,0.34361 -0.4109,0.51662 -0.78336,0.96117 -1.56911,1.92234 -2.40293,2.81143 l -0.0985,0.10573 -26.50907,0.0505 v 0 l -0.17781,-0.10573 -0.0793,-0.0457 v 0 l -0.54787,-0.31718 -0.25711,-0.14898 c -0.65119,-0.37967 -1.30239,-0.75933 -1.95118,-1.12938 l -0.15619,-0.0913 0.024,-0.58151 0.0192,-0.4974 v 0 l 0.036,-0.9035 v 0 l 0.0144,-0.37726 0.39167,-0.0144 z"
     id="path36"
     inkscape:connector-curvature="0"
     style="fill:#5f546f;stroke-width:1" />
  <path
     d="m 176.24985,132.52132 h -0.2523 l -2.3765,-0.0336 h -0.0841 l -3.15504,-0.0408 -0.54787,-0.31719 -0.0457,-1.94877 v -0.50461 l -0.0192,-0.86506 5.97368,-0.31238 0.25471,-0.012 0.0673,1.08372 0.0312,0.50702 0.15138,2.41974 z"
     id="path38"
     inkscape:connector-curvature="0"
     style="opacity:0.1;stroke-width:1" />
  <path
     d="m 175.99755,132.51892 v 0 l -2.59757,-0.0312 -3.01326,-0.0408 v 0 l -0.54787,-0.31719 -0.25711,-0.14898 -0.0457,-1.79979 v -0.50461 l -0.0192,-0.86986 6.2476,-0.33641 v 0.0288 l 0.0697,1.07651 0.0312,0.50702 0.15138,2.41494 z"
     id="path40"
     inkscape:connector-curvature="0"
     style="fill:#5f546f;stroke-width:1" />
  <path
     d="m 175.99755,132.51892 v 0 l -2.59757,-0.0312 -3.01326,-0.0408 v 0 l -0.54787,-0.31719 -0.25711,-0.14898 -0.0457,-1.79979 v -0.50461 l -0.0192,-0.86986 6.2476,-0.33641 v 0.0288 l 0.0697,1.07651 0.0312,0.50702 0.15138,2.41494 z"
     id="path42"
     inkscape:connector-curvature="0"
     style="opacity:0.1;fill:#ffffff;stroke-width:1" />
  <path
     d="m 167.95496,128.37387 33.54003,-1.05969 c -0.48059,0.60073 -0.96117,1.20146 -1.42734,1.8022 -0.13937,0.17301 -0.27634,0.34361 -0.4109,0.51662 l -23.54867,0.43253 h -0.24029 l -6.05537,0.11054 h -0.2403 v 0 l -1.71568,0.0312 a 0.81459164,0.81459164 0 0 1 -0.10814,0 0.90349988,0.90349988 0 0 1 -0.21626,-0.0336 l 0.0192,-0.4974 v 0 l 0.0361,-0.9035 v 0 l 0.0144,-0.37726 z"
     id="path44"
     inkscape:connector-curvature="0"
     style="opacity:0.1;stroke-width:1" />
  <path
     d="m 203.57832,124.7839 -0.28595,0.3316 q -0.39888,0.48059 -0.79296,0.94676 c -0.34122,0.4133 -0.67522,0.83141 -1.00923,1.25192 -0.48059,0.60073 -0.96117,1.20146 -1.42734,1.8022 l -23.99801,0.44213 h -0.24029 l -6.04817,0.11775 h -0.24029 l -1.68205,0.024 h -0.0817 a 1.220686,1.220686 0 0 1 -0.21386,-0.0192 h -0.0529 a 1.2831621,1.2831621 0 0 1 -0.99001,-1.42493 l 0.0769,-0.52624 0.0721,-0.51183 0.0408,-0.28594 0.0841,-0.5743 0.0216,-0.161 z"
     id="path46"
     inkscape:connector-curvature="0"
     style="fill:#ccccd8;stroke-width:1" />
  <path
     d="m 204.92877,121.81148 1.14139,0.39889 q -0.39649,0.36284 -0.77855,0.74491 c -0.20185,0.19704 -0.40369,0.40128 -0.60073,0.61034 -0.37967,0.39648 -0.74972,0.80498 -1.11256,1.21828 l -0.28595,0.3316 q -0.39888,0.48059 -0.79296,0.94676 l -35.08271,0.96117 v 0 h -0.43253 l -0.17781,-0.68003 -1.42734,-5.47627 33.91969,0.79777 v 0 l 1.94877,0.0457 z"
     id="path48"
     inkscape:connector-curvature="0"
     style="fill:#5f546f;stroke-width:1" />
  <path
     d="m 207.45905,121.04976 c -0.48059,0.36524 -0.94195,0.75451 -1.38889,1.15821 q -0.39649,0.36284 -0.77855,0.7449 c -0.20185,0.19704 -0.40369,0.40129 -0.60073,0.61035 -0.37967,0.39648 -0.74972,0.80498 -1.11256,1.21828 l -0.28595,0.3316 c -5.84391,0.66321 -16.12603,1.5571 -25.43977,0.99481 a 34.65739,34.65739 0 0 0 -10.44311,0.91552 v 0 l -0.40369,0.10332 -0.3316,0.0889 c -0.30998,0.0841 -0.61515,0.17301 -0.91312,0.26432 -0.72087,0.21627 -1.39129,0.44935 -2.02806,0.69205 l -0.63918,0.2523 a 46.455753,46.455753 0 0 0 -5.6661,-2.27316 48.822634,48.822634 0 0 0 -7.75184,-1.86708 q -1.60515,-0.25711 -3.22713,-0.40129 c -0.69684,-0.0625 -1.3985,-0.11293 -2.10015,-0.14657 a 49.581959,49.581959 0 0 0 -16.8421,2.04729 c -0.74251,0.22587 -1.48261,0.48058 -2.2131,0.73529 l 0.0144,-0.0721 c 0.20184,-0.91312 1.01884,-1.92234 2.16263,-2.90995 3.6981,-3.24635 10.75549,-6.45185 10.75549,-6.45185 l 3.76058,-1.59554 v 0 l 2.37169,-1.00923 5.32729,-2.25875 11.2601,-4.77702 0.12015,-0.0505 2.60717,-1.10534 2.3837,-1.01404 a 18.983109,18.983109 0 0 1 5.06777,-0.63437 c 0.21867,0 0.43974,0 0.65841,0 0.1658,0 0.3292,0 0.495,0.0192 h 0.0673 0.24029 c 0.4061,0.0216 0.81219,0.0553 1.22309,0.0961 0.14418,0.012 0.28835,0.0288 0.43493,0.0457 h 0.0769 l 0.322,0.0384 c 0.13456,0.0144 0.26912,0.0336 0.40369,0.0529 l 0.40129,0.0577 c 0.26912,0.0408 0.53825,0.0841 0.80978,0.13216 q 0.60554,0.10813 1.22309,0.24029 l 0.60314,0.12976 c 0.61514,0.13456 1.2327,0.28595 1.85265,0.44935 l 0.5767,0.15859 0.38687,0.11053 0.48059,0.14178 c 1.13178,0.3364 2.26596,0.72087 3.38812,1.12216 l 0.60314,0.22588 0.5767,0.21626 a 0.06487898,0.06487898 0 0 0 0.0264,0.012 c 0.34362,0.13217 0.68724,0.26913 1.02845,0.4085 1.93916,0.78576 3.84468,1.65081 5.64207,2.55431 l 0.61996,0.30998 0.31959,0.1658 c 0.21386,0.10813 0.42291,0.21867 0.63437,0.3292 l 0.62716,0.3316 0.30758,0.16581 0.30757,0.1682 0.30277,0.1658 q 1.06449,0.58391 2.0569,1.17023 c 0.18983,0.11053 0.37726,0.22107 0.56229,0.334 l 0.27633,0.1634 c 0.36525,0.22107 0.72088,0.43974 1.07171,0.66081 0.17301,0.10573 0.34362,0.21386 0.51663,0.32439 0.2523,0.161 0.50221,0.32199 0.74731,0.48059 0.16099,0.10332 0.31959,0.20905 0.48058,0.31478 l 0.24029,0.15859 c 0.15379,0.10333 0.30518,0.20425 0.45416,0.30758 l 0.25711,0.17781 c 0.17061,0.11535 0.33881,0.2403 0.49981,0.34843 0.0817,0.0577 0.16099,0.11774 0.24029,0.17301 l 0.0745,0.0529 0.58872,0.43253 c 0,0 0,0 0.012,0 l 0.36044,0.27393 0.35083,0.27153 c 0.24029,0.17542 0.44694,0.35083 0.65119,0.52144 0.10092,0.0817 0.19944,0.1634 0.29316,0.24029 l 0.14177,0.12015 0.13937,0.12014 0.24029,0.22348 0.16821,0.16099 c 0.0625,0.0553 0.11774,0.10813 0.17061,0.161 a 7.8167157,7.8167157 0 0 1 0.59832,0.65359 c 0.14178,0.18022 0.27153,0.35083 0.39168,0.51423 z"
     id="path50"
     inkscape:connector-curvature="0"
     style="fill:#95b6f0;stroke-width:1" />
  <path
     d="m 150.35833,90.772904 a 5.9928954,5.9928954 0 0 1 -2.05209,0.42532 c -4.88515,0.36043 -14.73474,-1.52346 -14.73474,-1.52346 0,0 -12.3991,2.78259 -15.7728,-4.97646 -3.37371,-7.75904 12.48319,-3.88072 15.43639,-2.36207 1.8863,0.96117 5.35852,0.69925 7.61968,0.37966 1.27595,-0.18262 2.16263,-0.37966 2.16263,-0.37966 0,0 10.45993,6.91802 7.34093,8.43667 z"
     id="path52"
     inkscape:connector-curvature="0"
     style="fill:#c27099;stroke-width:1" />
  <path
     d="m 163.93486,76.855164 -2.78259,13.57652 -8.26366,0.72088 -4.13543,0.36524 c 1.01163,-4.21713 -7.75664,-9.02538 -7.75664,-9.02538 4.46704,-2.69849 7.08382,-1.44176 8.00895,-1.51865 0.0625,0 0.12255,0 0.18262,-0.0216 0.87466,-0.12976 1.74452,-0.64879 1.50663,-1.83103 a 4.2507747,4.2507747 0 0 1 0.2403,-2.36447 c 0,0 1.60275,0.42291 0.84342,-2.10737 -0.75932,-2.53028 0.25231,-5.56758 0.25231,-5.56758 l 0.59112,-0.75932 0.92753,-2.86669 3.79422,3.87832 z"
     id="path54"
     inkscape:connector-curvature="0"
     style="fill:#4c4981;stroke-width:1" />
  <path
     d="m 163.93486,76.939264 -2.78259,13.57893 -8.26366,0.72088 -4.13543,0.36764 c 1.01163,-4.21953 -7.75664,-9.02779 -7.75664,-9.02779 4.46704,-2.69848 7.08382,-1.44175 8.00895,-1.51624 l 0.18262,-0.024 c 0.87466,-0.12976 1.74452,-0.64879 1.50663,-1.83103 a 4.2507747,4.2507747 0 0 1 0.2403,-2.36448 c 0,0 1.60275,0.42292 0.84342,-2.10736 -0.75932,-2.53029 0.25231,-5.56758 0.25231,-5.56758 l 0.59112,-0.75933 0.93954,-2.86669 3.79422,3.88073 z"
     id="path56"
     inkscape:connector-curvature="0"
     style="opacity:0.05;stroke-width:1" />
  <path
     d="m 154.57307,90.349984 c -0.4061,0.29316 -0.80258,0.56229 -1.17984,0.81459 l -4.13303,0.36525 c 1.01163,-4.21713 -7.75905,-9.02539 -7.75905,-9.02539 4.46944,-2.69848 7.08623,-1.44175 8.01135,-1.51865 0.0601,0 0.12255,0 0.18263,-0.0216 1.12216,1.42493 2.53749,3.07094 3.36409,3.48184 1.51385,0.75932 4.80345,3.54191 1.51385,5.90398 z"
     id="path58"
     inkscape:connector-curvature="0"
     style="opacity:0.1;stroke-width:1" />
  <path
     d="m 150.35833,90.772904 a 5.9928954,5.9928954 0 0 1 -2.05209,0.42532 c 0.43973,-3.60439 -5.85593,-7.55 -7.44907,-8.48233 1.27595,-0.18262 2.16263,-0.37966 2.16263,-0.37966 0,0 10.45753,6.91802 7.33853,8.43667 z"
     id="path60"
     inkscape:connector-curvature="0"
     style="opacity:0.1;stroke-width:1" />
  <path
     d="m 154.06845,90.349984 c -0.4085,0.29316 -0.80258,0.56229 -1.17984,0.81459 l -4.13543,0.36525 c 1.01163,-4.21713 -7.75664,-9.02539 -7.75664,-9.02539 4.46704,-2.69848 7.08382,-1.44175 8.00895,-1.51865 0.0625,0 0.12255,0 0.18262,-0.0216 1.12457,1.42493 2.53749,3.07094 3.36409,3.48184 1.51625,0.75932 4.80345,3.54191 1.51625,5.90398 z"
     id="path62"
     inkscape:connector-curvature="0"
     style="fill:#4c4981;stroke-width:1" />
  <path
     d="m 154.06845,90.518194 q -0.61275,0.43973 -1.17984,0.81459 l -4.13543,0.36765 c 1.01163,-4.21954 -7.75664,-9.02779 -7.75664,-9.02779 4.46704,-2.69849 7.08382,-1.44176 8.00895,-1.51625 0.0625,0 0.12255,-0.0144 0.18262,-0.024 1.12457,1.42494 2.53749,3.07334 3.36409,3.48184 1.51625,0.75933 4.80345,3.54191 1.51625,5.90399 z"
     id="path64"
     inkscape:connector-curvature="0"
     style="opacity:0.05;stroke-width:1" />
  <path
     d="m 171.2734,32.574054 c 0,0 -15.85931,22.1814 -14.59057,18.13247 0.83382,-2.66484 -1.47539,-10.29173 -3.15023,-15.2009 -0.87226,-2.54951 -1.57392,-4.36612 -1.57392,-4.36612 0,0 9.10949,-7.84555 8.94129,-6.07459 -0.0433,0.46136 0.63677,1.20146 1.68204,2.02086 2.92436,2.35006 8.69139,5.48828 8.69139,5.48828 z"
     id="path66"
     inkscape:connector-curvature="0"
     style="fill:#c27099;stroke-width:1" />
  <path
     d="m 162.5676,27.095384 a 12.072296,12.072296 0 0 1 -9.03981,8.41024 c -0.87226,-2.54951 -1.57391,-4.36612 -1.57391,-4.36612 0,0 9.10949,-7.84555 8.94128,-6.07459 -0.0384,0.46136 0.64158,1.19185 1.67244,2.03047 z"
     id="path68"
     inkscape:connector-curvature="0"
     style="opacity:0.1;stroke-width:1" />
  <path
     d="m 163.04818,23.212254 a 12.062685,12.062685 0 1 1 -12.06028,-12.06268 12.002611,12.002611 0 0 1 12.06028,12.06268 z"
     id="path70"
     inkscape:connector-curvature="0"
     style="fill:#c27099;stroke-width:1" />
  <path
     d="m 207.45905,121.04976 c -0.48059,0.36524 -0.94195,0.75451 -1.38889,1.15821 q -0.39649,0.36284 -0.77855,0.7449 c -0.20185,0.19704 -0.40369,0.40129 -0.60073,0.61035 a 33.619326,33.619326 0 0 1 -5.39938,-1.8863 v 0 c -1.4009,-0.62716 -2.57113,-1.34804 -3.21992,-2.06892 -2.16263,-2.37169 -9.28009,-8.5448 -23.30837,-10.40947 a 65.237016,65.237016 0 0 0 -10.186,-0.51663 q -0.70646,0.0144 -1.42974,0.0457 l -0.21867,-1.29038 0.12015,-0.0505 2.60717,-1.10534 2.3837,-1.01404 a 18.983109,18.983109 0 0 1 5.06777,-0.63437 c 0.21867,0 0.43974,0 0.6584,0 0.16581,0 0.32921,0 0.49501,0.0192 h 0.0673 0.24029 c 0.4061,0.0216 0.81219,0.0553 1.22309,0.0961 0.14418,0.012 0.28835,0.0288 0.43493,0.0457 h 0.0769 l 0.322,0.0384 c 0.13456,0.0144 0.26912,0.0336 0.40369,0.0529 l 0.40129,0.0577 c 0.26912,0.0409 0.53825,0.0841 0.80978,0.13216 0.40369,0.0673 0.81219,0.14658 1.22309,0.24029 l 0.60313,0.12976 c 0.61515,0.13456 1.23271,0.28595 1.85266,0.44935 l 0.5767,0.15859 0.38687,0.11053 0.48059,0.14178 c 1.13178,0.33641 2.26596,0.72087 3.38812,1.12216 l 0.60314,0.22588 0.5767,0.21626 a 0.06487898,0.06487898 0 0 0 0.0264,0.012 c 0.34362,0.13216 0.68724,0.26912 1.02845,0.40849 1.93916,0.78576 3.84468,1.65081 5.64207,2.55431 l 0.61996,0.30998 0.31959,0.1658 c 0.21386,0.10813 0.42291,0.21867 0.63437,0.3292 l 0.62716,0.33161 0.30758,0.1658 0.30757,0.1682 0.30277,0.1658 q 1.06449,0.58392 2.0569,1.17023 c 0.18983,0.11053 0.37726,0.22107 0.56229,0.33401 l 0.27633,0.16339 c 0.36525,0.22348 0.72088,0.43974 1.07171,0.66081 0.17301,0.10573 0.34362,0.21386 0.51663,0.32439 0.2523,0.161 0.50221,0.322 0.74731,0.48059 0.16099,0.10332 0.31959,0.20905 0.48058,0.31478 l 0.24029,0.15859 c 0.15379,0.10333 0.30518,0.20425 0.45416,0.30758 l 0.25711,0.17782 0.50221,0.39167 c 0.0817,0.0577 0.161,0.11775 0.24029,0.17301 l 0.0745,0.0529 0.58872,0.43252 c 0,0 0,0 0.012,0 l 0.36043,0.27394 0.35083,0.27153 c 0.24029,0.17781 0.44695,0.35323 0.65119,0.52143 0.10093,0.0817 0.19945,0.1634 0.29316,0.2403 l 0.14177,0.12014 0.13937,0.12015 0.2403,0.22347 0.1682,0.161 c 0.0625,0.0553 0.11774,0.10813 0.17061,0.16099 a 7.8167157,7.8167157 0 0 1 0.59833,0.6536 c 0.14177,0.18022 0.27153,0.35082 0.39167,0.51422 z"
     id="path72"
     inkscape:connector-curvature="0"
     style="opacity:0.1;stroke-width:1" />
  <path
     d="m 206.1086,108.48486 c 0,0 1.20146,7.73742 2.25154,11.92091 q -0.45415,0.30517 -0.88908,0.63678 v 0 c -0.48058,0.36524 -0.94195,0.75452 -1.38889,1.15821 q -0.39648,0.36284 -0.77855,0.7449 a 35.053873,35.053873 0 0 1 -4.05133,-1.23029 c -2.19627,-0.817 -4.23395,-1.84305 -5.16869,-2.86669 -2.12419,-2.32604 -9.01097,-8.31172 -22.51301,-10.29894 a 64.799684,64.799684 0 0 0 -10.53202,-0.63678 c -0.61515,0 -1.23991,0.0264 -1.87428,0.0553 l -0.0985,-0.58151 -0.83141,-4.83949 -0.76413,-4.534316 v -0.0264 l -0.0817,-0.50221 v -0.0288 l -0.0336,-0.20665 -0.14658,-0.86745 -0.39168,-2.31883 -0.18262,-1.09573 c 0,0 -0.012,-0.12495 -0.0288,-0.34843 0,-0.036 0,-0.0769 0,-0.11774 0,-0.0408 0,-0.0721 0,-0.11053 0,-0.0385 0,-0.0553 0,-0.0865 0,-0.0312 0,-0.12014 -0.0144,-0.18983 -0.0144,-0.0697 0,-0.0865 0,-0.13456 l -0.0144,-0.15139 a 0.38446803,0.38446803 0 0 1 0,-0.0553 c 0,-0.0769 -0.0144,-0.16099 -0.0216,-0.24029 a 0.03123803,0.03123803 0 0 1 0,-0.0144 c -0.0144,-0.15619 -0.0312,-0.32199 -0.0481,-0.495 -0.012,-0.10813 -0.024,-0.22107 -0.036,-0.33641 -0.0481,-0.44454 -0.10092,-0.92993 -0.161,-1.44175 -0.0553,-0.42772 -0.11293,-0.86986 -0.17541,-1.312 -0.0168,-0.12255 -0.0336,-0.24029 -0.0529,-0.36044 0,-0.0697 -0.0192,-0.13937 -0.0312,-0.20905 v 0 c 0,-0.0553 -0.0168,-0.11294 -0.0264,-0.16821 -0.036,-0.24029 -0.0745,-0.45655 -0.11294,-0.68003 0,-0.0481 -0.0168,-0.0961 -0.024,-0.14177 -0.0216,-0.11534 -0.0409,-0.24029 -0.0625,-0.34121 -0.0216,-0.10093 -0.0529,-0.26913 -0.0793,-0.40129 a 0.05286435,0.05286435 0 0 0 0,-0.0192 c 0,-0.0577 -0.024,-0.11293 -0.036,-0.17301 -0.012,-0.0601 -0.036,-0.16099 -0.0529,-0.24029 -0.0312,-0.14177 -0.0625,-0.28114 -0.0961,-0.4109 l -0.0457,-0.17541 c -0.0216,-0.0913 -0.0481,-0.18262 -0.0745,-0.26913 a 4.142643,4.142643 0 0 0 -0.48058,-1.20146 v 0 a 0.51662892,0.51662892 0 0 0 -0.0553,-0.0673 0.3436183,0.3436183 0 0 0 -0.0577,-0.0601 1.3960995,1.3960995 0 0 1 -0.19463,-0.24029 1.6988681,1.6988681 0 0 1 -0.0913,-0.14658 c -0.0577,-0.10573 -0.12014,-0.22107 -0.18262,-0.35083 0,-0.0144 -0.0144,-0.0312 -0.024,-0.048 -0.01,-0.0168 -0.0481,-0.10093 -0.0697,-0.15379 -1.16782,-2.62159 -2.64322,-9.26808 -2.64322,-9.26808 l -0.95877,-4.62083 v 0 l -0.0961,-0.50702 -0.29076,-1.53547 v -0.18262 0 l -0.1658,-5.46425 c 0,0 -0.0865,-8.85718 2.78259,-10.12112 l -0.0865,-1.09573 c 0,0 -2.23232,-0.66081 -2.48462,-1.66763 a 0.72087756,0.72087756 0 0 1 0.0288,-0.45896 v 0 a 1.3240118,1.3240118 0 0 1 0.34843,-0.48059 c 0.0409,-0.0384 0.0817,-0.0769 0.11774,-0.11774 a 6.2740377,6.2740377 0 0 0 1.73732,-3.25597 c 0,0 0.35323,-0.58631 0.92032,-1.48741 1.76855,-2.80902 5.62284,-8.66975 7.34574,-9.30893 a 13.77597,13.77597 0 0 0 3.96482,-2.36207 l 0.38688,0.0841 v 0 c 1.14859,0.24029 4.52951,0.94435 5.85112,1.01163 0.40129,0.024 1.05969,0.28595 1.82382,0.66801 a 16.402367,16.402367 0 0 1 7.44907,7.75184 c 1.11736,2.40293 2.43176,4.97886 3.1238,5.49789 a 5.6660976,5.6660976 0 0 1 1.18945,1.40091 c 0.22347,0.34362 0.43733,0.72088 0.62956,1.0669 0.5695,1.05248 0.96117,2.00404 0.96117,2.00404 0,0 5.48348,3.71011 4.80585,7.33613 0,0 1.18224,4.04893 2.36208,5.23117 1.17984,1.18223 3.88072,10.62813 3.88072,10.62813 0,0 1.01164,1.77096 0.92753,3.12381 -0.0841,1.35284 1.01163,4.21953 1.01163,4.21953 0,0 0.17542,0.89629 0.43253,1.92234 0.0865,0.35083 0.18262,0.72088 0.28355,1.0669 0.25711,0.87947 0.54306,1.66523 0.80257,1.89351 0.67282,0.58871 0.33641,1.85506 0.33641,1.85506 0,0 0.84343,2.19387 1.26634,2.78258 a 1.4009054,1.4009054 0 0 1 0.19224,0.56709 9.0133724,9.0133724 0 0 1 -0.024,2.0497 c 0,0 -0.036,0.29316 -0.0721,0.72088 -0.0817,1.02364 -0.14658,2.83545 0.3268,3.48664 a 1.7541354,1.7541354 0 0 1 0.24029,0.63678 c 0.29556,1.36966 0.0457,3.940786 0.68003,4.507876 0.77374,0.67042 0.43733,6.83152 0.43733,6.83152 z"
     id="path74"
     inkscape:connector-curvature="0"
     style="fill:#4c4981;stroke-width:1" />
  <path
     d="m 169.16603,92.543854 c 0,0 -0.48059,1.13418 -1.17984,2.80902 -1.38168,3.31604 -3.60438,8.751456 -4.56555,11.613336 -1.44176,4.30124 -7.25203,6.83152 -7.25203,6.83152 0,0 -11.55567,3.96242 -15.6046,1.01163 -4.04893,-2.95079 7.59084,-9.4483 9.69821,-9.86641 2.10736,-0.41811 3.96482,-2.11217 5.48347,-3.0373 0.72088,-0.43733 0.79537,-2.109766 0.67763,-3.758166 a 31.771477,31.771477 0 0 0 -0.50942,-3.66687 z"
     id="path76"
     inkscape:connector-curvature="0"
     style="fill:#c27099;stroke-width:1" />
  <path
     d="m 184.93883,52.900394 c 0,0 4.38534,-1.94156 6.24761,1.09574 1.86226,3.0373 -6.24761,-1.09574 -6.24761,-1.09574 z"
     id="path78"
     inkscape:connector-curvature="0"
     style="opacity:0.1;stroke-width:1" />
  <path
     d="m 201.13214,91.952734 c 0,0 -30.27685,0.25231 -24.54347,4.13304 5.73338,3.88072 6.5792,5.733376 13.24252,3.87832 6.66331,-1.85506 11.30095,-8.01136 11.30095,-8.01136 z"
     id="path80"
     inkscape:connector-curvature="0"
     style="opacity:0.1;stroke-width:1" />
  <path
     d="m 163.04818,23.212254 a 12.014626,12.014626 0 0 1 -1.61476,6.02894 3.7461604,3.7461604 0 0 1 -1.24232,-0.79056 c -0.40849,-0.43253 -0.63437,-1.02365 -0.88908,-1.58353 a 13.922549,13.922549 0 0 0 -2.01125,-3.20069 c -0.57189,-0.68003 -1.30719,-1.33363 -2.141,-1.25193 -1.40331,0.13457 -2.40293,2.29239 -3.74616,1.83584 -0.4085,-0.13697 -1.00683,-2.73453 -1.23751,-3.21271 -0.54787,-1.12938 -0.85304,-0.80258 -1.85266,-0.33161 -1.8959,0.89629 -3.948,1.68205 -6.02893,1.27836 a 3.1934876,3.1934876 0 0 1 -1.89111,-0.99481 6.6008355,6.6008355 0 0 0 -0.63917,-0.78576 1.2807591,1.2807591 0 0 0 -0.39168,-0.22347 12.062685,12.062685 0 0 1 23.68563,3.23193 z"
     id="path82"
     inkscape:connector-curvature="0"
     style="opacity:0.1;stroke-width:1" />
  <path
     d="m 151.65832,23.998014 c 1.34804,0.45415 2.34525,-1.70127 3.74856,-1.83824 0.83141,-0.0793 1.56671,0.5743 2.1386,1.25433 a 13.790388,13.790388 0 0 1 2.01125,3.2007 c 0.25471,0.55747 0.48059,1.151 0.88908,1.58352 a 4.0849728,4.0849728 0 0 0 1.33843,0.83382 l 1.82623,0.8218 c 1.05969,0.48058 2.40292,0.89629 3.22472,0 0.6512,-0.72088 0.56229,-1.92234 0.26192,-2.88351 -0.30036,-0.96117 -0.77374,-1.92234 -0.74971,-2.93638 0.0264,-1.10534 0.62716,-2.08574 0.8242,-3.16946 0.33161,-1.81661 -0.52384,-3.66446 -1.65561,-5.01971 -1.13178,-1.35525 -2.5423,-2.3813 -3.70531,-3.7029 -0.66081,-0.75212 -1.23751,-1.59074 -1.92234,-2.3260398 a 9.6813856,9.6813856 0 0 0 -2.99405,-2.2227 5.6492771,5.6492771 0 0 0 -2.48462,-0.61515 c -1.05729,0.0168 -2.06892,0.44214 -3.07094,0.8242 -1.50904,0.57671 -3.06373,1.0669 -4.65927,1.11977 -1.92234,0.0625 -4.00808,-0.48059 -5.69734,0.56468 -1.20146,0.7425098 -1.92234,2.1410098 -2.59276,3.4722298 l -1.44175,2.84506 c -0.54547,1.07892 -1.09814,2.16264 -1.87188,3.05893 -0.77374,0.89629 -1.807,1.5619 -2.91475,1.58353 a 4.0849728,4.0849728 0 0 0 4.32527,0.40369 c 0.5767,-0.29797 1.09333,-0.7329 1.68204,-0.99241 0.58872,-0.25952 1.3144,-0.31959 1.81902,0.11053 a 6.0337452,6.0337452 0 0 1 0.63918,0.78576 3.1838759,3.1838759 0 0 0 1.8911,0.99241 c 2.08093,0.39648 4.13543,-0.38207 6.03134,-1.27596 0.99722,-0.48058 1.30479,-0.79777 1.85025,0.33161 0.25231,0.46136 0.85064,3.05892 1.25914,3.19589 z"
     id="path84"
     inkscape:connector-curvature="0"
     style="fill:#63345e;stroke-width:1" />
  <path
     d="m 169.16603,92.543854 c 0,0 -0.48059,1.13418 -1.17984,2.80902 -0.56468,0.27874 -1.16301,0.58632 -1.73731,0.88428 -1.53787,0.80017 -2.90274,1.53307 -2.90274,1.53307 l -6.91321,0.37726 a 31.771477,31.771477 0 0 0 -0.50942,-3.66687 z"
     id="path86"
     inkscape:connector-curvature="0"
     style="opacity:0.1;stroke-width:1" />
  <path
     d="m 180.55349,59.224894 -1.68205,5.90399 c 0,0 -1.68204,3.54191 -0.84102,6.91802 0.84102,3.37611 -0.50702,8.51837 -0.50702,8.51837 l -2.62159,6.74742 c 0,0 -3.2896,6.91561 -3.88072,6.91561 -0.32199,0 -2.42215,1.05249 -4.2676,2.00885 -1.53787,0.80017 -2.90033,1.53307 -2.90033,1.53307 l -7.76145,0.42291 c -2.55911,-6.72819 -0.79296,-7.90803 0.48059,-8.01856 a 2.7177084,2.7177084 0 0 1 0.96117,0.0913 l 1.68205,-10.62814 v -6.57921 c 0,0 0.50701,-6.3245 1.60275,-8.35016 a 19.093644,19.093644 0 0 0 1.60035,-4.21233 c 0,0 -1.01404,-1.94156 -1.26635,-3.2055 a 23.008009,23.008009 0 0 1 -0.33641,-2.69849 c 0,0 -1.18223,0.16821 -1.51864,-9.4483 -0.33641,-9.61651 6.83151,-12.22848 6.83151,-12.22848 8.60488,-2.61439 13.58134,4.63764 17.03674,9.86881 3.45541,5.23117 -2.61198,16.44081 -2.61198,16.44081 z"
     id="path88"
     inkscape:connector-curvature="0"
     style="opacity:0.1;stroke-width:1" />
  <path
     d="m 179.53946,58.720284 -1.68205,5.90158 c 0,0 -1.68205,3.54432 -0.84343,6.91802 0.83862,3.37371 -0.50461,8.51837 -0.50461,8.51837 l -2.61438,6.74742 c 0,0 -3.29441,6.91562 -3.87832,6.91562 -0.322,0 -2.42215,1.05248 -4.2676,2.00884 -1.53787,0.80018 -2.90273,1.53547 -2.90273,1.53547 l -3.46022,0.18743 -0.75692,-4.49107 c 0,0 -0.44454,-5.84872 -1.24471,-8.6265 l 0.8242,-5.20233 v -6.57921 c 0,0 0.50702,-6.3269 1.60275,-8.35017 a 19.0576,19.0576 0 0 0 1.60035,-4.21953 c 0,0 -1.01163,-1.93916 -1.26394,-3.2055 a 22.366428,22.366428 0 0 1 -0.33641,-2.69609 c 0,0 -1.18224,0.1658 -1.51865,-9.4507 -0.33641,-9.61651 6.83152,-12.22849 6.83152,-12.22849 8.60247,-2.61438 13.58133,4.63765 17.03674,9.86882 3.45541,5.23116 -2.62159,16.44802 -2.62159,16.44802 z"
     id="path90"
     inkscape:connector-curvature="0"
     style="opacity:0.1;stroke-width:1" />
  <path
     d="m 180.04648,58.720284 -1.68205,5.90158 c 0,0 -1.68205,3.54432 -0.84343,6.91802 0.83862,3.37371 -0.50702,8.51837 -0.50702,8.51837 l -2.61198,6.74742 c 0,0 -3.2896,6.91562 -3.88312,6.91562 -0.31959,0 -2.42215,1.05248 -4.2652,2.00884 -1.53787,0.80018 -2.90273,1.53547 -2.90273,1.53547 l -7.76145,0.42051 c -2.55671,-6.72819 -0.79056,-7.90562 0.46857,-8.01856 a 2.7177084,2.7177084 0 0 1 0.96117,0.0913 l 1.68205,-10.62573 v -6.57921 c 0,0 0.50461,-6.3269 1.60035,-8.35017 a 19.136896,19.136896 0 0 0 1.60275,-4.21953 c 0,0 -1.01163,-1.93916 -1.26634,-3.2055 a 22.935921,22.935921 0 0 1 -0.33641,-2.69609 c 0,0 -1.17984,0.1658 -1.51625,-9.4507 -0.33641,-9.61651 6.83152,-12.22849 6.83152,-12.22849 8.60247,-2.61438 13.57893,4.63765 17.03674,9.86882 3.45781,5.23116 -2.60717,16.44802 -2.60717,16.44802 z"
     id="path92"
     inkscape:connector-curvature="0"
     style="fill:#4c4981;stroke-width:1" />
  <path
     d="m 166.50119,95.477834 c -1.53788,0.80017 -2.90274,1.53306 -2.90274,1.53306 l -7.75904,0.42292 c -2.55912,-6.72819 -0.79297,-7.90803 0.46616,-8.01856 1.85747,1.34083 4.27241,3.18387 4.42619,3.80142 0.15379,0.61755 3.28961,1.58113 5.76943,2.26116 z"
     id="path94"
     inkscape:connector-curvature="0"
     style="opacity:0.1;stroke-width:1" />
  <path
     d="m 166.24888,95.730134 c -1.53787,0.80018 -2.90274,1.53547 -2.90274,1.53547 l -7.76144,0.42051 c -2.55672,-6.72819 -0.79057,-7.90562 0.46857,-8.01856 1.85746,1.34324 4.2724,3.18388 4.42619,3.80143 0.15378,0.61755 3.2896,1.58112 5.76942,2.26115 z"
     id="path96"
     inkscape:connector-curvature="0"
     style="fill:#4c4981;stroke-width:1" />
  <g
     id="g102"
     style="opacity:0.1;stroke-width:4.16159439"
     transform="matrix(0.24029252,0,0,0.24029252,-0.00471418,-33.023406)">
    <path
       d="m 715.52,348.79 c -3.38,3.75 -9,2 -13.42,0 l -7.6,-3.42 a 16.68,16.68 0 0 1 -5.57,-3.47 c -1.69,-1.8 -2.65,-4.27 -3.7,-6.59 A 58.07,58.07 0 0 0 676.86,322 c -2.38,-2.83 -5.45,-5.55 -8.91,-5.22 -5.84,0.57 -10,9.54 -15.6,7.65 -1.69,-0.57 -4.18,-11.38 -5.14,-13.37 -2.28,-4.7 -3.55,-3.34 -7.71,-1.38 -7.88,3.72 -16.43,7 -25.1,5.31 a 13.22,13.22 0 0 1 -7.86,-4.13 26,26 0 0 0 -2.67,-3.27 c -2.1,-1.79 -5.1,-1.55 -7.56,-0.46 -2.46,1.09 -4.6,2.89 -7,4.13 a 16.78,16.78 0 0 1 -10.88,1.5 15.19,15.19 0 0 1 -8.88,3.49 17,17 0 0 0 18,1.68 c 2.4,-1.24 4.55,-3.05 7,-4.13 2.45,-1.08 5.47,-1.33 7.57,0.46 a 25.11,25.11 0 0 1 2.66,3.27 13.25,13.25 0 0 0 7.87,4.13 c 8.66,1.65 17.21,-1.59 25.1,-5.31 4.15,-2 5.43,-3.32 7.7,1.38 1,2 3.45,12.8 5.15,13.37 5.61,1.89 9.76,-7.08 15.6,-7.65 3.46,-0.33 6.52,2.39 8.9,5.22 a 57.39,57.39 0 0 1 8.37,13.33 c 1.06,2.32 2,4.79 3.7,6.59 a 17,17 0 0 0 5.57,3.47 l 7.6,3.42 c 4.41,2 10,3.73 13.42,0 a 9.56,9.56 0 0 0 2,-7 c -0.07,0.1 -0.15,0.21 -0.24,0.31 z"
       transform="translate(-19.44,-93.81)"
       id="path98"
       inkscape:connector-curvature="0"
       style="stroke-width:4.16159439" />
    <path
       d="m 715.35,316.72 a 29.28,29.28 0 0 0 -1.77,6.71 35.5,35.5 0 0 0 1.58,-5.43 c 0.08,-0.42 0.14,-0.85 0.19,-1.28 z"
       transform="translate(-19.44,-93.81)"
       id="path100"
       inkscape:connector-curvature="0"
       style="stroke-width:4.16159439" />
  </g>
  <path
     d="m 119.82436,124.76227 c 0,0 -1.51864,4.04893 -4.47184,4.13304 z"
     id="path104"
     inkscape:connector-curvature="0"
     style="opacity:0.1;stroke-width:1" />
  <path
     d="m 121.35983,116.59473 a 25.92516,25.92516 0 0 0 -1.92234,-3.36409 l -0.31718,-0.46377 h 0.21145 a 1.0332578,1.0332578 0 0 0 0.7329,-0.24029 v 0 c 1.86947,-1.5643 -1.95839,-10.57287 -4.03452,-10.72185 -1.42733,-0.11054 -4.21953,-0.21627 -6.10343,-0.27874 l -0.51422,-0.0168 c -0.0192,-0.10093 -0.0409,-0.19944 -0.0649,-0.30277 0,0 -2.37169,-0.59352 -3.55633,-1.867066 -1.18464,-1.27355 -2.62399,-2.79941 -2.62399,-2.79941 0,0 -1.17023,-0.48059 -1.73492,-1.13178 a 1.0332578,1.0332578 0 0 1 -0.29556,-0.65119 c 0,-0.817 -2.849864,-3.26077 -3.563534,-3.8591 l -0.1586,-0.13456 c 0,0 -0.25471,-1.27596 -1.18464,-1.52826 -0.38447,-0.10573 -0.84583,-0.70646 -1.24712,-1.37448 a 19.264251,19.264251 0 0 1 -1.03806,-2.02326 c 0,0 -1.16782,-1.36486 -2.09775,-2.69849 -0.25471,-0.36524 -0.49501,-0.72087 -0.68244,-1.06689 a 2.8835102,2.8835102 0 0 1 -0.43492,-1.07892 c -0.0841,-1.18704 -1.44176,-1.27355 -1.44176,-1.27355 0,0 -1.18224,-2.37889 -1.18224,-2.97482 0,-0.59592 -1.77816,-1.78297 -1.77816,-1.78297 l -2.7922,-3.14303 c 0,0 0.76172,-2.20828 -1.94637,-3.90715 -2.7081,-1.69887 -3.04691,-6.54317 -3.04691,-6.54317 l -2.3789,-5.16148 -0.24029,-0.52864 a 1.4537697,1.4537697 0 0 0 0.52384,-0.50222 1.5402751,1.5402751 0 0 0 0.15138,-1.28316 5.7141561,5.7141561 0 0 0 -0.86024,-1.79258 c -0.024,-0.036 -0.0481,-0.0673 -0.0697,-0.0961 -0.14898,-0.20425 -0.25231,-0.31959 -0.25231,-0.31959 a 1.0524812,1.0524812 0 0 0 0.26432,-0.24029 c 0.0192,-0.0264 0.0385,-0.0505 0.0577,-0.0817 0.17541,-0.26672 0.30276,-0.72088 0,-1.34323 a 2.5759358,2.5759358 0 0 0 -0.15379,-0.28355 c -0.84583,-1.35765 -1.01404,-4.58718 -1.01404,-4.58718 l -2.03287,-5.69253 c 0,0 -0.26673,-3.4458 -2.12659,-5.62285 a 4.9500259,4.9500259 0 0 0 -1.76375,-1.34323 3.9696324,3.9696324 0 0 0 -1.63158,-1.25914 l -0.0288,-0.012 c -0.0336,-0.20905 -0.0625,-0.42051 -0.0889,-0.62716 -0.0264,-0.20666 -0.0408,-0.34362 -0.0577,-0.51663 a 13.192059,13.192059 0 0 0 1.807,0.12255 12.975796,12.975796 0 0 0 1.76375,-0.11775 13.297788,13.297788 0 0 0 5.32729,-1.92234 13.530872,13.530872 0 0 0 5.98088,-8.27087 v 0 a 13.651018,13.651018 0 0 0 0.37966,-3.20069 13.357861,13.357861 0 0 0 -0.27874,-2.73934 c 0,-0.0577 -0.024,-0.11534 -0.036,-0.17301 -0.0697,-0.3316 -0.15619,-0.6584 -0.2523,-0.98039 -0.0216,-0.0697 -0.0457,-0.13937 -0.0649,-0.20906 a 6.6104472,6.6104472 0 0 0 1.92234,0.22107 1.1413895,1.1413895 0 0 0 0.63677,-0.17781 1.3288176,1.3288176 0 0 0 0.36765,-0.56469 c 0.11534,-0.27874 0.22828,-0.56709 0.32199,-0.86025 a 0.66320736,0.66320736 0 0 0 0.0192,-0.0649 5.7021415,5.7021415 0 0 0 0.19704,-0.83621 3.8446803,3.8446803 0 0 0 0.0433,-0.7016598 c 0,-0.12255 0,-0.24029 -0.0168,-0.36524 a 2.537489,2.537489 0 0 0 -0.0889,-0.48059 c 0,0.0384 0,0.0793 -0.0144,0.12015 a 2.3740901,2.3740901 0 0 0 -0.12975,-0.33641 c -0.68003,-1.41052 -2.64322,-1.96319 -3.04691,-3.47463 -0.19464,-0.72088 -0.0168,-1.6388 -0.59112,-2.12419 a 2.4870276,2.4870276 0 0 0 -0.87947,-0.36765 c -1.25673,-0.40128 -2.23953,-1.36486 -3.32806,-2.11216999 a 6.7281906,6.7281906 0 0 0 -1.151,-0.62956 c -0.84102,-0.34843 -1.75173,-0.48059 -2.55911,-0.0961 -0.22588,0.10573 -0.43493,0.24029 -0.66081,0.36044 a 3.8446803,3.8446803 0 0 1 -2.10736,0.25951 c -0.48059,-0.0456 -0.94675,-0.13456 -1.40812,-0.20184 -1.17743,-0.18022 -2.55671,-0.16821 -3.34246,0.72088 -0.29556,0.33640999 -0.48059,0.77853999 -0.83382,1.05007999 -0.65119,0.50221 -1.57151,0.25951 -2.37649,0.0985 -0.80498,-0.161 -1.85266,-0.0937 -2.16264,0.66561 a 6.6344765,6.6344765 0 0 0 -0.1682,0.72087 c -0.18503,0.6536 -0.80017,1.10054 -1.44176,1.3144 -0.64158,0.21386 -1.32641,0.2403 -1.98962,0.36525 a 7.4490681,7.4490681 0 0 0 -2.99164,1.26394 2.9195541,2.9195541 0 0 0 -0.96117,1.0741 c 0,-0.0312 -0.0192,-0.0601 -0.0312,-0.0889 a 1.2423123,1.2423123 0 0 0 -0.0937,0.57429 1.0837193,1.0837193 0 0 0 0.0216,0.33882 1.5210517,1.5210517 0 0 0 0.0769,0.24029 3.2727841,3.2727841 0 0 1 0.18262,0.51423 1.1077485,1.1077485 0 0 1 0.0264,0.21386 1.5715131,1.5715131 0 0 1 -0.24029,0.8193898 c -0.0481,0.0841 -0.10092,0.16581 -0.15619,0.2403 a 9.4002434,9.4002434 0 0 1 -0.63678,0.76893 3.1238028,3.1238028 0 0 0 -0.50461,0.77855 l -0.0216,-0.0168 -0.0264,-0.0384 a 1.5811248,1.5811248 0 0 0 -0.11774,0.66802 1.0452725,1.0452725 0 0 0 0.0865,0.50942 0.9059028,0.9059028 0 0 0 0.14418,0.21866 c 0.20665,0.24029 0.51663,0.35083 0.76894,0.53345 0.69925,0.51182 0.85303,1.4802 0.89388,2.34766 a 19.944279,19.944279 0 0 1 -0.19704,3.84468 c 0,0.012 0,0.024 0,0.036 -0.0745,0.49981 -0.27633,1.42734 -0.33881,2.35006 v 0 0.10814 a 0.09131116,0.09131116 0 0 0 0,-0.024 c 0,0.11053 0,0.22347 0,0.3316 0,0.7353 0.0985,1.42974 0.48059,1.84545 v 0 a 1.1341807,1.1341807 0 0 0 0.37726,0.27874 c 0.24029,0.10813 0.57189,0.0264 0.94435,-0.14658 q -0.22348,0.56228 -0.46377,1.11255 v 0 c -0.0264,0.0649 -0.0553,0.12976 -0.0817,0.19224 q -0.28354,0.64879 -0.58631,1.26634 a 6.6152531,6.6152531 0 0 0 -3.51788,0.37485 c 0,0 -0.50942,3.90716 -2.20108,4.32527 -1.69166,0.41811 -7.86478,5.60843 -7.86478,5.60843 l -8.91966,8.9533 -0.22107,0.22107 c 0,0 -0.22347,0.31238 -0.58871,0.84583 -1.36486,1.9728 -4.70733,6.92282 -5.84151,9.6117 -0.42292,0.99961 -0.86025,2.59035 -1.26635,4.36611 -0.96117,4.25318 -1.75173,9.56605 -1.68204,10.41188 v 0 c 0.0721,1.02605 -0.35804,10.53682 -0.20666,14.26616 a 8.061814,8.061814 0 0 0 0.12015,1.28076 11.012606,11.012606 0 0 1 0.11534,1.84545 c 0.0144,1.22549 -0.0192,2.88351 -0.0721,4.67849 -0.14898,4.8467 -0.46376,10.551246 -0.46376,10.551246 0,0 1.44175,4.16667 2.20108,5.421 0.13937,0.24029 0.25711,0.36765 0.33641,0.35563 0.50702,-0.0841 1.94637,3.48424 1.94637,3.48424 0,0 0.56228,-0.0216 1.53787,-0.0865 l 0.28835,-0.0216 c 0.0745,0.1658 0.15139,0.3292 0.24029,0.495 0.0889,0.16581 0.1634,0.33641 0.2403,0.50702 0.0769,0.17061 0.15619,0.3244 0.24029,0.48059 0.98039,1.9728 2.08093,3.85909 2.78499,4.05373 1.52345,0.42532 5.6709,2.5495 6.00731,3.48424 0.33641,0.93474 6.05778,1.89831 8.51116,1.89831 h 1.07651 0.12976 v 0.28595 c 0,0.0505 0,0.10092 0,0.14898 a 2.4389691,2.4389691 0 0 0 2.3837,2.23472 l 1.85266,0.0288 h 0.0793 l -0.0553,0.41811 -0.012,0.0889 -0.0553,0.4181 -0.50702,3.84468 h 0.17301 l 5.07257,0.0817 h 0.53345 v -0.16099 c 0.2403,-0.0745 0.49501,-0.14418 0.74251,-0.21626 l 0.28354,-0.0793 c 4.56556,-1.3096 9.13112,-2.55431 13.73993,-2.90994 a 30.757443,30.757443 0 0 1 4.61121,-0.0336 c 0.2403,0.0168 0.48059,0.0384 0.72088,0.0601 4.95483,0.48058 9.76789,2.2227 14.57855,3.69329 h 0.58391 l 1.52586,0.0144 h 0.24029 v 0 l 4.88034,0.0457 h 0.4926 l 0.10092,-3.97684 v -0.0937 -0.4157 l 1.60516,0.0288 a 2.4269545,2.4269545 0 0 0 1.874284,-0.84102 v 0 a 2.4029252,2.4029252 0 0 0 0.54066,-1.08612 2.4317603,2.4317603 0 0 0 0.0553,-0.51663 v -0.35804 c 0.44695,0.70646 0.87707,1.92234 -0.1658,3.14783 v 0 a 4.9332054,4.9332054 0 0 1 -1.01403,0.87707 c -1.545084,1.03566 -2.222714,1.75414 -2.499054,2.22511 v 0 c -0.31238,0.53105 -0.12254,0.74731 -0.12254,0.74731 h 14.064324 c 3.41696,-1.47059 6.72819,-3.34728 10.13794,-4.81787 a 0.13216089,0.13216089 0 0 0 0.036,-0.0192 v 0 l 0.24029,-0.0985 c 0.79778,-1.8046 1.25673,-7.46349 -1.52105,-10.82518 z m -56.994984,-42.719196 0.13937,-0.35563 0.26672,-0.67763 c 0.0288,0.0408 0.0601,0.0865 0.0865,0.12976 2.64322,3.88793 5.05816,7.42984 5.05816,7.42984 l 0.44454,0.49981 c -0.24029,0.0288 -0.49741,0.0577 -0.75452,0.0817 -0.90831,0.0961 -1.84545,0.18262 -2.22751,0.18262 -0.84823,0 -3.21512,-0.59352 -3.21512,-0.59352 l -1.2375,-0.56469 a 6.9372451,6.9372451 0 0 0 -0.22828,-1.54508 v 0 l -0.0577,-0.18502 1.46338,-3.72694 z m 22.89507,23.34682 c 2.08093,1.4802 4.66168,3.162246 7.24002,4.777006 l -1.17744,0.0264 -6.25962,0.14658 c -2.33324,-0.51904 -5.76702,-1.3072 -6.6561,-1.6364 -0.43012,-0.16099 -2.30441,-0.672816 -4.66888,-1.297576 -1.64841,-0.43493 -3.53471,-0.92753 -5.32729,-1.38889 l -3.64524,-0.93714 a 0.67041613,0.67041613 0 0 0 -0.14898,-0.28595 7.0213474,7.0213474 0 0 1 -1.00202,-1.81661 11.375448,11.375448 0 0 1 -0.52143,-1.75173 c 0,0 -2.16264,-0.24029 -2.53028,-0.96117 -0.11294,-0.20665 -0.0649,-0.45415 0.24029,-0.74731 a 2.0953508,2.0953508 0 0 0 0.52384,-0.72088 2.5951592,2.5951592 0 0 0 0.12735,-0.39408 3.2872017,3.2872017 0 0 0 0,-1.26394 v 0 a 4.2363571,4.2363571 0 0 0 -0.22347,-0.79536 14.768378,14.768378 0 0 1 2.7105,0.9035 c 1.02124,0.48058 2.82824,0.59832 4.47184,0.59592 1.12938,0 2.18666,-0.0625 2.84747,-0.11053 h 0.11534 c 0.37966,-0.0312 0.60554,-0.0553 0.60554,-0.0553 0,0 0.72087,0.12735 1.75894,0.25711 0.66321,0.0769 1.46098,0.1586 2.29239,0.20665 0.31718,0.0216 0.63918,0.036 0.96117,0.0433 l 0.55507,0.54786 0.15139,0.14658 c 1.61957,1.57152 3.2848,3.10698 4.86833,4.4358 0.93473,0.76413 1.84064,1.4754 2.69127,2.07613 z"
     id="path106"
     inkscape:connector-curvature="0"
     style="fill:url(#6a61e424-f11c-4682-b27d-5ab95be8b857);stroke-width:1" />
  <polygon
     points="440.76,563.27 472.35,580.82 477.27,621.89 394.08,598.02 350.2,565.38 "
     id="polygon108"
     style="fill:#aea4b2;stroke-width:4.16159439"
     transform="matrix(0.24029252,0,0,0.24029252,-0.00471418,-33.023406)" />
  <polygon
     points="440.76,563.27 472.35,580.82 477.27,621.89 394.08,598.02 350.2,565.38 "
     id="polygon110"
     style="opacity:0.05;stroke-width:4.16159439"
     transform="matrix(0.24029252,0,0,0.24029252,-0.00471418,-33.023406)" />
  <path
     d="m 71.496726,87.649104 c 0.25231,0 2.27798,2.53028 2.27798,2.53028 0,0 7.67494,1.35044 9.53,-0.33641 1.85505,-1.68686 -3.63803,-7.33854 -3.63803,-7.33854 l -4.89236,0.25471 -3.96482,2.35968 z"
     id="path112"
     inkscape:connector-curvature="0"
     style="fill:#ffc4d0;stroke-width:1" />
  <path
     d="m 60.275066,79.637744 3.71252,1.68205 c 0,0 2.36208,0.59112 3.2055,0.59112 0.84343,0 4.38534,-0.42291 4.38534,-0.42291 l 3.2055,1.26634 c 0,0 -2.86909,5.39697 -1.01163,7.42023 0,0 -5.81988,0.59112 -8.01375,-0.42051 -2.19387,-1.01163 -5.14467,-1.35045 -5.14467,-1.35045 z"
     id="path114"
     inkscape:connector-curvature="0"
     style="fill:#575989;stroke-width:1" />
  <path
     d="m 60.782086,79.719444 3.71012,1.68205 c 0,0 2.36207,0.59112 3.2055,0.59112 0.84342,0 4.38774,-0.42292 4.38774,-0.42292 l 3.2031,1.27355 c 0,0 -2.86669,5.39697 -1.01163,7.42264 0,0 -5.81989,0.58872 -8.01136,-0.42291 -2.19146,-1.01164 -5.14706,-1.35045 -5.14706,-1.35045 z"
     id="path116"
     inkscape:connector-curvature="0"
     style="opacity:0.05;stroke-width:1" />
  <path
     d="m 68.793436,39.741984 c 0,0 -24.44976,-5.56758 -20.07163,-6.32691 2.797,-0.48058 5.35612,-6.80748 6.83872,-11.32018 0.84583,-2.56152 1.34083,-4.53672 1.34083,-4.53672 0,0 14.08595,6.57921 10.88045,8.77308 -1.2303,0.84343 -1.36726,3.01327 -1.0669,5.36813 0.47818,3.78461 2.07853,8.0426 2.07853,8.0426 z"
     id="path118"
     inkscape:connector-curvature="0"
     style="fill:#ffc4d0;stroke-width:1" />
  <path
     d="m 92.664096,126.95615 -0.0168,0.42772 v 0 l -0.0481,1.09092 -0.0216,0.50462 -0.15138,3.60439 v 0.0865 0.20425 0.0841 0 h -0.77855 -0.0216 v 0 h -0.69445 v -0.012 l -0.25231,0.012 v -0.27874 l -0.334,-0.10332 c -4.80585,-1.47059 -9.62372,-3.21512 -14.57855,-3.6933 -0.24029,-0.0216 -0.48058,-0.0433 -0.72088,-0.0601 a 30.757443,30.757443 0 0 0 -4.61121,0.0336 c -4.60401,0.35563 -9.18398,1.60035 -13.73993,2.90994 l -0.28354,0.0793 c -0.24029,0.0721 -0.495,0.14177 -0.74251,0.21626 l 0.0601,-3.68849 v -0.50702 -0.6584 h 1.34804 0.24269 l 13.08874,-0.0913 5.32728,-0.0384 z"
     id="path120"
     inkscape:connector-curvature="0"
     style="fill:#5f546f;stroke-width:1" />
  <path
     d="m 57.492476,126.02621 -0.1706,1.17744 v 0 l -0.0985,0.69444 -0.0697,0.49981 v 0 l -0.48058,3.3641 -0.28355,0.0793 c -0.24029,0.0721 -0.495,0.14178 -0.7425,0.21627 v 0.16099 h -0.53345 l -1.04047,0.29796 h -4.08497 l 0.0505,-0.37966 0.50702,-3.84468 v 0 l 0.0673,-0.50221 0.13456,-1.00202 6.4879,-0.72088 z"
     id="path122"
     inkscape:connector-curvature="0"
     style="opacity:0.1;stroke-width:1" />
  <path
     d="m 57.240176,126.02621 v 0.0288 l -0.1658,1.151 -0.0985,0.68724 -0.0697,0.50701 -0.51903,3.46262 c -0.24029,0.0721 -0.495,0.14177 -0.74251,0.21626 v 0.161 h -0.53344 l -1.04047,0.29796 -0.24029,0.0673 v 0 l -4.09939,-0.0673 0.55988,-4.23155 0.0601,-0.52864 0.0529,-0.42052 v 0 l 0.0745,-0.5791 z"
     id="path124"
     inkscape:connector-curvature="0"
     style="fill:#5f546f;stroke-width:1" />
  <polygon
     points="384.62,690.48 380.71,690.64 378.37,690.73 377.31,690.77 377.27,689.62 377.26,689.2 376.75,674.12 376.75,674.1 376.68,671.99 376.52,667.17 377.58,667.22 384.53,667.54 385.58,667.6 406.36,668.57 406.29,672.48 406.26,674.58 406.26,674.6 406.01,689.44 406.01,689.63 "
     id="polygon126"
     style="opacity:0.1;stroke-width:4.16159439"
     transform="matrix(0.24029252,0,0,0.24029252,-0.00471418,-33.023406)" />
  <polygon
     points="381.27,690.81 381.25,690.81 378.37,690.77 378.37,690.73 378.33,689.93 378.31,689.21 377.8,674.12 377.74,672.01 377.58,667.22 377.58,667.17 385.58,667.54 407.41,668.57 407.35,672.5 407.31,674.6 406.94,689.45 406.89,691.04 384.6,690.83 "
     id="polygon128"
     style="fill:#5f546f;stroke-width:4.16159439"
     transform="matrix(0.24029252,0,0,0.24029252,-0.00471418,-33.023406)" />
  <path
     d="m 57.240176,126.02621 v 0.0288 l -0.1658,1.151 -0.0985,0.68724 -0.0697,0.50701 -0.51903,3.46262 c -0.24029,0.0721 -0.495,0.14177 -0.74251,0.21626 v 0.161 h -0.53344 l -1.04047,0.29796 -0.24029,0.0673 v 0 l -4.09939,-0.0673 0.55988,-4.23155 0.0601,-0.52864 0.0529,-0.42052 v 0 l 0.0745,-0.5791 z"
     id="path130"
     inkscape:connector-curvature="0"
     style="opacity:0.1;fill:#ffffff;stroke-width:1" />
  <polygon
     points="381.27,690.81 381.25,690.81 378.37,690.77 378.37,690.73 378.33,689.93 378.31,689.21 377.8,674.12 377.74,672.01 377.58,667.22 377.58,667.17 385.58,667.54 407.41,668.57 407.35,672.5 407.31,674.6 406.94,689.45 406.89,691.04 384.6,690.83 "
     id="polygon132"
     style="opacity:0.1;fill:#ffffff;stroke-width:4.16159439"
     transform="matrix(0.24029252,0,0,0.24029252,-0.00471418,-33.023406)" />
  <path
     d="m 67.781806,26.331254 c -1.2303,0.84343 -1.36726,3.01327 -1.0669,5.36813 a 13.420337,13.420337 0 0 1 -11.15438,-9.6117 c 0.84583,-2.56151 1.34083,-4.53672 1.34083,-4.53672 0,0 14.08595,6.58642 10.88045,8.78029 z"
     id="path134"
     inkscape:connector-curvature="0"
     style="opacity:0.1;stroke-width:1" />
  <path
     d="m 81.867756,17.896984 a 13.396308,13.396308 0 1 1 -0.56469,-3.8639 13.410726,13.410726 0 0 1 0.56469,3.8639 z"
     id="path136"
     inkscape:connector-curvature="0"
     style="fill:#ffc4d0;stroke-width:1" />
  <path
     d="m 81.303066,14.033084 c -1.0717,-0.26673 -2.1362,-0.63918 -3.23434,-0.64879 a 1.0524812,1.0524812 0 0 0 -0.72088,0.18022 c -0.31478,0.26672 -0.26912,0.74971 -0.30517,1.16061 a 2.3692842,2.3692842 0 0 1 -1.20146,1.85025 c -0.86025,0.48059 -1.98241,0.39408 -2.72972,1.02845 -0.94916,0.80979 -0.79056,2.30201 -0.46377,3.50587 a 4.5655579,4.5655579 0 0 1 0.2403,1.46098 2.1097683,2.1097683 0 0 1 -3.76779,1.18224 c -0.67763,-0.86265 -0.58631,-2.07372 -0.76653,-3.15264 a 5.9328223,5.9328223 0 0 0 -1.66283,-3.22472 3.2030993,3.2030993 0 0 0 -1.46098,-0.89629 1.6820476,1.6820476 0 0 0 -1.60755,0.4157 c -0.53586,0.58872 -0.44214,1.4778 -0.51183,2.27077 a 5.0701722,5.0701722 0 0 1 -2.09054,3.65244 c -1.12697,0.80018 -2.52548,1.09574 -3.82306,1.57392 a 2.3308374,2.3308374 0 0 0 -0.37005,0.18743 13.413128,13.413128 0 1 1 24.4762,-10.54644 z"
     id="path138"
     inkscape:connector-curvature="0"
     style="opacity:0.1;stroke-width:1" />
  <path
     d="m 56.942206,24.139784 c 1.29999,-0.48058 2.69609,-0.77374 3.82546,-1.57391 a 5.0821868,5.0821868 0 0 0 2.09055,-3.65485 c 0.0673,-0.79057 -0.0192,-1.68205 0.51903,-2.27077 a 1.6820476,1.6820476 0 0 1 1.60515,-0.4133 3.17907,3.17907 0 0 1 1.46819,0.89629 5.9496428,5.9496428 0 0 1 1.66763,3.22232 c 0.18022,1.08132 0.0889,2.29239 0.76653,3.15504 a 2.1121713,2.1121713 0 0 0 3.76779,-1.18464 4.6208252,4.6208252 0 0 0 -0.24029,-1.45857 c -0.3268,-1.20147 -0.48059,-2.69609 0.46376,-3.50587 0.74491,-0.63437 1.86948,-0.55748 2.72972,-1.02845 a 2.3812989,2.3812989 0 0 0 1.20147,-1.85266 c 0.036,-0.4109 -0.012,-0.89389 0.30277,-1.15821 a 1.0741076,1.0741076 0 0 1 0.72087,-0.18262 c 1.81421,0.0168 3.53471,1.01884 5.34651,0.91792 a 1.1365836,1.1365836 0 0 0 0.63437,-0.18022 1.2975796,1.2975796 0 0 0 0.36765,-0.55989 c 0.48059,-1.11495 0.85785,-2.41494 0.33161,-3.5058598 -0.67763,-1.39851 -2.64322,-1.94637 -3.0373,-3.4482 -0.19224,-0.72088 -0.0168,-1.62678 -0.59112,-2.10737 a 2.4437749,2.4437749 0 0 0 -0.87467,-0.36764 c -1.25192,-0.39649 -2.23231,-1.35525 -3.31844,-2.09295 -1.08612,-0.7377 -2.50625,-1.27835999 -3.6957,-0.72088 -0.24029,0.10573 -0.43492,0.24029 -0.6608,0.35804 -1.0693,0.51663 -2.32843,0.24029 -3.50346,0.0553 -1.17504,-0.18502 -2.54951,-0.16339 -3.33286,0.72088 -0.29316,0.33401 -0.48059,0.77134 -0.83141,1.04287 -0.64879,0.49741 -1.56911,0.25711 -2.36929,0.0961 -0.80017,-0.161 -1.84545,-0.0913 -2.16263,0.66321 a 5.9328223,5.9328223 0 0 0 -0.17061,0.72087 c -0.18262,0.64639 -0.79537,1.09093 -1.44175,1.30239 -0.64639,0.21146 -1.32161,0.24029 -1.98482,0.36044 a 7.4634857,7.4634857 0 0 0 -2.97963,1.25673 c -0.62236,0.44454 -1.22789,1.13658 -1.06449,1.88389 0.0577,0.26192 0.20425,0.4949998 0.25951,0.7569198 0.1658,0.76894 -0.48058,1.44176 -0.99961,2.03288 -0.51904,0.59112 -0.96117,1.51384 -0.43974,2.10496 0.20665,0.24029 0.51663,0.34602 0.76894,0.52864 0.69444,0.50942 0.84823,1.47059 0.88908,2.33324 a 19.631899,19.631899 0 0 1 -0.19944,3.84468 c -0.16581,1.08853 -0.94195,4.21954 0.495,4.86593 0.83862,0.38206 2.81382,-1.54028 3.67647,-1.85266 z"
     id="path140"
     inkscape:connector-curvature="0"
     style="fill:#ae757a;stroke-width:1" />
  <path
     d="m 66.179056,83.095554 c 0,0 -3.1238,0.16821 -2.86669,1.35045 0.25711,1.18224 2.86669,-1.35045 2.86669,-1.35045 z"
     id="path142"
     inkscape:connector-curvature="0"
     style="fill:none;stroke-width:1" />
  <path
     d="m 122.6454,127.55688 v 0 a 0.13216089,0.13216089 0 0 1 -0.0361,0.0192 c -3.42176,1.47059 -6.72819,3.34728 -10.13794,4.81787 -0.30277,0.12975 -0.60553,0.25711 -0.91311,0.38206 a 26.785407,26.785407 0 0 1 -6.62727,1.84064 24.75013,24.75013 0 0 1 -7.064604,-0.17782 c 0.0769,-0.93233 0.25952,-2.28037 0.68964,-2.79219 v 0 c 0.37726,-0.44695 1.04528,-1.04528 2.208294,-1.82142 a 4.1882986,4.1882986 0 0 0 1.30479,-1.28076 v 0 a 2.3620755,2.3620755 0 0 0 0.11053,-2.27317 4.1522547,4.1522547 0 0 0 -0.24029,-0.43973 3.5803585,3.5803585 0 0 0 -0.50942,-0.63678 H 60.022706 c 0,0 -9.7823,-0.0673 -13.84565,-0.0841 h -1.33603 c -2.44617,0 -8.18436,-0.92753 -8.52077,-1.85506 -0.33641,-0.92753 -4.46944,-3.0373 -5.98809,-3.46021 -0.75932,-0.20906 -1.98482,-2.38611 -3.01567,-4.50549 -0.1658,-0.33641 -0.3244,-0.67041 -0.48059,-0.99721 -0.0769,-0.161 -0.15138,-0.31959 -0.22106,-0.48059 v -0.0168 c -0.30277,-0.6584 -0.56469,-1.25673 -0.76173,-1.71809 l -0.10092,-0.24029 c -0.0192,-0.0457 -0.0384,-0.0889 -0.0529,-0.12976 -0.0144,-0.0409 -0.0408,-0.0985 -0.0625,-0.14177 0,0 0,0 0,0 l -0.0553,-0.13456 c -0.0865,-0.20425 -0.13457,-0.322 -0.13457,-0.322 l 37.7019,-14.417546 c 0,0 1.20146,0.30517 2.98924,0.75933 0.14658,0.0384 0.29556,0.0769 0.45175,0.11293 l 3.82786,0.9804 c 1.807,0.46617 3.69329,0.96117 5.32728,1.38408 2.25635,0.595926 4.02731,1.076506 4.44301,1.235106 0.87226,0.32679 4.32527,1.11015 6.64169,1.62437 v 0 c 1.27355,0.28355 2.20829,0.48059 2.20829,0.48059 0,0 2.97962,0.58151 6.87477,1.37207 l 0.75692,0.15379 1.00923,0.20425 c 0.20184,0.0384 0.40609,0.0817 0.61034,0.12495 v 0 c 0.69204,0.13937 1.3961,0.28354 2.107364,0.43252 l 1.52826,0.31719 c 1.63399,0.33881 3.25356,0.68243 4.75299,1.01163 l 1.16302,0.25471 0.44934,0.0985 0.44454,0.0985 c 1.7253,0.38928 3.16466,0.7353 4.08498,0.99241 a 6.3317079,6.3317079 0 0 1 0.92753,0.34121 c 2.03287,0.92033 3.76057,2.84747 5.0173,4.62564 a 25.886713,25.886713 0 0 1 2.23232,3.79181 c 2.64322,3.16465 2.35967,8.38381 1.64841,10.46955 z"
     id="path144"
     inkscape:connector-curvature="0"
     style="fill:#aea4b2;stroke-width:1" />
  <path
     d="m 58.761226,106.6322 c 0,0 -1.60275,7.08623 -6.57921,9.61171 -4.97646,2.52547 6.57921,-9.61171 6.57921,-9.61171 z"
     id="path146"
     inkscape:connector-curvature="0"
     style="opacity:0.1;stroke-width:1" />
  <path
     d="m 69.384556,111.01274 c 0,0 -5.39697,3.1238 -4.63764,5.39937 z"
     id="path148"
     inkscape:connector-curvature="0"
     style="opacity:0.1;stroke-width:1" />
  <path
     d="m 118.05341,119.95402 c 0,0 -1.51865,6.41101 -4.80585,6.4879 z"
     id="path150"
     inkscape:connector-curvature="0"
     style="opacity:0.1;stroke-width:1" />
  <polygon
     points="209.32,671.32 210.15,665.06 238.23,661.9 237.53,666.81 385.66,665.77 385.58,667.55 407.41,668.57 407.32,674.6 385.3,674.25 377.8,674.12 236.82,671.78 231.84,671.7 "
     id="polygon152"
     style="opacity:0.1;stroke-width:4.16159439"
     transform="matrix(0.24029252,0,0,0.24029252,-0.00471418,-33.023406)" />
  <path
     d="m 99.476386,128.60215 -51.04774,-0.84823 a 2.4269545,2.4269545 0 0 1 -2.3837,-2.36688 l -0.0288,-1.13178 h 55.925684 v 1.92234 a 2.4269545,2.4269545 0 0 1 -2.465404,2.42455 z"
     id="path154"
     inkscape:connector-curvature="0"
     style="fill:#ccccd8;stroke-width:1" />
  <path
     d="m 63.060056,100.14431 c 0,0 -1.94156,1.51865 -2.86909,2.78258 -0.92753,1.26394 -5.9953,3.5323 -5.9953,3.5323 -6.42062,6.69455 -21.41487,8.41024 -26.88633,8.81874 -0.1658,-0.33641 -0.32439,-0.67042 -0.48058,-0.99721 -0.80498,-1.7229 -1.39851,-3.18148 -1.39851,-3.18148 l 37.7019,-14.417546 2.98684,0.75933 a 6.0842066,6.0842066 0 0 0 0.55507,0.84342 0.66320736,0.66320736 0 0 1 0.14898,0.28355 c 0.29316,1.13178 -3.76298,1.576316 -3.76298,1.576316 z"
     id="path156"
     inkscape:connector-curvature="0"
     style="opacity:0.1;stroke-width:1" />
  <path
     d="m 66.582746,97.549154 c 0.28114,1.13658 -3.775,1.57391 -3.775,1.57391 0,0 -1.94156,1.516246 -2.86909,2.782586 -0.92753,1.26634 -5.98328,3.54191 -5.98328,3.54191 -6.50953,6.78586 -21.83779,8.45349 -27.1098,8.83316 -1.1486,0.0841 -1.82142,0.10572 -1.82142,0.10572 0,0 -1.44176,-3.54191 -1.93916,-3.45781 -0.49741,0.0841 -2.53028,-5.73818 -2.53028,-5.73818 0,0 0.84342,-15.181676 0.42051,-16.955036 -0.42292,-1.77336 0.1682,-14.25415 0.0865,-15.43399 -0.0817,-1.17984 1.51865,-11.29375 2.9508,-14.67707 1.43214,-3.38332 6.4062,-10.36381 6.4062,-10.36381 l 9.1191,-9.1143 c 0,0 6.15629,-5.14706 7.84314,-5.56758 1.68686,-0.42051 2.19147,-4.30123 2.19147,-4.30123 4.04893,-1.68205 8.85718,1.85506 8.85718,1.85506 4.21714,-0.0841 3.79422,0.67522 3.79422,0.67522 l 2.44858,0.50702 0.0625,0.68002 3.04691,33.04743 -3.60439,9.13112 -1.72049,4.37092 a 6.8915895,6.8915895 0 0 1 -0.16821,4.46944 c -0.92753,2.36208 0.67282,5.14466 0.67282,5.14466 0,0 1.01163,2.11218 -0.33641,3.3641 -1.34804,1.25192 2.27798,1.68205 2.27798,1.68205 0,0 0.42291,2.19387 1.51864,3.54431 a 0.72087756,0.72087756 0 0 1 0.161,0.30037 z"
     id="path158"
     inkscape:connector-curvature="0"
     style="fill:#575989;stroke-width:1" />
  <path
     d="m 48.721806,87.903814 c 0,0 -1.68205,3.2055 1.34804,3.71011 3.03009,0.50462 10.88044,-0.33641 11.89207,-0.33641 1.01164,0 -13.24011,-3.3737 -13.24011,-3.3737 z"
     id="path160"
     inkscape:connector-curvature="0"
     style="opacity:0.1;stroke-width:1" />
  <path
     d="m 48.382986,77.191564 c 0.42292,0.75933 9.53241,8.43427 12.65141,9.78472 z"
     id="path162"
     inkscape:connector-curvature="0"
     style="opacity:0.1;stroke-width:1" />
  <path
     d="m 54.878096,71.789794 c 0,0 4.56556,8.16994 6.07219,9.4483 1.50664,1.27836 0.25231,-4.56556 0.25231,-4.56556 z"
     id="path164"
     inkscape:connector-curvature="0"
     style="opacity:0.1;stroke-width:1" />
  <path
     d="m 42.058496,48.515064 c 0,0 11.55326,7.50673 11.05345,12.8196 -0.49981,5.31287 -11.05345,-12.8196 -11.05345,-12.8196 z"
     id="path166"
     inkscape:connector-curvature="0"
     style="opacity:0.1;stroke-width:1" />
  <path
     d="m 28.393056,72.722124 c 0,0 -2.95079,23.36365 20.49695,22.94073 0,0 -19.14651,-7.08382 -20.49695,-22.94073 z"
     id="path168"
     inkscape:connector-curvature="0"
     style="opacity:0.1;stroke-width:1" />
  <path
     d="m 118.98094,113.29311 c -3.37611,-0.0865 -12.90371,-3.54431 -12.90371,-3.54431 l 0.0553,-0.26192 1.54508,-7.42023 1.92234,0.0649 c 1.87908,0.0625 4.65927,0.1682 6.0842,0.27393 2.28519,0.17301 6.67052,10.96935 3.29682,10.88765 z"
     id="path170"
     inkscape:connector-curvature="0"
     style="fill:#ffc4d0;stroke-width:1" />
  <path
     d="m 64.725286,32.494754 3.05652,33.04743 -3.60439,9.13112 c -2.80661,-4.1042 -5.97848,-8.72743 -6.86516,-9.96733 -1.68204,-2.36208 -5.14466,-13.91534 -5.14466,-13.91534 0,0 -1.01163,-10.20763 5.81989,-15.6046 2.96521,-2.32363 5.1783,-2.85227 6.7378,-2.69128 z"
     id="path172"
     inkscape:connector-curvature="0"
     style="opacity:0.1;stroke-width:1" />
  <path
     d="m 107.84338,107.1248 a 8.5423991,8.5423991 0 0 1 -2.52548,3.12381 c 0,0 -4.40696,-2.55191 -9.405044,-5.63006 3.73895,0.76173 8.323734,1.70368 11.930524,2.50625 z"
     id="path174"
     inkscape:connector-curvature="0"
     style="opacity:0.1;stroke-width:1" />
  <path
     d="m 106.57944,109.75601 -0.44935,-0.26192 1.54749,-7.42744 1.92234,0.0649 c 1.02124,4.78903 -3.02048,7.62448 -3.02048,7.62448 z"
     id="path176"
     inkscape:connector-curvature="0"
     style="opacity:0.1;stroke-width:1" />
  <path
     d="m 68.457026,33.583284 c 0,0 -2.86669,-4.30124 -9.6958,1.09814 -6.82911,5.39937 -5.81989,15.60459 -5.81989,15.60459 0,0 3.45781,11.55327 5.14467,13.91534 1.68685,2.36208 11.63736,16.95985 11.63736,16.95985 0,0 10.45753,11.89207 17.28905,16.70033 6.83152,4.808246 19.062414,11.894476 19.062414,11.894476 0,0 4.21713,-2.9532 2.95319,-7.92966 0,0 -2.36207,-0.58871 -3.54191,-1.855046 -1.17984,-1.26635 -2.61679,-2.78259 -2.61679,-2.78259 0,0 -2.02326,-0.84343 -2.02326,-1.77096 0,-0.92753 -3.710124,-3.96482 -3.710124,-3.96482 0,0 -0.25471,-1.26635 -1.18224,-1.51865 -0.92752,-0.25231 -2.27797,-3.3641 -2.27797,-3.3641 0,0 -3.1238,-3.62601 -3.2031,-4.80585 -0.0793,-1.17983 -1.44175,-1.26394 -1.44175,-1.26394 0,0 -1.18224,-2.36207 -1.18224,-2.95319 0,-0.59112 -1.77096,-1.77096 -1.77096,-1.77096 l -2.78259,-3.1238 c 0,0 0.75933,-2.19147 -1.93916,-3.87832 -2.69848,-1.68686 -3.03729,-6.4879 -3.03729,-6.4879 l -2.61439,-5.65168 a 1.4850078,1.4850078 0 0 0 0.67523,-1.77096 5.9376282,5.9376282 0 0 0 -1.18224,-2.19387 c 0,0 1.01403,-0.58871 0.1682,-1.93916 -0.84583,-1.35044 -1.01163,-4.55354 -1.01163,-4.55354 l -2.02326,-5.65168 c 0,0 -0.41571,-5.4234 -3.87352,-6.94205 z"
     id="path178"
     inkscape:connector-curvature="0"
     style="fill:#575989;stroke-width:1" />
  <path
     d="m 75.543256,71.371684 c 0,0 8.77068,-2.27797 6.15629,-0.42291 -2.61438,1.85505 -6.15629,0.42291 -6.15629,0.42291 z"
     id="path180"
     inkscape:connector-curvature="0"
     style="opacity:0.1;stroke-width:1" />
  <path
     d="m 74.361016,80.901684 c 0,0 6.66331,-1.17983 5.14466,0.33881 -1.51865,1.51865 -5.14466,-0.33881 -5.14466,-0.33881 z"
     id="path182"
     inkscape:connector-curvature="0"
     style="opacity:0.1;stroke-width:1" />
  <path
     d="m 61.202596,41.428834 c 0,0 8.94129,2.36207 11.05346,7.33853 z"
     id="path184"
     inkscape:connector-curvature="0"
     style="opacity:0.1;stroke-width:1" />
  <g
     id="g194"
     style="opacity:0.1;stroke-width:4.16159439"
     transform="matrix(0.24029252,0,0,0.24029252,-0.00471418,-33.023406)">
    <path
       d="m 239.52,297.54 c -0.17,-3.58 -0.81,-7.59 -3.7,-9.7 -1,-0.77 -2.34,-1.23 -3.2,-2.2 l -0.12,-0.16 c -0.69,1.8 -0.76,3.66 0.47,5.07 0.86,1 2.15,1.44 3.2,2.2 2.06,1.51 3,4 3.39,6.56 -0.02,-0.59 -0.02,-1.18 -0.04,-1.77 z"
       transform="translate(-19.44,-93.81)"
       id="path186"
       inkscape:connector-curvature="0"
       style="stroke-width:4.16159439" />
    <path
       d="m 237.88,270.18 a 7.55,7.55 0 0 0 0.44,1.29 5.32,5.32 0 0 0 0.29,-3.06 6.83,6.83 0 0 0 -0.43,-1.3 5.27,5.27 0 0 0 -0.3,3.07 z"
       transform="translate(-19.44,-93.81)"
       id="path188"
       inkscape:connector-curvature="0"
       style="stroke-width:4.16159439" />
    <path
       d="m 371.69,272.93 a 29.21,29.21 0 0 1 -2.34,8.08 5.41,5.41 0 0 1 -1.52,2.33 4.8,4.8 0 0 1 -2.64,0.74 c -7.54,0.42 -14.7,-3.74 -22.25,-3.82 a 4.45,4.45 0 0 0 -3,0.76 c -1.31,1.11 -1.11,3.12 -1.26,4.82 a 9.9,9.9 0 0 1 -5,7.71 c -3.58,2 -8.26,1.64 -11.36,4.28 -3.1,2.64 -3.38,7.31 -2.61,11.61 a 9.12,9.12 0 0 1 3,-6.69 c 3.1,-2.65 7.78,-2.32 11.36,-4.28 a 9.91,9.91 0 0 0 5,-7.71 c 0.15,-1.71 -0.05,-3.72 1.26,-4.82 a 4.41,4.41 0 0 1 3,-0.76 c 7.55,0.07 14.71,4.24 22.25,3.82 a 4.73,4.73 0 0 0 2.64,-0.75 5.4,5.4 0 0 0 1.53,-2.33 c 1.69,-4.11 3.15,-8.81 1.94,-12.99 z"
       transform="translate(-19.44,-93.81)"
       id="path190"
       inkscape:connector-curvature="0"
       style="stroke-width:4.16159439" />
    <path
       d="m 315.3,326.38 a 9,9 0 0 1 -9.54,-3 c -2.82,-3.59 -2.44,-8.62 -3.19,-13.13 a 24.86,24.86 0 0 0 -6.94,-13.41 13.36,13.36 0 0 0 -6.09,-3.73 7,7 0 0 0 -6.68,1.73 c -2.24,2.42 -1.88,6.15 -2.16,9.44 a 21.13,21.13 0 0 1 -8.7,15.21 c -4.7,3.33 -10.51,4.56 -15.92,6.56 -3.59,1.33 -11.81,9.3 -15.33,7.71 -1.76,-0.79 -2.71,-2.47 -3.18,-4.56 -0.15,4.18 0.53,8.13 3.53,9.48 3.52,1.58 11.74,-6.39 15.33,-7.72 5.41,-2 11.22,-3.22 15.92,-6.56 a 21.11,21.11 0 0 0 8.7,-15.2 c 0.28,-3.29 -0.08,-7 2.16,-9.45 a 7,7 0 0 1 6.68,-1.72 13.29,13.29 0 0 1 6.09,3.72 24.82,24.82 0 0 1 6.94,13.42 c 0.75,4.5 0.37,9.53 3.19,13.12 a 8.78,8.78 0 0 0 15.68,-4.92 13.57,13.57 0 0 0 -0.47,-4 9,9 0 0 1 -6.02,7.01 z"
       transform="translate(-19.44,-93.81)"
       id="path192"
       inkscape:connector-curvature="0"
       style="stroke-width:4.16159439" />
  </g>
  <path
     d="m 13.876986,72.690894 a 2.2130941,2.2130941 0 0 0 -0.29076,0.56228 c -0.0192,0.0481 -0.0384,0.10333 -0.0553,0.15859 a 0.44213824,0.44213824 0 0 0 -0.10333,-0.036 1.4417551,1.4417551 0 0 0 -0.48058,-0.0408 c 0,-0.0601 0,-0.12495 0,-0.19223 0.0192,-0.68964 -0.0625,-1.65081 -0.72088,-1.24472 -0.6584,0.40609 -0.18022,1.04527 0.22587,1.46819 l 0.10573,0.10332 c -0.37245,0.26673 -0.44214,0.88188 -0.50461,1.52346 -0.0625,0.64158 -0.60794,1.34804 -0.96117,1.74692 l -0.10092,0.11294 a 1.3192059,1.3192059 0 0 0 -1.0548902,-0.27153 c -0.0144,-0.0577 -0.0312,-0.11534 -0.0481,-0.17781 -0.29315,-1.05969 -0.9035,-2.89553 -1.68205,-3.29682 l 0.10093,-0.12976 c 0.3316,-0.43252 0.70165,-1.0741 0.15378,-1.2375 -0.54786,-0.1634 -0.59832,0.55748 -0.56709,1.09573 0,0.0673 0,0.13216 0.0144,0.19224 a 0.80738287,0.80738287 0 0 0 -0.56949,0.28114 l -0.0841,-0.10093 c -0.44454,-0.52624 -1.26154,-1.35765 -1.50904,-0.72087 -0.24029,0.58631 0.48058,1.34804 0.99481,1.79018 l 0.0312,0.0264 c -0.34122,1.37687 1.14139,2.50144 1.93916,2.99164 l 0.10332,0.0625 c -1.10053,1.29758 -1.78056,3.72693 -1.78056,3.72693 l 3.0829502,0.55027 c 0,0 2.04249,-1.76134 1.78057,-3.41696 h 0.0216 c 2.04009,-0.40849 2.50385,-2.58554 2.18667,-3.87832 l 0.036,-0.0144 a 2.2755702,2.2755702 0 0 0 0.94435,-0.72088 c 0.5743,-0.79777 -0.62236,-1.69166 -1.20867,-0.91311 z"
     id="path196"
     inkscape:connector-curvature="0"
     style="fill:#6c63ff;stroke-width:1" />
  <path
     d="m 13.876986,72.690894 a 2.2130941,2.2130941 0 0 0 -0.29076,0.56228 c -0.0192,0.0481 -0.0384,0.10333 -0.0553,0.15859 a 0.44213824,0.44213824 0 0 0 -0.10333,-0.036 1.4417551,1.4417551 0 0 0 -0.48058,-0.0408 c 0,-0.0601 0,-0.12495 0,-0.19223 0.0192,-0.68964 -0.0625,-1.65081 -0.72088,-1.24472 -0.6584,0.40609 -0.18022,1.04527 0.22587,1.46819 l 0.10573,0.10332 c -0.37245,0.26673 -0.44214,0.88188 -0.50461,1.52346 -0.0625,0.64158 -0.60794,1.34804 -0.96117,1.74692 l -0.10092,0.11294 a 1.3192059,1.3192059 0 0 0 -1.0548902,-0.27153 c -0.0144,-0.0577 -0.0312,-0.11534 -0.0481,-0.17781 -0.29315,-1.05969 -0.9035,-2.89553 -1.68205,-3.29682 l 0.10093,-0.12976 c 0.3316,-0.43252 0.70165,-1.0741 0.15378,-1.2375 -0.54786,-0.1634 -0.59832,0.55748 -0.56709,1.09573 0,0.0673 0,0.13216 0.0144,0.19224 a 0.80738287,0.80738287 0 0 0 -0.56949,0.28114 l -0.0841,-0.10093 c -0.44454,-0.52624 -1.26154,-1.35765 -1.50904,-0.72087 -0.24029,0.58631 0.48058,1.34804 0.99481,1.79018 l 0.0312,0.0264 c -0.34122,1.37687 1.14139,2.50144 1.93916,2.99164 l 0.10332,0.0625 c -1.10053,1.29758 -1.78056,3.72693 -1.78056,3.72693 l 3.0829502,0.55027 c 0,0 2.04249,-1.76134 1.78057,-3.41696 h 0.0216 c 2.04009,-0.40849 2.50385,-2.58554 2.18667,-3.87832 l 0.036,-0.0144 a 2.2755702,2.2755702 0 0 0 0.94435,-0.72088 c 0.5743,-0.79777 -0.62236,-1.69166 -1.20867,-0.91311 z"
     id="path198"
     inkscape:connector-curvature="0"
     style="opacity:0.1;stroke-width:1" />
  <path
     d="m 7.7423158,73.579974 -0.35804,1.05248 a 5.3489115,5.3489115 0 0 1 -0.45415,-0.36284 c -0.50461,-0.44214 -1.22309,-1.20146 -0.99481,-1.79018 0.24029,-0.62957 1.0645,0.20184 1.50904,0.72088 0.18022,0.21626 0.29796,0.37966 0.29796,0.37966 z"
     id="path200"
     inkscape:connector-curvature="0"
     style="fill:#6c63ff;stroke-width:1" />
  <path
     d="m 8.5040458,72.976834 c -0.18262,0.2403 -0.35083,0.41331 -0.35083,0.41331 a 5.3080618,5.3080618 0 0 1 -0.0649,-0.55508 c -0.0288,-0.53825 0.0264,-1.25673 0.56709,-1.09573 0.54066,0.16099 0.17782,0.80498 -0.15138,1.2375 z"
     id="path202"
     inkscape:connector-curvature="0"
     style="fill:#6c63ff;stroke-width:1" />
  <path
     d="m 13.148896,73.142644 c 0,0.34842 -0.0433,0.62476 -0.0433,0.62476 a 4.2315513,4.2315513 0 0 1 -0.44935,-0.40129 c -0.4085,-0.42292 -0.85784,-1.07651 -0.22587,-1.46819 0.63197,-0.39168 0.7377,0.55508 0.71847,1.24472 z"
     id="path204"
     inkscape:connector-curvature="0"
     style="fill:#6c63ff;stroke-width:1" />
  <path
     d="m 15.268276,73.596794 a 2.3044053,2.3044053 0 0 1 -0.94435,0.72088 2.6960821,2.6960821 0 0 1 -0.31718,0.11534 l -0.42052,-0.60073 a 4.0849728,4.0849728 0 0 1 0.17542,-0.57911 2.2130941,2.2130941 0 0 1 0.30517,-0.56228 c 0.58391,-0.77855 1.78297,0.11534 1.20146,0.9059 z"
     id="path206"
     inkscape:connector-curvature="0"
     style="fill:#6c63ff;stroke-width:1" />
  <path
     d="m 7.4443558,73.207514 c 0.18022,0.20906 0.29796,0.37246 0.29796,0.37246 l -0.35804,1.05248 a 5.3489115,5.3489115 0 0 1 -0.45415,-0.36284 2.0737244,2.0737244 0 0 1 0.4085,-0.92753 c 0.0336,-0.0481 0.0721,-0.0937 0.10573,-0.13457 z"
     id="path208"
     inkscape:connector-curvature="0"
     style="opacity:0.1;stroke-width:1" />
  <path
     d="m 8.5040458,72.976834 c -0.18262,0.2403 -0.35083,0.41331 -0.35083,0.41331 a 5.3080618,5.3080618 0 0 1 -0.0649,-0.55508 0.72087756,0.72087756 0 0 1 0.41571,0.14177 z"
     id="path210"
     inkscape:connector-curvature="0"
     style="opacity:0.1;stroke-width:1" />
  <path
     d="m 10.274996,77.162734 -0.8962902,0.39408 a 5.3344939,5.3344939 0 0 1 -0.48058,-0.26913 c -0.93955,-0.5791 -2.83305,-2.03768 -1.56431,-3.75577 1.26875,-1.71809 2.32844,1.36486 2.7441402,2.88351 0.12976,0.43733 0.19704,0.74731 0.19704,0.74731 z"
     id="path212"
     inkscape:connector-curvature="0"
     style="fill:#6c63ff;stroke-width:1" />
  <path
     d="m 12.656296,73.366114 a 0.72087756,0.72087756 0 0 1 0.4926,-0.22347 c 0,0.34842 -0.0433,0.62476 -0.0433,0.62476 a 4.2315513,4.2315513 0 0 1 -0.44935,-0.40129 z"
     id="path214"
     inkscape:connector-curvature="0"
     style="opacity:0.1;stroke-width:1" />
  <path
     d="m 14.333536,74.312864 a 2.6960821,2.6960821 0 0 1 -0.31718,0.11534 l -0.43013,-0.59592 a 4.0849728,4.0849728 0 0 1 0.17542,-0.57911 c 0.27874,0.15859 0.48058,0.55748 0.57189,1.05969 z"
     id="path216"
     inkscape:connector-curvature="0"
     style="opacity:0.1;stroke-width:1" />
  <path
     d="m 12.108436,78.205604 -0.15139,0.0264 c -3.0036602,0.45656 -0.99,-1.16301 -0.99,-1.16301 0,0 0.13696,-0.12496 0.31958,-0.32921 0.36285,-0.39888 0.90591,-1.09813 0.96117,-1.74692 0.0961,-0.97319 0.20425,-1.8863 1.35285,-1.61717 1.1486,0.26913 1.35045,4.26039 -1.49221,4.82988 z"
     id="path218"
     inkscape:connector-curvature="0"
     style="fill:#6c63ff;stroke-width:1" />
  <rect
     x="6.3149815"
     y="85.683502"
     width="5.7381854"
     height="1.509037"
     id="rect220"
     style="fill:#d4dfec;stroke-width:1" />
  <rect
     x="5.401865"
     y="80.779144"
     width="7.4995294"
     height="5.2672119"
     id="rect222"
     style="fill:#d4dfec;stroke-width:1" />
  <rect
     x="6.3149815"
     y="85.683502"
     width="5.7381854"
     height="1.509037"
     id="rect224"
     style="opacity:0.1;stroke-width:1" />
  <rect
     x="5.401865"
     y="80.779144"
     width="7.4995294"
     height="5.2672119"
     id="rect226"
     style="opacity:0.1;stroke-width:1" />
  <rect
     x="6.6922398"
     y="85.683502"
     width="5.7381854"
     height="1.509037"
     id="rect228"
     style="fill:#d4dfec;stroke-width:1" />
  <path
     d="m 10.080366,76.403414 c 0.12735,0.44934 0.19463,0.75932 0.19463,0.75932 l -0.8962902,0.39408 a 5.3344939,5.3344939 0 0 1 -0.48058,-0.26913 2.3092111,2.3092111 0 0 1 1.1822402,-0.88427 z"
     id="path230"
     inkscape:connector-curvature="0"
     style="opacity:0.1;stroke-width:1" />
  <path
     d="m 12.108436,78.205604 -0.15139,0.0264 c -3.0036602,0.45656 -0.99,-1.16301 -0.99,-1.16301 0,0 0.13696,-0.12496 0.31958,-0.32921 a 1.9896221,1.9896221 0 0 1 0.82181,1.46579 z"
     id="path232"
     inkscape:connector-curvature="0"
     style="opacity:0.1;stroke-width:1" />
  <path
     d="m 7.2256858,81.077094 c 0,0 1.68205,-6.00731 4.0393202,-4.16426 2.35727,1.84304 -0.96117,4.71453 -0.96117,4.71453 z"
     id="path234"
     inkscape:connector-curvature="0"
     style="fill:#6c63ff;stroke-width:1" />
  <circle
     cx="8.0739231"
     cy="74.476257"
     r="0.18983109"
     id="circle236"
     style="opacity:0.1;stroke-width:1" />
  <circle
     cx="8.0594883"
     cy="75.355743"
     r="0.18983109"
     id="circle238"
     style="opacity:0.1;stroke-width:1" />
  <circle
     cx="13.528574"
     cy="74.649292"
     r="0.18983109"
     id="circle240"
     style="opacity:0.1;stroke-width:1" />
  <circle
     cx="9.1287937"
     cy="79.159576"
     r="0.18983109"
     id="circle242"
     style="opacity:0.1;stroke-width:1" />
  <circle
     cx="13.136881"
     cy="76.11026"
     r="0.18983109"
     id="circle244"
     style="opacity:0.1;stroke-width:1" />
  <circle
     cx="11.18812"
     cy="78.059021"
     r="0.18983109"
     id="circle246"
     style="opacity:0.1;stroke-width:1" />
  <circle
     cx="8.717905"
     cy="74.853516"
     r="0.18983109"
     id="circle248"
     style="opacity:0.1;stroke-width:1" />
  <circle
     cx="13.009531"
     cy="75.213959"
     r="0.18983109"
     id="circle250"
     style="opacity:0.1;stroke-width:1" />
  <circle
     cx="12.365549"
     cy="76.674927"
     r="0.18983109"
     id="circle252"
     style="opacity:0.1;stroke-width:1" />
  <circle
     cx="10.385538"
     cy="79.017792"
     r="0.18983109"
     id="circle254"
     style="opacity:0.1;stroke-width:1" />
  <circle
     cx="9.9770298"
     cy="78.090271"
     r="0.18983109"
     id="circle256"
     style="opacity:0.1;stroke-width:1" />
  <circle
     cx="9.0014439"
     cy="75.999725"
     r="0.18983109"
     id="circle258"
     style="opacity:0.1;stroke-width:1" />
  <rect
     x="6.6922398"
     y="85.683502"
     width="5.7381854"
     height="0.55026984"
     id="rect260"
     style="opacity:0.1;stroke-width:1" />
  <rect
     x="5.7791233"
     y="80.779144"
     width="7.4995294"
     height="5.2672119"
     id="rect262"
     style="fill:#d4dfec;stroke-width:1" />
  <circle
     cx="10.637827"
     cy="79.866028"
     r="0.18983109"
     id="circle264"
     style="opacity:0.1;stroke-width:1" />
  <circle
     cx="9.506052"
     cy="80.103912"
     r="0.18983109"
     id="circle266"
     style="opacity:0.1;stroke-width:1" />
</svg>
