<?xml version="1.0" encoding="UTF-8" standalone="no"?>
<svg
   xmlns:dc="http://purl.org/dc/elements/1.1/"
   xmlns:cc="http://creativecommons.org/ns#"
   xmlns:rdf="http://www.w3.org/1999/02/22-rdf-syntax-ns#"
   xmlns:svg="http://www.w3.org/2000/svg"
   xmlns="http://www.w3.org/2000/svg"
   xmlns:xlink="http://www.w3.org/1999/xlink"
   xmlns:sodipodi="http://sodipodi.sourceforge.net/DTD/sodipodi-0.dtd"
   xmlns:inkscape="http://www.inkscape.org/namespaces/inkscape"
   id="d000d172-d3f6-4067-9bff-b7a6a8e5b081"
   data-name="Layer 1"
   width="1161.12"
   height="712.38"
   viewBox="0 0 1161.12 712.38"
   version="1.1"
   sodipodi:docname="story.svg"
   inkscape:version="0.92.3 (2405546, 2018-03-11)">
  <metadata
     id="metadata371">
    <rdf:RDF>
      <cc:Work
         rdf:about="">
        <dc:format>image/svg+xml</dc:format>
        <dc:type
           rdf:resource="http://purl.org/dc/dcmitype/StillImage" />
        <dc:title>conversation</dc:title>
      </cc:Work>
    </rdf:RDF>
  </metadata>
  <sodipodi:namedview
     pagecolor="#ffffff"
     bordercolor="#666666"
     borderopacity="1"
     objecttolerance="10"
     gridtolerance="10"
     guidetolerance="10"
     inkscape:pageopacity="0"
     inkscape:pageshadow="2"
     inkscape:window-width="1890"
     inkscape:window-height="1052"
     id="namedview369"
     showgrid="false"
     showborder="false"
     inkscape:zoom="0.2600937"
     inkscape:cx="157.6355"
     inkscape:cy="356.19"
     inkscape:window-x="30"
     inkscape:window-y="0"
     inkscape:window-maximized="1"
     inkscape:current-layer="d000d172-d3f6-4067-9bff-b7a6a8e5b081" />
  <defs
     id="defs10">
    <linearGradient
       id="6b2b92d3-a44d-4448-98ae-26e2a0ff69e8"
       x1="697.19"
       y1="782.63"
       x2="697.19"
       y2="256.05"
       gradientUnits="userSpaceOnUse">
      <stop
         offset="0"
         stop-color="gray"
         stop-opacity="0.25"
         id="stop2" />
      <stop
         offset="0.54"
         stop-color="gray"
         stop-opacity="0.12"
         id="stop4" />
      <stop
         offset="1"
         stop-color="gray"
         stop-opacity="0.1"
         id="stop6" />
    </linearGradient>
    <linearGradient
       id="6a61e424-f11c-4682-b27d-5ab95be8b857"
       x1="319.26"
       y1="783.27"
       x2="319.26"
       y2="229.16"
       xlink:href="#6b2b92d3-a44d-4448-98ae-26e2a0ff69e8" />
  </defs>
  <title
     id="title12">conversation</title>
  <path
     d="M970.9,637.15l-28.69-.47L920,636.3l-45.4-.76-2,0-38.21-.64h0L758,633.59l-41.42-.69-5.17-.09-2,0h0l-3.88-.06h-.92l-1.12,0L682,632.32l-12.32-.21-3.3-.06h0l-1.13,0h-.28l-22.56-.38-22.17-.36-178.59-3-2.44,0-67.75-1.13-4.24-.08h0l-32.49-.53-22.17-.37-20-.34-1.71,0-78.94-1.32h0L185.71,624l-71.4-1.2-7.23-.12H107l-14.83-.25-72.1-1.2c-.46-6.56-.62-13.16-.61-19.77q0-6.59.19-13.15l72.52,1.58,14,.31h.25l7.91.17,33.31.72,17.89.39,106,2.3,7.42.16,33.57.73,4.18.09,7.44.17,9.8.21h.75l31.8.69,45.47,1,2.82.06,108.73,2.36,1.78,0,94.92,2.06,14.58.32,2.13.05,2.12,0,3.34.07,4.18.1h0l18.75.4h0l2.07,0,5.91.13,2.43,0,2.32.05,13,.29,46.43,1,2.09,0,3.13.07,127.92,2.77,1.93,0,47.48,1,19.81.43,2.36.33,16.17,2.27c1.75,3.11,3.45,6.21,5,9.31A130.32,130.32,0,0,1,970.9,637.15Z"
     transform="translate(-19.44 -93.81)"
     fill="#fff"
     id="path18" />
  <path
     d="M970.9,637.15l-28.69-.47L920,636.3l-45.4-.76-2,0-38.21-.64h0L758,633.59l-41.42-.69-5.17-.09-2,0h0l-3.88-.06h-.92l-1.12,0L682,632.32l-12.32-.21-3.3-.06h0l-1.13,0h-.28l-22.56-.38-22.17-.36-178.59-3-2.44,0-67.75-1.13-4.24-.08h0l-32.49-.53-22.17-.37-20-.34-1.71,0-78.94-1.32h0L185.71,624l-71.4-1.2-7.23-.12H107l-14.83-.25-72.1-1.2c-.46-6.56-.62-13.16-.61-19.77l72.71,1.45,15,.29h.23l6.93.14,42.09.83,23.77.48,40.15.8,39.82.79h0l22.87.45h.48l25.09.49h.92l3,.07,22.17.44h.45l11.49.22,3.91.09,7.15.13a0,0,0,0,0,0,0l65.23,1.3,2.62,0,194.65,3.86,22.17.45,18.92.37h.25l1,0,1.24,0,15.49.3,2.88.07h0l2.3,0,46.76.93,2.08,0,3.27.06,55.6,1.11h0l60.86,1.2h0l17.16.34,1.63,0,48.18,1,22.17.44,21.22.42A130.32,130.32,0,0,1,970.9,637.15Z"
     transform="translate(-19.44 -93.81)"
     fill="#d0d0db"
     id="path20" />
  <path
     d="M888.37,731.12q-.92.58-1.8,1.2-1.89,1.27-3.7,2.65l0,0c-2,1.52-3.92,3.14-5.78,4.82q-1.65,1.51-3.24,3.1c-.84.82-1.68,1.67-2.5,2.54-1.58,1.65-3.12,3.35-4.63,5.07l-1.19,1.38q-1.66,2-3.3,3.94c-1.42,1.72-2.81,3.46-4.2,5.21-2,2.5-4,5-5.94,7.5-.58.72-1.15,1.43-1.71,2.15-3.26,4-6.53,8-10,11.7l-87.43.17H741.08l-12.21,0-.33-.19h0l-2.28-1.32-1.07-.62c-2.71-1.58-5.42-3.16-8.12-4.7l-.65-.38c-3.81-2.17-7.59-4.28-11.35-6.27q-3.4-1.8-6.87-3.44a193.33,193.33,0,0,0-23.58-9.46,203.18,203.18,0,0,0-32.26-7.77q-6.68-1.07-13.43-1.67c-2.9-.26-5.82-.47-8.74-.61a206.34,206.34,0,0,0-70.09,8.52c-3.09.94-6.17,2-9.21,3.06-.57.19-1.13.4-1.68.6.1-.51.21-1,.32-1.53.83-3.82,4.28-8,9.06-12.21,2-24.49,22.48-44,22.48-44l48.52-21,.6-.4c8.46-5.68,17.43-10.25,22.17-11.93a13.34,13.34,0,0,1,2.06-.6c8.87-1.77,16.66-8.85,23-12.73,2.78-1.7,3.28-7.8,2.94-14.16,0-.49,0-1-.08-1.47l-1.44.08-.28-.74-.36-1c-.06-.17-.11-.33-.17-.49l-.24,0h-.09l-1,0c-.57-1.49-1.09-2.91-1.55-4.27a82.68,82.68,0,0,1-3.26-11.92,3.4,3.4,0,0,1-.08-.46,35.73,35.73,0,0,1-.58-5.44,20.6,20.6,0,0,1,.24-4.1,13.32,13.32,0,0,1,.41-1.73l-.92.09h0l-2.4.21-.73.06-.32.21-15.19,1.35-1.45.13-.74.06a.43.43,0,0,0,0-.11s0,0,0-.08l-1.4.13-.75.06a12.58,12.58,0,0,0,.27-1.59l-1.57.15-.58.05a115.83,115.83,0,0,1-16-.2c-20.8-1.4-45.93-6.19-45.93-6.19s-28.42,6.36-49-3.42a36.1,36.1,0,0,1-10.36-7.21l0,0a33.18,33.18,0,0,1-6.89-10.2,25.49,25.49,0,0,1-1.54-4.62,13.76,13.76,0,0,1-.37-4.44c1.77-20,55.72-6.51,66.77-.85a17.35,17.35,0,0,0,1.95.85c8.19,3,21.29,2,30.05.75l1.71-.25c-.37-.23-.67-.39-.86-.5l-.25-.14a52.13,52.13,0,0,1,14.74-6.28,35.67,35.67,0,0,1,9.6-1,55.41,55.41,0,0,1,9.86.85l.23,0a11.61,11.61,0,0,0,2.48-.65c2.63-1.06,4.61-3.22,3.84-7a17.7,17.7,0,0,1,1.07-9.9s4.92,1.3,4.35-5v0a20.75,20.75,0,0,0-.81-3.84c-.21-.7-.39-1.4-.54-2.11,0,0,0-.08,0-.12-2.07-10.08,1.62-21.11,1.62-21.11l2.48-3.18.13-.39.09-.24-1.32-6.91h0l-.32-1.64-.7-23.68s-.36-37.12,11.7-42.42l-.13-1.68-.23-2.91s-5.16-1.53-8.26-4a7.32,7.32,0,0,1-1.73-1.91h0a3.22,3.22,0,0,1-.47-2.52,5,5,0,0,1,1.6-2.5,26.38,26.38,0,0,0,7.8-14.14s1.29-2.14,3.4-5.49c.14-.24.3-.49.46-.74-2.22-8-4.8-16.16-7.18-23.23-.22-.66-.43-1.32-.65-1.95-.14-.4-.27-.8-.4-1.19-.24-.67-.47-1.32-.69-2l-.81.16a51.58,51.58,0,0,1-9.19.83A50.52,50.52,0,0,1,598,313c.18-.79.37-1.58.59-2.35.11-.43.24-.84.38-1.26a8.63,8.63,0,0,0-5.32.68c-2.48,1.09-4.65,2.91-7.07,4.16A16.84,16.84,0,0,1,578.9,316a17.07,17.07,0,0,1-4.87-.7h0a17.08,17.08,0,0,1-5.62-2.82c.37,0,.72,0,1.08-.08l.3,0,.84-.15.24,0c.35-.09.7-.18,1-.29l.18-.05c.3-.1.59-.2.88-.32l.25-.1,1-.43s0,0,0,0c.35-.16.68-.35,1-.54a2,2,0,0,1,.19-.12l.83-.53.16-.11c.33-.22.65-.45,1-.7a23.43,23.43,0,0,0,3.27-3.11c3.26-3.72,5.58-8.31,7.87-12.84l6-11.92c1.2-2.37,2.45-4.78,3.86-7a29.85,29.85,0,0,1,3.35-4.44,17.77,17.77,0,0,1,3.69-3.08,19.22,19.22,0,0,1,8.88-2.65c4.91-.35,10.1.44,15.06.28,6.69-.22,13.23-2.28,19.57-4.7a58.61,58.61,0,0,1,9.18-3h0a20.2,20.2,0,0,1,3.72-.43,24,24,0,0,1,10.44,2.58,40.8,40.8,0,0,1,12.58,9.31c.52.55,1,1.12,1.5,1.71,1.22,1.45,2.39,3,3.56,4.44,1,1.22,1.94,2.43,3,3.6,4.88,5.54,10.81,9.84,15.57,15.52s8.3,13.31,7,20.87v.05c0,.05,0,.08,0,.12h0c-.09.53-.22,1-.36,1.57,0,.17-.09.34-.14.5-.1.36-.2.72-.32,1.07l-.18.56c-.13.37-.25.75-.39,1.13-1,2.76-2,5.5-2.08,8.44a11.05,11.05,0,0,0,0,1.29s0,0,0,0c.26,3.79,2,7.36,3.1,11a19.73,19.73,0,0,1,.94,5.09c0,.32,0,.64,0,.95V346c0,.3,0,.6,0,.9a.06.06,0,0,0,0,0,9.74,9.74,0,0,1-.23,1.45v0a.5.5,0,0,1,0,.16.91.91,0,0,1,0,.21s0,.07,0,.11a7,7,0,0,1-.22.7c0,.07,0,.15-.08.23l-.24.55-.14.25a4.33,4.33,0,0,1-.31.51,1.59,1.59,0,0,1-.13.22,6.78,6.78,0,0,1-.53.67c-.12.13-.24.24-.37.36l1.48.9c.13.09.26.16.4.24,4.81,1,19,4,24.58,4.25,1.69.09,4.46,1.2,7.67,2.8A68.82,68.82,0,0,1,779.07,393c4.68,10,10.21,20.87,13.12,23,2.36,1.77,4.79,5.32,6.82,8.86.88,1.53,1.68,3.06,2.36,4.44,1.54,3.08,2.52,5.44,2.52,5.44s23,15.55,20.19,30.75c0,0,5,17,9.93,21.92S850.31,532,850.31,532s4.25,7.42,3.9,13.06,4.26,17.69,4.26,17.69,1,5,2.3,10c.4,1.52.83,3,1.29,4.44.9,2.87,1.88,5.24,2.79,6,2.82,2.47,1.41,7.77,1.41,7.77s3.54,9.19,5.32,11.67a8.65,8.65,0,0,1,1,4.11,45.75,45.75,0,0,1-.28,6.85s-.26,2-.42,4.72c-.26,4.38-.26,10.56,1.48,13a9.77,9.77,0,0,1,1.3,4.2c.83,6,.15,15.2,2.6,17.38,3.19,2.82,1.78,28.63,1.78,28.63S884,713.5,888.37,731.12Z"
     transform="translate(-19.44 -93.81)"
     fill="url(#6b2b92d3-a44d-4448-98ae-26e2a0ff69e8)"
     id="path22" />
  <path
     d="M761.37,666.91,758,669.67,741.74,683l-3.29,2.7-14.29,11.73S684,720.82,642.34,740.59c-4.47,2.12-9,4.2-13.43,6.21-2.9-.26-5.82-.47-8.74-.61a206.34,206.34,0,0,0-70.09,8.52,44.46,44.46,0,0,1-.2-9.35c2-24.33,22.3-43.7,22.3-43.7l48-20.83.05,0h0l22.11-9.59,33.38-14.49L686.29,658l19.22,2.29Z"
     transform="translate(-19.44 -93.81)"
     fill="#95b6f0"
     id="path24" />
  <path
     d="M761.37,666.91,758,669.67,741.74,683l-3.29,2.7-14.29,11.73S684,720.82,642.34,740.59c-4.47,2.12-9,4.2-13.43,6.21-2.9-.26-5.82-.47-8.74-.61a206.34,206.34,0,0,0-70.09,8.52,44.46,44.46,0,0,1-.2-9.35c2-24.33,22.3-43.7,22.3-43.7l48-20.83.05,0h0l22.11-9.59,33.38-14.49L686.29,658l19.22,2.29Z"
     transform="translate(-19.44 -93.81)"
     opacity="0.05"
     id="path26" />
  <path
     d="M718.55,764.49l-.13,1-.64,4.8-.09.76-.05.26-.24,1.83-.35,2.66-.65-.38c-3.81-2.17-7.59-4.28-11.35-6.27q-3.4-1.8-6.87-3.44a193.33,193.33,0,0,0-23.58-9.46l2.17-4,13.43,3.94,19.08,5.62,3.5,1,2.79.82Z"
     transform="translate(-19.44 -93.81)"
     fill="#5f546f"
     id="path28" />
  <path
     d="M718.55,764.49l-.13,1-.64,4.8-.09.76-.05.26-.24,1.83-.35,2.66-.65-.38c-3.81-2.17-7.59-4.28-11.35-6.27q-3.4-1.8-6.87-3.44a193.33,193.33,0,0,0-23.58-9.46l2.17-4,13.43,3.94,19.08,5.62,3.5,1,2.79.82Z"
     transform="translate(-19.44 -93.81)"
     opacity="0.05"
     id="path30" />
  <polygon
     points="668.92 655.59 694.89 666.12 698.76 677.7 672.08 667.17 668.92 655.59"
     fill="#ccccd8"
     id="polygon32" />
  <polygon
     points="668.92 655.59 694.89 666.12 698.76 677.7 672.08 667.17 668.92 655.59"
     opacity="0.05"
     id="polygon34" />
  <path
     d="M858,761.07c-2,2.5-4,5-5.94,7.5-.58.72-1.15,1.43-1.71,2.15-3.26,4-6.53,8-10,11.7l-.41.44-110.32.21h0l-.74-.44-.33-.19h0l-2.28-1.32-1.07-.62c-2.71-1.58-5.42-3.16-8.12-4.7l-.65-.38.1-2.42.08-2.07v0l.15-3.76h0l.06-1.57,1.63-.06Z"
     transform="translate(-19.44 -93.81)"
     fill="#5f546f"
     id="path36" />
  <path
     d="M752.94,782.74h-1.05L742,782.6h-.35l-13.13-.17-2.28-1.32-.19-8.11,0-2.1-.08-3.6L750.83,766l1.06-.05.28,4.51.13,2.11.63,10.07Z"
     transform="translate(-19.44 -93.81)"
     opacity="0.1"
     id="path38" />
  <path
     d="M751.89,782.73h0l-10.81-.13-12.54-.17h0l-2.28-1.32-1.07-.62L725,773l0-2.1-.08-3.62,26-1.4V766l.29,4.48.13,2.11.63,10.05Z"
     transform="translate(-19.44 -93.81)"
     fill="#5f546f"
     id="path40" />
  <path
     d="M751.89,782.73h0l-10.81-.13-12.54-.17h0l-2.28-1.32-1.07-.62L725,773l0-2.1-.08-3.62,26-1.4V766l.29,4.48.13,2.11.63,10.05Z"
     transform="translate(-19.44 -93.81)"
     fill="#fff"
     opacity="0.1"
     id="path42" />
  <path
     d="M718.42,765.48,858,761.07c-2,2.5-4,5-5.94,7.5-.58.72-1.15,1.43-1.71,2.15l-98,1.8-1,0-25.2.46-1,0h0l-7.14.13a3.39,3.39,0,0,1-.45,0,3.76,3.76,0,0,1-.9-.14l.08-2.07v0l.15-3.76h0l.06-1.57Z"
     transform="translate(-19.44 -93.81)"
     opacity="0.1"
     id="path44" />
  <path
     d="M866.67,750.54l-1.19,1.38q-1.66,2-3.3,3.94c-1.42,1.72-2.81,3.46-4.2,5.21-2,2.5-4,5-5.94,7.5l-99.87,1.84-1,0L726,770.9l-1,0L718,771h-.34a5.08,5.08,0,0,1-.89-.08l-.22,0a5.34,5.34,0,0,1-4.12-5.93l.32-2.19.3-2.13.17-1.19.35-2.39.09-.67Z"
     transform="translate(-19.44 -93.81)"
     fill="#ccccd8"
     id="path46" />
  <path
     d="M872.29,738.17l4.75,1.66q-1.65,1.51-3.24,3.1c-.84.82-1.68,1.67-2.5,2.54-1.58,1.65-3.12,3.35-4.63,5.07l-1.19,1.38q-1.66,2-3.3,3.94l-146,4h0l-1.8,0-.74-2.83-5.94-22.79,141.16,3.32h0l8.11.19Z"
     transform="translate(-19.44 -93.81)"
     fill="#5f546f"
     id="path48" />
  <path
     d="M882.82,735c-2,1.52-3.92,3.14-5.78,4.82q-1.65,1.51-3.24,3.1c-.84.82-1.68,1.67-2.5,2.54-1.58,1.65-3.12,3.35-4.63,5.07l-1.19,1.38c-24.32,2.76-67.11,6.48-105.87,4.14a144.23,144.23,0,0,0-43.46,3.81h0l-1.68.43-1.38.37c-1.29.35-2.56.72-3.8,1.1-3,.9-5.79,1.87-8.44,2.88l-2.66,1.05a193.33,193.33,0,0,0-23.58-9.46,203.18,203.18,0,0,0-32.26-7.77q-6.68-1.07-13.43-1.67c-2.9-.26-5.82-.47-8.74-.61a206.34,206.34,0,0,0-70.09,8.52c-3.09.94-6.17,2-9.21,3.06l.06-.3c.84-3.8,4.24-8,9-12.11,15.39-13.51,44.76-26.85,44.76-26.85l15.65-6.64h0l9.87-4.2,22.17-9.4,46.86-19.88.5-.21,10.85-4.6,9.92-4.22a79,79,0,0,1,21.09-2.64c.91,0,1.83,0,2.74,0,.69,0,1.37,0,2.06.08h.28l1,0c1.69.09,3.38.23,5.09.4.6.05,1.2.12,1.81.19l.32,0,1.34.16c.56.06,1.12.14,1.68.22l1.67.24c1.12.17,2.24.35,3.37.55q2.52.45,5.09,1l2.51.54c2.56.56,5.13,1.19,7.71,1.87l2.4.66,1.61.46,2,.59c4.71,1.4,9.43,3,14.1,4.67l2.51.94,2.4.9a.27.27,0,0,0,.11.05c1.43.55,2.86,1.12,4.28,1.7,8.07,3.27,16,6.87,23.48,10.63l2.58,1.29,1.33.69c.89.45,1.76.91,2.64,1.37l2.61,1.38,1.28.69,1.28.7,1.26.69q4.43,2.43,8.56,4.87c.79.46,1.57.92,2.34,1.39l1.15.68c1.52.92,3,1.83,4.46,2.75.72.44,1.43.89,2.15,1.35,1.05.67,2.09,1.34,3.11,2,.67.43,1.33.87,2,1.31l1,.66c.64.43,1.27.85,1.89,1.28l1.07.74c.71.48,1.41,1,2.08,1.45.34.24.67.49,1,.72l.31.22,2.45,1.8s0,0,.05,0l1.5,1.14,1.46,1.13c1,.73,1.86,1.46,2.71,2.17.42.34.83.68,1.22,1l.59.5.58.5,1,.93.7.67c.26.23.49.45.71.67a32.53,32.53,0,0,1,2.49,2.72c.59.75,1.13,1.46,1.63,2.14Z"
     transform="translate(-19.44 -93.81)"
     fill="#95b6f0"
     id="path50" />
  <path
     d="M645.19,609a24.94,24.94,0,0,1-8.54,1.77c-20.33,1.5-61.32-6.34-61.32-6.34s-51.6,11.58-65.64-20.71,51.95-16.15,64.24-9.83c7.85,4,22.3,2.91,31.71,1.58,5.31-.76,9-1.58,9-1.58S658.17,602.68,645.19,609Z"
     transform="translate(-19.44 -93.81)"
     fill="#c27099"
     id="path52" />
  <path
     d="M701.69,551.08l-11.58,56.5-34.39,3-17.21,1.52c4.21-17.55-32.28-37.56-32.28-37.56,18.59-11.23,29.48-6,33.33-6.32.26,0,.51,0,.76-.09,3.64-.54,7.26-2.7,6.27-7.62a17.69,17.69,0,0,1,1-9.84s6.67,1.76,3.51-8.77,1.05-23.17,1.05-23.17l2.46-3.16,3.86-11.93,15.79,16.14Z"
     transform="translate(-19.44 -93.81)"
     fill="#4c4981"
     id="path54" />
  <path
     d="M701.69,551.43l-11.58,56.51-34.39,3-17.21,1.53c4.21-17.56-32.28-37.57-32.28-37.57,18.59-11.23,29.48-6,33.33-6.31l.76-.1c3.64-.54,7.26-2.7,6.27-7.62a17.69,17.69,0,0,1,1-9.84s6.67,1.76,3.51-8.77,1.05-23.17,1.05-23.17l2.46-3.16L658.52,504l15.79,16.15Z"
     transform="translate(-19.44 -93.81)"
     opacity="0.05"
     id="path56" />
  <path
     d="M662.73,607.24c-1.69,1.22-3.34,2.34-4.91,3.39l-17.2,1.52c4.21-17.55-32.29-37.56-32.29-37.56,18.6-11.23,29.49-6,33.34-6.32.25,0,.51,0,.76-.09,4.67,5.93,10.56,12.78,14,14.49C662.73,585.83,676.42,597.41,662.73,607.24Z"
     transform="translate(-19.44 -93.81)"
     opacity="0.1"
     id="path58" />
  <path
     d="M645.19,609a24.94,24.94,0,0,1-8.54,1.77c1.83-15-24.37-31.42-31-35.3,5.31-.76,9-1.58,9-1.58S658.17,602.68,645.19,609Z"
     transform="translate(-19.44 -93.81)"
     opacity="0.1"
     id="path60" />
  <path
     d="M660.63,607.24c-1.7,1.22-3.34,2.34-4.91,3.39l-17.21,1.52c4.21-17.55-32.28-37.56-32.28-37.56,18.59-11.23,29.48-6,33.33-6.32.26,0,.51,0,.76-.09,4.68,5.93,10.56,12.78,14,14.49C660.63,585.83,674.31,597.41,660.63,607.24Z"
     transform="translate(-19.44 -93.81)"
     fill="#4c4981"
     id="path62" />
  <path
     d="M660.63,607.94q-2.55,1.83-4.91,3.39l-17.21,1.53c4.21-17.56-32.28-37.57-32.28-37.57,18.59-11.23,29.48-6,33.33-6.31.26,0,.51-.06.76-.1,4.68,5.93,10.56,12.79,14,14.49C660.63,586.53,674.31,598.11,660.63,607.94Z"
     transform="translate(-19.44 -93.81)"
     opacity="0.05"
     id="path64" />
  <path
     d="M732.23,366.8s-66,92.31-60.72,75.46c3.47-11.09-6.14-42.83-13.11-63.26-3.63-10.61-6.55-18.17-6.55-18.17s37.91-32.65,37.21-25.28c-.18,1.92,2.65,5,7,8.41C708.23,353.74,732.23,366.8,732.23,366.8Z"
     transform="translate(-19.44 -93.81)"
     fill="#c27099"
     id="path66" />
  <path
     d="M696,344a50.24,50.24,0,0,1-37.62,35c-3.63-10.61-6.55-18.17-6.55-18.17s37.91-32.65,37.21-25.28C688.88,337.47,691.71,340.51,696,344Z"
     transform="translate(-19.44 -93.81)"
     opacity="0.1"
     id="path68" />
  <path
     d="M698,327.84a50.2,50.2,0,1,1-50.19-50.2A49.95,49.95,0,0,1,698,327.84Z"
     transform="translate(-19.44 -93.81)"
     fill="#c27099"
     id="path70" />
  <path
     d="M882.82,735c-2,1.52-3.92,3.14-5.78,4.82q-1.65,1.51-3.24,3.1c-.84.82-1.68,1.67-2.5,2.54a139.91,139.91,0,0,1-22.47-7.85h0C843,735,838.13,732,835.43,729c-9-9.87-38.62-35.56-97-43.32a271.49,271.49,0,0,0-42.39-2.15q-2.94.06-5.95.19l-.91-5.37.5-.21,10.85-4.6,9.92-4.22a79,79,0,0,1,21.09-2.64c.91,0,1.83,0,2.74,0,.69,0,1.37,0,2.06.08h.28l1,0c1.69.09,3.38.23,5.09.4.6.05,1.2.12,1.81.19l.32,0,1.34.16c.56.06,1.12.14,1.68.22l1.67.24c1.12.17,2.24.35,3.37.55,1.68.28,3.38.61,5.09,1l2.51.54c2.56.56,5.13,1.19,7.71,1.87l2.4.66,1.61.46,2,.59c4.71,1.4,9.43,3,14.1,4.67l2.51.94,2.4.9a.27.27,0,0,0,.11.05c1.43.55,2.86,1.12,4.28,1.7,8.07,3.27,16,6.87,23.48,10.63l2.58,1.29,1.33.69c.89.45,1.76.91,2.64,1.37l2.61,1.38,1.28.69,1.28.7,1.26.69q4.43,2.43,8.56,4.87c.79.46,1.57.92,2.34,1.39l1.15.68c1.52.93,3,1.83,4.46,2.75.72.44,1.43.89,2.15,1.35,1.05.67,2.09,1.34,3.11,2,.67.43,1.33.87,2,1.31l1,.66c.64.43,1.27.85,1.89,1.28l1.07.74L863.9,718c.34.24.67.49,1,.72l.31.22,2.45,1.8s0,0,.05,0l1.5,1.14,1.46,1.13c1,.74,1.86,1.47,2.71,2.17.42.34.83.68,1.22,1l.59.5.58.5,1,.93.7.67c.26.23.49.45.71.67a32.53,32.53,0,0,1,2.49,2.72c.59.75,1.13,1.46,1.63,2.14Z"
     transform="translate(-19.44 -93.81)"
     opacity="0.1"
     id="path72" />
  <path
     d="M877.2,682.71s5,32.2,9.37,49.61q-1.89,1.27-3.7,2.65l0,0c-2,1.52-3.92,3.14-5.78,4.82q-1.65,1.51-3.24,3.1a145.88,145.88,0,0,1-16.86-5.12c-9.14-3.4-17.62-7.67-21.51-11.93-8.84-9.68-37.5-34.59-93.69-42.86a269.67,269.67,0,0,0-43.83-2.65c-2.56,0-5.16.11-7.8.23l-.41-2.42L686.29,658l-3.18-18.87,0-.11-.34-2.09,0-.12-.14-.86-.61-3.61-1.63-9.65-.76-4.56s-.05-.52-.12-1.45c0-.15,0-.32,0-.49s0-.3,0-.46,0-.23,0-.36,0-.5-.06-.79,0-.36,0-.56l-.06-.63a1.6,1.6,0,0,1,0-.23c0-.32-.06-.67-.09-1a.13.13,0,0,1,0-.06c-.06-.65-.13-1.34-.2-2.06-.05-.45-.1-.92-.15-1.4-.2-1.85-.42-3.87-.67-6-.23-1.78-.47-3.62-.73-5.46-.07-.51-.14-1-.22-1.5,0-.29-.08-.58-.13-.87h0c0-.23-.07-.47-.11-.7-.15-1-.31-1.9-.47-2.83,0-.2-.07-.4-.1-.59-.09-.48-.17-1-.26-1.42s-.22-1.12-.33-1.67a.22.22,0,0,0,0-.08c0-.24-.1-.47-.15-.72s-.15-.67-.22-1c-.13-.59-.26-1.17-.4-1.71l-.19-.73c-.09-.38-.2-.76-.31-1.12a17.24,17.24,0,0,0-2-5h0a2.15,2.15,0,0,0-.23-.28,1.43,1.43,0,0,0-.24-.25,5.81,5.81,0,0,1-.81-1,7.07,7.07,0,0,1-.38-.61c-.24-.44-.5-.92-.76-1.46,0-.06-.06-.13-.1-.2s-.2-.42-.29-.64c-4.86-10.91-11-38.57-11-38.57L654.86,515h0l-.4-2.11-1.21-6.39,0-.76h0L652.56,483s-.36-36.86,11.58-42.12l-.36-4.56s-9.29-2.75-10.34-6.94a3,3,0,0,1,.12-1.91h0a5.51,5.51,0,0,1,1.45-2c.17-.16.34-.32.49-.49a26.11,26.11,0,0,0,7.23-13.55s1.47-2.44,3.83-6.19c7.36-11.69,23.4-36.08,30.57-38.74a57.33,57.33,0,0,0,16.5-9.83l1.61.35h0c4.78,1,18.85,3.93,24.35,4.21,1.67.1,4.41,1.19,7.59,2.78a68.26,68.26,0,0,1,31,32.26c4.65,10,10.12,20.72,13,22.88a23.58,23.58,0,0,1,4.95,5.83c.93,1.43,1.82,3,2.62,4.44,2.37,4.38,4,8.34,4,8.34s22.82,15.44,20,30.53c0,0,4.92,16.85,9.83,21.77s16.15,44.23,16.15,44.23,4.21,7.37,3.86,13,4.21,17.56,4.21,17.56.73,3.73,1.8,8c.36,1.46.76,3,1.18,4.44,1.07,3.66,2.26,6.93,3.34,7.88,2.8,2.45,1.4,7.72,1.4,7.72s3.51,9.13,5.27,11.58a5.83,5.83,0,0,1,.8,2.36,37.51,37.51,0,0,1-.1,8.53s-.15,1.22-.3,3c-.34,4.26-.61,11.8,1.36,14.51a7.3,7.3,0,0,1,1,2.65c1.23,5.7.19,16.4,2.83,18.76C878.6,657.07,877.2,682.71,877.2,682.71Z"
     transform="translate(-19.44 -93.81)"
     fill="#4c4981"
     id="path74" />
  <path
     d="M723.46,616.37s-2,4.72-4.91,11.69c-5.75,13.8-15,36.42-19,48.33-6,17.9-30.18,28.43-30.18,28.43s-48.09,16.49-64.94,4.21,31.59-39.32,40.36-41.06,16.5-8.79,22.82-12.64c3-1.82,3.31-8.78,2.82-15.64a132.22,132.22,0,0,0-2.12-15.26Z"
     transform="translate(-19.44 -93.81)"
     fill="#c27099"
     id="path76" />
  <path
     d="M789.1,451.39s18.25-8.08,26,4.56S789.1,451.39,789.1,451.39Z"
     transform="translate(-19.44 -93.81)"
     opacity="0.1"
     id="path78" />
  <path
     d="M856.49,613.91s-126,1.05-102.14,17.2,27.38,23.86,55.11,16.14S856.49,613.91,856.49,613.91Z"
     transform="translate(-19.44 -93.81)"
     opacity="0.1"
     id="path80" />
  <path
     d="M698,327.84a50,50,0,0,1-6.72,25.09,15.59,15.59,0,0,1-5.17-3.29c-1.7-1.8-2.64-4.26-3.7-6.59a57.94,57.94,0,0,0-8.37-13.32c-2.38-2.83-5.44-5.55-8.91-5.21-5.84.56-10,9.54-15.59,7.64-1.7-.57-4.19-11.38-5.15-13.37-2.28-4.7-3.55-3.34-7.71-1.38-7.89,3.73-16.43,7-25.09,5.32a13.29,13.29,0,0,1-7.87-4.14,27.47,27.47,0,0,0-2.66-3.27,5.33,5.33,0,0,0-1.63-.93A50.2,50.2,0,0,1,698,327.84Z"
     transform="translate(-19.44 -93.81)"
     opacity="0.1"
     id="path82" />
  <path
     d="M650.6,331.11c5.61,1.89,9.76-7.08,15.6-7.65,3.46-.33,6.52,2.39,8.9,5.22A57.39,57.39,0,0,1,683.47,342c1.06,2.32,2,4.79,3.7,6.59a17,17,0,0,0,5.57,3.47l7.6,3.42c4.41,2,10,3.73,13.42,0,2.71-3,2.34-8,1.09-12s-3.22-8-3.12-12.22c.11-4.6,2.61-8.68,3.43-13.19,1.38-7.56-2.18-15.25-6.89-20.89s-10.58-9.91-15.42-15.41c-2.75-3.13-5.15-6.62-8-9.68a40.29,40.29,0,0,0-12.46-9.25,23.51,23.51,0,0,0-10.34-2.56c-4.4.07-8.61,1.84-12.78,3.43-6.28,2.4-12.75,4.44-19.39,4.66-8,.26-16.68-2-23.71,2.35-5,3.09-8,8.91-10.79,14.45l-6,11.84c-2.27,4.49-4.57,9-7.79,12.73s-7.52,6.5-12.13,6.59a17,17,0,0,0,18,1.68c2.4-1.24,4.55-3.05,7-4.13s5.47-1.33,7.57.46a25.11,25.11,0,0,1,2.66,3.27,13.25,13.25,0,0,0,7.87,4.13c8.66,1.65,17.21-1.59,25.1-5.31,4.15-2,5.43-3.32,7.7,1.38C646.41,319.73,648.9,330.54,650.6,331.11Z"
     transform="translate(-19.44 -93.81)"
     fill="#63345e"
     id="path84" />
  <path
     d="M723.46,616.37s-2,4.72-4.91,11.69c-2.35,1.16-4.84,2.44-7.23,3.68-6.4,3.33-12.08,6.38-12.08,6.38l-28.77,1.57a132.22,132.22,0,0,0-2.12-15.26Z"
     transform="translate(-19.44 -93.81)"
     opacity="0.1"
     id="path86" />
  <path
     d="M770.85,477.71l-7,24.57s-7,14.74-3.5,28.79-2.11,35.45-2.11,35.45L747.33,594.6s-13.69,28.78-16.15,28.78c-1.34,0-10.08,4.38-17.76,8.36-6.4,3.33-12.07,6.38-12.07,6.38l-32.3,1.76c-10.65-28-3.3-32.91,2-33.37a11.31,11.31,0,0,1,4,.38l7-44.23V535.28s2.11-26.32,6.67-34.75A79.46,79.46,0,0,0,695.38,483s-4.22-8.08-5.27-13.34a95.75,95.75,0,0,1-1.4-11.23s-4.92.7-6.32-39.32,28.43-50.89,28.43-50.89c35.81-10.88,56.52,19.3,70.9,41.07S770.85,477.71,770.85,477.71Z"
     transform="translate(-19.44 -93.81)"
     opacity="0.1"
     id="path88" />
  <path
     d="M766.63,475.61l-7,24.56s-7,14.75-3.51,28.79-2.1,35.45-2.1,35.45l-10.88,28.08S729.43,621.27,727,621.27c-1.34,0-10.08,4.38-17.76,8.36-6.4,3.33-12.08,6.39-12.08,6.39l-14.4.78-3.15-18.69s-1.85-24.34-5.18-35.9l3.43-21.65V533.18s2.11-26.33,6.67-34.75a79.31,79.31,0,0,0,6.66-17.56s-4.21-8.07-5.26-13.34a93.08,93.08,0,0,1-1.4-11.22s-4.92.69-6.32-39.33,28.43-50.89,28.43-50.89c35.8-10.88,56.52,19.3,70.9,41.07S766.63,475.61,766.63,475.61Z"
     transform="translate(-19.44 -93.81)"
     opacity="0.1"
     id="path90" />
  <path
     d="M768.74,475.61l-7,24.56s-7,14.75-3.51,28.79-2.11,35.45-2.11,35.45l-10.87,28.08s-13.69,28.78-16.16,28.78c-1.33,0-10.08,4.38-17.75,8.36-6.4,3.33-12.08,6.39-12.08,6.39l-32.3,1.75c-10.64-28-3.29-32.9,1.95-33.37a11.31,11.31,0,0,1,4,.38l7-44.22V533.18s2.1-26.33,6.66-34.75a79.64,79.64,0,0,0,6.67-17.56s-4.21-8.07-5.27-13.34a95.45,95.45,0,0,1-1.4-11.22s-4.91.69-6.31-39.33,28.43-50.89,28.43-50.89c35.8-10.88,56.51,19.3,70.9,41.07S768.74,475.61,768.74,475.61Z"
     transform="translate(-19.44 -93.81)"
     fill="#4c4981"
     id="path92" />
  <path
     d="M712.37,628.58c-6.4,3.33-12.08,6.38-12.08,6.38L668,636.72c-10.65-28-3.3-32.91,1.94-33.37,7.73,5.58,17.78,13.25,18.42,15.82S702.05,625.75,712.37,628.58Z"
     transform="translate(-19.44 -93.81)"
     opacity="0.1"
     id="path94" />
  <path
     d="M711.32,629.63c-6.4,3.33-12.08,6.39-12.08,6.39l-32.3,1.75c-10.64-28-3.29-32.9,1.95-33.37,7.73,5.59,17.78,13.25,18.42,15.82S701,626.8,711.32,629.63Z"
     transform="translate(-19.44 -93.81)"
     fill="#4c4981"
     id="path96" />
  <g
     opacity="0.1"
     id="g102">
    <path
       d="M715.52,348.79c-3.38,3.75-9,2-13.42,0l-7.6-3.42a16.68,16.68,0,0,1-5.57-3.47c-1.69-1.8-2.65-4.27-3.7-6.59A58.07,58.07,0,0,0,676.86,322c-2.38-2.83-5.45-5.55-8.91-5.22-5.84.57-10,9.54-15.6,7.65-1.69-.57-4.18-11.38-5.14-13.37-2.28-4.7-3.55-3.34-7.71-1.38-7.88,3.72-16.43,7-25.1,5.31a13.22,13.22,0,0,1-7.86-4.13,26,26,0,0,0-2.67-3.27c-2.1-1.79-5.1-1.55-7.56-.46s-4.6,2.89-7,4.13a16.78,16.78,0,0,1-10.88,1.5,15.19,15.19,0,0,1-8.88,3.49,17,17,0,0,0,18,1.68c2.4-1.24,4.55-3.05,7-4.13s5.47-1.33,7.57.46a25.11,25.11,0,0,1,2.66,3.27,13.25,13.25,0,0,0,7.87,4.13c8.66,1.65,17.21-1.59,25.1-5.31,4.15-2,5.43-3.32,7.7,1.38,1,2,3.45,12.8,5.15,13.37,5.61,1.89,9.76-7.08,15.6-7.65,3.46-.33,6.52,2.39,8.9,5.22A57.39,57.39,0,0,1,683.47,342c1.06,2.32,2,4.79,3.7,6.59a17,17,0,0,0,5.57,3.47l7.6,3.42c4.41,2,10,3.73,13.42,0a9.56,9.56,0,0,0,2-7C715.69,348.58,715.61,348.69,715.52,348.79Z"
       transform="translate(-19.44 -93.81)"
       id="path98" />
    <path
       d="M715.35,316.72a29.28,29.28,0,0,0-1.77,6.71,35.5,35.5,0,0,0,1.58-5.43C715.24,317.58,715.3,317.15,715.35,316.72Z"
       transform="translate(-19.44 -93.81)"
       id="path100" />
  </g>
  <path
     d="M518.12,750.45s-6.32,16.85-18.61,17.2Z"
     transform="translate(-19.44 -93.81)"
     opacity="0.1"
     id="path104" />
  <path
     d="M524.51,716.46a107.89,107.89,0,0,0-8-14l-1.32-1.93.88,0a4.3,4.3,0,0,0,3.05-1h0c7.78-6.51-8.15-44-16.79-44.62-5.94-.46-17.56-.9-25.4-1.16l-2.14-.07c-.08-.42-.17-.83-.27-1.26,0,0-9.87-2.47-14.8-7.77S448.8,633,448.8,633s-4.87-2-7.22-4.71a4.3,4.3,0,0,1-1.23-2.71c0-3.4-11.86-13.57-14.83-16.06l-.66-.56s-1.06-5.31-4.93-6.36c-1.6-.44-3.52-2.94-5.19-5.72a80.17,80.17,0,0,1-4.32-8.42s-4.86-5.68-8.73-11.23c-1.06-1.52-2.06-3-2.84-4.44a12,12,0,0,1-1.81-4.49c-.35-4.94-6-5.3-6-5.3s-4.92-9.9-4.92-12.38-7.4-7.42-7.4-7.42l-11.62-13.08s3.17-9.19-8.1-16.26-12.68-27.23-12.68-27.23l-9.9-21.48-1-2.2a6.05,6.05,0,0,0,2.18-2.09,6.41,6.41,0,0,0,.63-5.34,23.78,23.78,0,0,0-3.58-7.46c-.1-.15-.2-.28-.29-.4-.62-.85-1.05-1.33-1.05-1.33a4.38,4.38,0,0,0,1.1-1c.08-.11.16-.21.24-.34.73-1.11,1.26-3,0-5.59a10.72,10.72,0,0,0-.64-1.18c-3.52-5.65-4.22-19.09-4.22-19.09l-8.46-23.69s-1.11-14.34-8.85-23.4a20.6,20.6,0,0,0-7.34-5.59,16.52,16.52,0,0,0-6.79-5.24l-.12-.05c-.14-.87-.26-1.75-.37-2.61s-.17-1.43-.24-2.15a54.9,54.9,0,0,0,7.52.51,54,54,0,0,0,7.34-.49,55.34,55.34,0,0,0,22.17-8A56.31,56.31,0,0,0,359.54,314v0a56.81,56.81,0,0,0,1.58-13.32,55.59,55.59,0,0,0-1.16-11.4c0-.24-.1-.48-.15-.72-.29-1.38-.65-2.74-1.05-4.08-.09-.29-.19-.58-.27-.87a27.51,27.51,0,0,0,8,.92,4.75,4.75,0,0,0,2.65-.74,5.53,5.53,0,0,0,1.53-2.35c.48-1.16.95-2.36,1.34-3.58a2.76,2.76,0,0,0,.08-.27,0,0,0,0,1,0,0,23.73,23.73,0,0,0,.82-3.48,16,16,0,0,0,.18-2.92c0-.51,0-1-.07-1.52a10.56,10.56,0,0,0-.37-2c0,.16,0,.33-.06.5a9.88,9.88,0,0,0-.54-1.4c-2.83-5.87-11-8.17-12.68-14.46-.81-3-.07-6.82-2.46-8.84a10.35,10.35,0,0,0-3.66-1.53c-5.23-1.67-9.32-5.68-13.85-8.79a28,28,0,0,0-4.79-2.62c-3.5-1.45-7.29-2-10.65-.4-.94.44-1.81,1-2.75,1.5a16,16,0,0,1-8.77,1.08c-2-.19-3.94-.56-5.86-.84-4.9-.75-10.64-.7-13.91,3-1.23,1.4-2,3.24-3.47,4.37-2.71,2.09-6.54,1.08-9.89.41s-7.71-.39-9,2.77a27.61,27.61,0,0,0-.7,3c-.77,2.72-3.33,4.58-6,5.47s-5.52,1-8.28,1.52a31,31,0,0,0-12.45,5.26,12.15,12.15,0,0,0-4,4.47c0-.13-.08-.25-.13-.37a5.17,5.17,0,0,0-.39,2.39,4.51,4.51,0,0,0,.09,1.41,6.33,6.33,0,0,0,.32,1,13.62,13.62,0,0,1,.76,2.14,4.61,4.61,0,0,1,.11.89,6.54,6.54,0,0,1-1,3.41c-.2.35-.42.69-.65,1a39.12,39.12,0,0,1-2.65,3.2,13,13,0,0,0-2.1,3.24l-.09-.07-.11-.16a6.58,6.58,0,0,0-.49,2.78,4.35,4.35,0,0,0,.36,2.12,3.77,3.77,0,0,0,.6.91c.86,1,2.15,1.46,3.2,2.22,2.91,2.13,3.55,6.16,3.72,9.77a83,83,0,0,1-.82,16c0,.05,0,.1,0,.15-.31,2.08-1.15,5.94-1.41,9.78v0l0,.45a.38.38,0,0,0,0-.1c0,.46,0,.93,0,1.38,0,3.06.41,5.95,2,7.68l0,0a4.72,4.72,0,0,0,1.57,1.16c1,.45,2.38.11,3.93-.61q-.93,2.34-1.93,4.63h0c-.11.27-.23.54-.34.8q-1.18,2.7-2.44,5.27a27.53,27.53,0,0,0-14.64,1.56s-2.12,16.26-9.16,18-32.73,23.34-32.73,23.34l-37.12,37.26-.92.92s-.93,1.3-2.45,3.52c-5.68,8.21-19.59,28.81-24.31,40-1.76,4.16-3.58,10.78-5.27,18.17-4,17.7-7.29,39.81-7,43.33h0c.3,4.27-1.49,43.85-.86,59.37a33.55,33.55,0,0,0,.5,5.33,45.83,45.83,0,0,1,.48,7.68c.06,5.1-.08,12-.3,19.47-.62,20.17-1.93,43.91-1.93,43.91s6,17.34,9.16,22.56c.58,1,1.07,1.53,1.4,1.48,2.11-.35,8.1,14.5,8.1,14.5s2.34-.09,6.4-.36l1.2-.09c.31.69.63,1.37,1,2.06s.68,1.4,1,2.11.65,1.35,1,2c4.08,8.21,8.66,16.06,11.59,16.87,6.34,1.77,23.6,10.61,25,14.5S196.34,750,206.55,750l4.48,0h.54l0,1.19c0,.21,0,.42,0,.62a10.15,10.15,0,0,0,9.92,9.3l7.71.12h.33l-.23,1.74-.05.37-.23,1.74-2.11,16h.72l21.11.34,2.22,0v-.67c1-.31,2.06-.6,3.09-.9l1.18-.33c19-5.45,38-10.63,57.18-12.11a128,128,0,0,1,19.19-.14c1,.07,2,.16,3,.25,20.62,2,40.65,9.25,60.67,15.37h2.43l6.35.06h1v0l20.31.19h2.05l.42-16.55v-.39l0-1.73,6.68.12a10.1,10.1,0,0,0,7.8-3.5h0a10,10,0,0,0,2.25-4.52,10.12,10.12,0,0,0,.23-2.15v-1.49c1.86,2.94,3.65,8-.69,13.1l0,0a20.53,20.53,0,0,1-4.22,3.65c-6.43,4.31-9.25,7.3-10.4,9.26h0c-1.3,2.21-.51,3.11-.51,3.11H487.5c14.22-6.12,28-13.93,42.19-20.05a.55.55,0,0,0,.15-.08h0l1-.41C534.16,754,536.07,730.45,524.51,716.46ZM287.32,538.68l.58-1.48,1.11-2.82c.12.17.25.36.36.54,11,16.18,21.05,30.92,21.05,30.92l1.85,2.08c-1,.12-2.07.24-3.14.34-3.78.4-7.68.76-9.27.76-3.53,0-13.38-2.47-13.38-2.47l-5.15-2.35a28.87,28.87,0,0,0-.95-6.43h0l-.24-.77,6.09-15.51Zm95.28,97.16C391.26,642,402,649,412.73,655.72l-4.9.11-26.05.61c-9.71-2.16-24-5.44-27.7-6.81-1.79-.67-9.59-2.8-19.43-5.4-6.86-1.81-14.71-3.86-22.17-5.78l-15.17-3.9a2.79,2.79,0,0,0-.62-1.19,29.22,29.22,0,0,1-4.17-7.56,47.34,47.34,0,0,1-2.17-7.29s-9-1-10.53-4c-.47-.86-.27-1.89,1-3.11A8.72,8.72,0,0,0,283,608.4a.06.06,0,0,1,0,0,10.8,10.8,0,0,0,.53-1.64,13.68,13.68,0,0,0,0-5.26h0a17.63,17.63,0,0,0-.93-3.31,61.46,61.46,0,0,1,11.28,3.76c4.25,2,11.77,2.49,18.61,2.48,4.7,0,9.1-.26,11.85-.46l.48,0c1.58-.13,2.52-.23,2.52-.23s3,.53,7.32,1.07c2.76.32,6.08.66,9.54.86,1.32.09,2.66.15,4,.18l2.31,2.28.63.61c6.74,6.54,13.67,12.93,20.26,18.46C375.29,630.38,379.06,633.34,382.6,635.84Z"
     transform="translate(-19.44 -93.81)"
     fill="url(#6a61e424-f11c-4682-b27d-5ab95be8b857)"
     id="path106" />
  <polygon
     points="350.2 565.38 440.76 563.27 472.35 580.82 477.27 621.89 394.08 598.02 350.2 565.38"
     fill="#aea4b2"
     id="polygon108" />
  <polygon
     points="350.2 565.38 440.76 563.27 472.35 580.82 477.27 621.89 394.08 598.02 350.2 565.38"
     opacity="0.05"
     id="polygon110" />
  <path
     d="M317,596c1.05,0,9.48,10.53,9.48,10.53s31.94,5.62,39.66-1.4S351,574.59,351,574.59l-20.36,1.06-16.5,9.82Z"
     transform="translate(-19.44 -93.81)"
     fill="#ffc4d0"
     id="path112" />
  <path
     d="M270.3,562.66l15.45,7s9.83,2.46,13.34,2.46,18.25-1.76,18.25-1.76l13.34,5.27s-11.94,22.46-4.21,30.88c0,0-24.22,2.46-33.35-1.75s-21.41-5.62-21.41-5.62Z"
     transform="translate(-19.44 -93.81)"
     fill="#575989"
     id="path114" />
  <path
     d="M272.41,563l15.44,7s9.83,2.46,13.34,2.46,18.26-1.76,18.26-1.76L332.78,576s-11.93,22.46-4.21,30.89c0,0-24.22,2.45-33.34-1.76s-21.42-5.62-21.42-5.62Z"
     transform="translate(-19.44 -93.81)"
     opacity="0.05"
     id="path116" />
  <path
     d="M305.75,396.63S204,373.46,222.22,370.3c11.64-2,22.29-28.33,28.46-47.11,3.52-10.66,5.58-18.88,5.58-18.88s58.62,27.38,45.28,36.51c-5.12,3.51-5.69,12.54-4.44,22.34C299.09,378.91,305.75,396.63,305.75,396.63Z"
     transform="translate(-19.44 -93.81)"
     fill="#ffc4d0"
     id="path118" />
  <path
     d="M405.09,759.58l-.07,1.78v0l-.2,4.54-.09,2.1-.63,15v.36l0,.85,0,.35v0l-3.24,0-.09,0h0l-2.89,0v-.05l-1.05.05,0-1.16-1.39-.43c-20-6.12-40.05-13.38-60.67-15.37-1-.09-2-.18-3-.25a128,128,0,0,0-19.19.14c-19.16,1.48-38.22,6.66-57.18,12.11l-1.18.33c-1,.3-2.06.59-3.09.9l.25-15.35,0-2.11,0-2.74,5.61,0H258l54.47-.38,22.17-.16Z"
     transform="translate(-19.44 -93.81)"
     fill="#5f546f"
     id="path120" />
  <path
     d="M258.72,755.71l-.71,4.9h0l-.41,2.89-.29,2.08v0l-2,14-1.18.33c-1,.3-2.06.59-3.09.9v.67l-2.22,0-4.33,1.24h-17l.21-1.58,2.11-16v0l.28-2.09.56-4.17,27-3Z"
     transform="translate(-19.44 -93.81)"
     opacity="0.1"
     id="path122" />
  <path
     d="M257.67,755.71l0,.12-.69,4.79-.41,2.86-.29,2.11L254.12,780c-1,.3-2.06.59-3.09.9v.67l-2.22,0-4.33,1.24-1,.28h0l-17.06-.28,2.33-17.61L229,763l.22-1.75h0l.31-2.41Z"
     transform="translate(-19.44 -93.81)"
     fill="#5f546f"
     id="path124" />
  <polygon
     points="406.36 668.57 406.29 672.48 406.26 674.58 406.26 674.6 406.01 689.44 406.01 689.63 384.62 690.48 380.71 690.64 378.37 690.73 377.31 690.77 377.27 689.62 377.26 689.2 376.75 674.12 376.75 674.1 376.68 671.99 376.52 667.17 377.58 667.22 384.53 667.54 385.58 667.6 406.36 668.57"
     opacity="0.1"
     id="polygon126" />
  <polygon
     points="407.41 668.57 407.35 672.5 407.31 674.6 406.94 689.45 406.89 691.04 384.6 690.83 381.27 690.81 381.25 690.81 378.37 690.77 378.37 690.73 378.33 689.93 378.31 689.21 377.8 674.12 377.74 672.01 377.58 667.22 377.58 667.17 385.58 667.54 407.41 668.57"
     fill="#5f546f"
     id="polygon128" />
  <path
     d="M257.67,755.71l0,.12-.69,4.79-.41,2.86-.29,2.11L254.12,780c-1,.3-2.06.59-3.09.9v.67l-2.22,0-4.33,1.24-1,.28h0l-17.06-.28,2.33-17.61L229,763l.22-1.75h0l.31-2.41Z"
     transform="translate(-19.44 -93.81)"
     fill="#fff"
     opacity="0.1"
     id="path130" />
  <polygon
     points="407.41 668.57 407.35 672.5 407.31 674.6 406.94 689.45 406.89 691.04 384.6 690.83 381.27 690.81 381.25 690.81 378.37 690.77 378.37 690.73 378.33 689.93 378.31 689.21 377.8 674.12 377.74 672.01 377.58 667.22 377.58 667.17 385.58 667.54 407.41 668.57"
     fill="#fff"
     opacity="0.1"
     id="polygon132" />
  <path
     d="M301.54,340.82c-5.12,3.51-5.69,12.54-4.44,22.34a55.85,55.85,0,0,1-46.42-40c3.52-10.66,5.58-18.88,5.58-18.88S314.88,331.69,301.54,340.82Z"
     transform="translate(-19.44 -93.81)"
     opacity="0.1"
     id="path134" />
  <path
     d="M360.16,305.72a55.75,55.75,0,1,1-2.35-16.08A55.81,55.81,0,0,1,360.16,305.72Z"
     transform="translate(-19.44 -93.81)"
     fill="#ffc4d0"
     id="path136" />
  <path
     d="M357.81,289.64c-4.46-1.11-8.89-2.66-13.46-2.7a4.38,4.38,0,0,0-3,.75c-1.31,1.11-1.12,3.12-1.27,4.83a9.86,9.86,0,0,1-5,7.7c-3.58,2-8.25,1.64-11.36,4.28-3.95,3.37-3.29,9.58-1.93,14.59a19,19,0,0,1,1,6.08,8.78,8.78,0,0,1-15.68,4.92c-2.82-3.59-2.44-8.63-3.19-13.12A24.69,24.69,0,0,0,297,303.55a13.33,13.33,0,0,0-6.08-3.73,7,7,0,0,0-6.69,1.73C282,304,282.39,307.7,282.1,311a21.1,21.1,0,0,1-8.7,15.2c-4.69,3.33-10.51,4.56-15.91,6.55a9.7,9.7,0,0,0-1.54.78,55.82,55.82,0,1,1,101.86-43.89Z"
     transform="translate(-19.44 -93.81)"
     opacity="0.1"
     id="path138" />
  <path
     d="M256.43,331.7c5.41-2,11.22-3.22,15.92-6.55a21.15,21.15,0,0,0,8.7-15.21c.28-3.29-.08-7,2.16-9.45a7,7,0,0,1,6.68-1.72A13.23,13.23,0,0,1,296,302.5a24.76,24.76,0,0,1,6.94,13.41c.75,4.5.37,9.54,3.19,13.13a8.79,8.79,0,0,0,15.68-4.93,19.23,19.23,0,0,0-1-6.07c-1.36-5-2-11.22,1.93-14.59,3.1-2.64,7.78-2.32,11.36-4.28a9.91,9.91,0,0,0,5-7.71c.15-1.71-.05-3.72,1.26-4.82a4.47,4.47,0,0,1,3-.76c7.55.07,14.71,4.24,22.25,3.82a4.73,4.73,0,0,0,2.64-.75,5.4,5.4,0,0,0,1.53-2.33c2-4.64,3.57-10.05,1.38-14.59-2.82-5.82-11-8.1-12.64-14.35-.8-3-.07-6.77-2.46-8.77a10.17,10.17,0,0,0-3.64-1.53c-5.21-1.65-9.29-5.64-13.81-8.71s-10.43-5.32-15.38-3c-1,.44-1.81,1-2.75,1.49-4.45,2.15-9.69,1-14.58.23s-10.61-.68-13.87,3c-1.22,1.39-2,3.21-3.46,4.34-2.7,2.07-6.53,1.07-9.86.4s-7.68-.38-9,2.76a24.69,24.69,0,0,0-.71,3c-.76,2.69-3.31,4.54-6,5.42s-5.5,1-8.26,1.5a31.06,31.06,0,0,0-12.4,5.23c-2.59,1.85-5.11,4.73-4.43,7.84.24,1.09.85,2.06,1.08,3.15.69,3.2-2,6-4.16,8.46s-4,6.3-1.83,8.76c.86,1,2.15,1.44,3.2,2.2,2.89,2.12,3.53,6.12,3.7,9.71a81.7,81.7,0,0,1-.83,16c-.69,4.53-3.92,17.56,2.06,20.25C244.62,341,252.84,333,256.43,331.7Z"
     transform="translate(-19.44 -93.81)"
     fill="#ae757a"
     id="path140" />
  <path
     d="M294.87,577.05s-13,.7-11.93,5.62S294.87,577.05,294.87,577.05Z"
     transform="translate(-19.44 -93.81)"
     fill="none"
     id="path142" />
  <path
     d="M529.86,762.08h0a.55.55,0,0,1-.15.08c-14.24,6.12-28,13.93-42.19,20.05-1.26.54-2.52,1.07-3.8,1.59a111.47,111.47,0,0,1-27.58,7.66,103,103,0,0,1-29.4-.74c.32-3.88,1.08-9.49,2.87-11.62h0c1.57-1.86,4.35-4.35,9.19-7.58a17.43,17.43,0,0,0,5.43-5.33l0,0a9.83,9.83,0,0,0,.46-9.46,17.28,17.28,0,0,0-1-1.83,14.9,14.9,0,0,0-2.12-2.65H269.25s-40.71-.28-57.62-.35h-5.56c-10.18,0-34.06-3.86-35.46-7.72s-18.6-12.64-24.92-14.4c-3.16-.87-8.26-9.93-12.55-18.75-.69-1.4-1.35-2.79-2-4.15-.32-.67-.63-1.33-.92-2l0-.07c-1.26-2.74-2.35-5.23-3.17-7.15l-.42-1c-.08-.19-.16-.37-.22-.54s-.17-.41-.26-.59c0,0,0,0,0,0l-.23-.56c-.36-.85-.56-1.34-.56-1.34l156.9-60s5,1.27,12.44,3.16c.61.16,1.23.32,1.88.47l15.93,4.08c7.52,1.94,15.37,4,22.17,5.76,9.39,2.48,16.76,4.48,18.49,5.14,3.63,1.36,18,4.62,27.64,6.76h0c5.3,1.18,9.19,2,9.19,2s12.4,2.42,28.61,5.71l3.15.64,4.2.85c.84.16,1.69.34,2.54.52h0c2.88.58,5.81,1.18,8.77,1.8l6.36,1.32c6.8,1.41,13.54,2.84,19.78,4.21l4.84,1.06,1.87.41,1.85.41c7.18,1.62,13.17,3.06,17,4.13a26.35,26.35,0,0,1,3.86,1.42c8.46,3.83,15.65,11.85,20.88,19.25A107.73,107.73,0,0,1,523,718.51C534,731.68,532.82,753.4,529.86,762.08Z"
     transform="translate(-19.44 -93.81)"
     fill="#aea4b2"
     id="path144" />
  <path
     d="M264,675s-6.67,29.49-27.38,40S264,675,264,675Z"
     transform="translate(-19.44 -93.81)"
     opacity="0.1"
     id="path146" />
  <path
     d="M308.21,693.23s-22.46,13-19.3,22.47Z"
     transform="translate(-19.44 -93.81)"
     opacity="0.1"
     id="path148" />
  <path
     d="M510.75,730.44s-6.32,26.68-20,27Z"
     transform="translate(-19.44 -93.81)"
     opacity="0.1"
     id="path150" />
  <polygon
     points="407.41 668.57 407.32 674.6 385.3 674.25 377.8 674.12 236.82 671.78 231.84 671.7 209.32 671.32 210.15 665.06 238.23 661.9 237.53 666.81 385.66 665.77 385.58 667.55 407.41 668.57"
     opacity="0.1"
     id="polygon152" />
  <path
     d="M433.44,766.43,221,762.9a10.1,10.1,0,0,1-9.92-9.85l-.12-4.71H443.7v8A10.1,10.1,0,0,1,433.44,766.43Z"
     transform="translate(-19.44 -93.81)"
     fill="#ccccd8"
     id="path154" />
  <path
     d="M281.89,648s-8.08,6.32-11.94,11.58S245,674.28,245,674.28c-26.72,27.86-89.12,35-111.89,36.7-.69-1.4-1.35-2.79-2-4.15-3.35-7.17-5.82-13.24-5.82-13.24l156.9-60,12.43,3.16a25.32,25.32,0,0,0,2.31,3.51,2.76,2.76,0,0,1,.62,1.18C298.77,646.15,281.89,648,281.89,648Z"
     transform="translate(-19.44 -93.81)"
     opacity="0.1"
     id="path156" />
  <path
     d="M296.55,637.2c1.17,4.73-15.71,6.55-15.71,6.55s-8.08,6.31-11.94,11.58S244,670.07,244,670.07c-27.09,28.24-90.88,35.18-112.82,36.76-4.78.35-7.58.44-7.58.44s-6-14.74-8.07-14.39S105,669,105,669s3.51-63.18,1.75-70.56.7-59.32.36-64.23,6.32-47,12.28-61.08S146.05,430,146.05,430L184,392.07s25.62-21.42,32.64-23.17,9.12-17.9,9.12-17.9c16.85-7,36.86,7.72,36.86,7.72,17.55-.35,15.79,2.81,15.79,2.81l10.19,2.11.26,2.83L301.54,504l-15,38-7.16,18.19a28.68,28.68,0,0,1-.7,18.6c-3.86,9.83,2.8,21.41,2.8,21.41s4.21,8.79-1.4,14,9.48,7,9.48,7,1.76,9.13,6.32,14.75A3,3,0,0,1,296.55,637.2Z"
     transform="translate(-19.44 -93.81)"
     fill="#575989"
     id="path158" />
  <path
     d="M222.22,597.06s-7,13.34,5.61,15.44,45.28-1.4,49.49-1.4S222.22,597.06,222.22,597.06Z"
     transform="translate(-19.44 -93.81)"
     opacity="0.1"
     id="path160" />
  <path
     d="M220.81,552.48c1.76,3.16,39.67,35.1,52.65,40.72Z"
     transform="translate(-19.44 -93.81)"
     opacity="0.1"
     id="path162" />
  <path
     d="M247.84,530s19,34,25.27,39.32,1.05-19,1.05-19Z"
     transform="translate(-19.44 -93.81)"
     opacity="0.1"
     id="path164" />
  <path
     d="M194.49,433.14s48.08,31.24,46,53.35S194.49,433.14,194.49,433.14Z"
     transform="translate(-19.44 -93.81)"
     opacity="0.1"
     id="path166" />
  <path
     d="M137.62,533.88s-12.28,97.23,85.3,95.47C222.92,629.35,143.24,599.87,137.62,533.88Z"
     transform="translate(-19.44 -93.81)"
     opacity="0.1"
     id="path168" />
  <path
     d="M514.61,702.72c-14.05-.36-53.7-14.75-53.7-14.75l.23-1.09L467.57,656l8,.27c7.82.26,19.39.7,25.32,1.14C510.4,658.13,528.65,703.06,514.61,702.72Z"
     transform="translate(-19.44 -93.81)"
     fill="#ffc4d0"
     id="path170" />
  <path
     d="M288.82,366.47,301.54,504l-15,38c-11.68-17.08-24.88-36.32-28.57-41.48-7-9.83-21.41-57.91-21.41-57.91s-4.21-42.48,24.22-64.94C273.12,368,282.33,365.8,288.82,366.47Z"
     transform="translate(-19.44 -93.81)"
     opacity="0.1"
     id="path172" />
  <path
     d="M468.26,677.05a35.55,35.55,0,0,1-10.51,13s-18.34-10.62-39.14-23.43C434.17,669.79,453.25,673.71,468.26,677.05Z"
     transform="translate(-19.44 -93.81)"
     opacity="0.1"
     id="path174" />
  <path
     d="M463,688l-1.87-1.09L467.57,656l8,.27C479.82,676.2,463,688,463,688Z"
     transform="translate(-19.44 -93.81)"
     opacity="0.1"
     id="path176" />
  <path
     d="M304.35,371S292.42,353.1,264,375.57s-24.22,64.94-24.22,64.94,14.39,48.08,21.41,57.91S309.62,569,309.62,569s43.52,49.49,71.95,69.5S460.9,688,460.9,688s17.55-12.29,12.29-33c0,0-9.83-2.45-14.74-7.72s-10.89-11.58-10.89-11.58-8.42-3.51-8.42-7.37-15.44-16.5-15.44-16.5-1.06-5.27-4.92-6.32-9.48-14-9.48-14-13-15.09-13.33-20-6-5.26-6-5.26-4.92-9.83-4.92-12.29-7.37-7.37-7.37-7.37l-11.58-13s3.16-9.12-8.07-16.14-12.64-27-12.64-27l-10.88-23.52a6.18,6.18,0,0,0,2.81-7.37,24.71,24.71,0,0,0-4.92-9.13s4.22-2.45.7-8.07-4.21-18.95-4.21-18.95l-8.42-23.52S318.74,377.32,304.35,371Z"
     transform="translate(-19.44 -93.81)"
     fill="#575989"
     id="path178" />
  <path
     d="M333.84,528.26s36.5-9.48,25.62-1.76S333.84,528.26,333.84,528.26Z"
     transform="translate(-19.44 -93.81)"
     opacity="0.1"
     id="path180" />
  <path
     d="M328.92,567.92s27.73-4.91,21.41,1.41S328.92,567.92,328.92,567.92Z"
     transform="translate(-19.44 -93.81)"
     opacity="0.1"
     id="path182" />
  <path
     d="M274.16,403.65s37.21,9.83,46,30.54Z"
     transform="translate(-19.44 -93.81)"
     opacity="0.1"
     id="path184" />
  <g
     opacity="0.1"
     id="g194">
    <path
       d="M239.52,297.54c-.17-3.58-.81-7.59-3.7-9.7-1-.77-2.34-1.23-3.2-2.2l-.12-.16c-.69,1.8-.76,3.66.47,5.07.86,1,2.15,1.44,3.2,2.2,2.06,1.51,3,4,3.39,6.56C239.54,298.72,239.54,298.13,239.52,297.54Z"
       transform="translate(-19.44 -93.81)"
       id="path186" />
    <path
       d="M237.88,270.18a7.55,7.55,0,0,0,.44,1.29,5.32,5.32,0,0,0,.29-3.06,6.83,6.83,0,0,0-.43-1.3A5.27,5.27,0,0,0,237.88,270.18Z"
       transform="translate(-19.44 -93.81)"
       id="path188" />
    <path
       d="M371.69,272.93a29.21,29.21,0,0,1-2.34,8.08,5.41,5.41,0,0,1-1.52,2.33,4.8,4.8,0,0,1-2.64.74c-7.54.42-14.7-3.74-22.25-3.82a4.45,4.45,0,0,0-3,.76c-1.31,1.11-1.11,3.12-1.26,4.82a9.9,9.9,0,0,1-5,7.71c-3.58,2-8.26,1.64-11.36,4.28s-3.38,7.31-2.61,11.61a9.12,9.12,0,0,1,3-6.69c3.1-2.65,7.78-2.32,11.36-4.28a9.91,9.91,0,0,0,5-7.71c.15-1.71-.05-3.72,1.26-4.82a4.41,4.41,0,0,1,3-.76c7.55.07,14.71,4.24,22.25,3.82a4.73,4.73,0,0,0,2.64-.75,5.4,5.4,0,0,0,1.53-2.33C371.44,281.81,372.9,277.11,371.69,272.93Z"
       transform="translate(-19.44 -93.81)"
       id="path190" />
    <path
       d="M315.3,326.38a9,9,0,0,1-9.54-3c-2.82-3.59-2.44-8.62-3.19-13.13a24.86,24.86,0,0,0-6.94-13.41,13.36,13.36,0,0,0-6.09-3.73,7,7,0,0,0-6.68,1.73c-2.24,2.42-1.88,6.15-2.16,9.44a21.13,21.13,0,0,1-8.7,15.21c-4.7,3.33-10.51,4.56-15.92,6.56-3.59,1.33-11.81,9.3-15.33,7.71-1.76-.79-2.71-2.47-3.18-4.56-.15,4.18.53,8.13,3.53,9.48,3.52,1.58,11.74-6.39,15.33-7.72,5.41-2,11.22-3.22,15.92-6.56a21.11,21.11,0,0,0,8.7-15.2c.28-3.29-.08-7,2.16-9.45a7,7,0,0,1,6.68-1.72,13.29,13.29,0,0,1,6.09,3.72,24.82,24.82,0,0,1,6.94,13.42c.75,4.5.37,9.53,3.19,13.12a8.78,8.78,0,0,0,15.68-4.92,13.57,13.57,0,0,0-.47-4A9,9,0,0,1,315.3,326.38Z"
       transform="translate(-19.44 -93.81)"
       id="path192" />
  </g>
  <path
     d="M77.21,533.75A9.21,9.21,0,0,0,76,536.09c-.08.2-.16.43-.23.66a1.84,1.84,0,0,0-.43-.15,6,6,0,0,0-2-.17c0-.25,0-.52,0-.8.08-2.87-.26-6.87-3-5.18s-.75,4.35.94,6.11l.44.43c-1.55,1.11-1.84,3.67-2.1,6.34s-2.53,5.61-4,7.27l-.42.47a5.49,5.49,0,0,0-4.39-1.13c-.06-.24-.13-.48-.2-.74-1.22-4.41-3.76-12.05-7-13.72l.42-.54c1.38-1.8,2.92-4.47.64-5.15s-2.49,2.32-2.36,4.56c0,.28,0,.55.06.8A3.36,3.36,0,0,0,50,536.32l-.35-.42c-1.85-2.19-5.25-5.65-6.28-3-1,2.44,2,5.61,4.14,7.45l.13.11c-1.42,5.73,4.75,10.41,8.07,12.45l.43.26c-4.58,5.4-7.41,15.51-7.41,15.51l12.83,2.29s8.5-7.33,7.41-14.22l.09,0c8.49-1.7,10.42-10.76,9.1-16.14l.15-.06a9.47,9.47,0,0,0,3.93-3C84.63,534.23,79.65,530.51,77.21,533.75Z"
     transform="translate(-19.44 -93.81)"
     fill="#6c63ff"
     id="path196" />
  <path
     d="M77.21,533.75A9.21,9.21,0,0,0,76,536.09c-.08.2-.16.43-.23.66a1.84,1.84,0,0,0-.43-.15,6,6,0,0,0-2-.17c0-.25,0-.52,0-.8.08-2.87-.26-6.87-3-5.18s-.75,4.35.94,6.11l.44.43c-1.55,1.11-1.84,3.67-2.1,6.34s-2.53,5.61-4,7.27l-.42.47a5.49,5.49,0,0,0-4.39-1.13c-.06-.24-.13-.48-.2-.74-1.22-4.41-3.76-12.05-7-13.72l.42-.54c1.38-1.8,2.92-4.47.64-5.15s-2.49,2.32-2.36,4.56c0,.28,0,.55.06.8A3.36,3.36,0,0,0,50,536.32l-.35-.42c-1.85-2.19-5.25-5.65-6.28-3-1,2.44,2,5.61,4.14,7.45l.13.11c-1.42,5.73,4.75,10.41,8.07,12.45l.43.26c-4.58,5.4-7.41,15.51-7.41,15.51l12.83,2.29s8.5-7.33,7.41-14.22l.09,0c8.49-1.7,10.42-10.76,9.1-16.14l.15-.06a9.47,9.47,0,0,0,3.93-3C84.63,534.23,79.65,530.51,77.21,533.75Z"
     transform="translate(-19.44 -93.81)"
     opacity="0.1"
     id="path198" />
  <path
     d="M51.68,537.45l-1.49,4.38a22.26,22.26,0,0,1-1.89-1.51c-2.1-1.84-5.09-5-4.14-7.45,1-2.62,4.43.84,6.28,3C51.19,536.77,51.68,537.45,51.68,537.45Z"
     transform="translate(-19.44 -93.81)"
     fill="#6c63ff"
     id="path200" />
  <path
     d="M54.85,534.94c-.76,1-1.46,1.72-1.46,1.72a22.09,22.09,0,0,1-.27-2.31c-.12-2.24.11-5.23,2.36-4.56S56.22,533.14,54.85,534.94Z"
     transform="translate(-19.44 -93.81)"
     fill="#6c63ff"
     id="path202" />
  <path
     d="M74.18,535.63c0,1.45-.18,2.6-.18,2.6a17.61,17.61,0,0,1-1.87-1.67c-1.7-1.76-3.57-4.48-.94-6.11S74.26,532.76,74.18,535.63Z"
     transform="translate(-19.44 -93.81)"
     fill="#6c63ff"
     id="path204" />
  <path
     d="M83,537.52a9.59,9.59,0,0,1-3.93,3,11.22,11.22,0,0,1-1.32.48L76,538.5a17,17,0,0,1,.73-2.41A9.21,9.21,0,0,1,78,533.75C80.43,530.51,85.42,534.23,83,537.52Z"
     transform="translate(-19.44 -93.81)"
     fill="#6c63ff"
     id="path206" />
  <path
     d="M50.44,535.9c.75.87,1.24,1.55,1.24,1.55l-1.49,4.38a22.26,22.26,0,0,1-1.89-1.51A8.63,8.63,0,0,1,50,536.46C50.14,536.26,50.3,536.07,50.44,535.9Z"
     transform="translate(-19.44 -93.81)"
     opacity="0.1"
     id="path208" />
  <path
     d="M54.85,534.94c-.76,1-1.46,1.72-1.46,1.72a22.09,22.09,0,0,1-.27-2.31A3,3,0,0,1,54.85,534.94Z"
     transform="translate(-19.44 -93.81)"
     opacity="0.1"
     id="path210" />
  <path
     d="M62.22,552.36,58.49,554a22.2,22.2,0,0,1-2-1.12c-3.91-2.41-11.79-8.48-6.51-15.63s9.69,5.68,11.42,12C61.94,551.07,62.22,552.36,62.22,552.36Z"
     transform="translate(-19.44 -93.81)"
     fill="#6c63ff"
     id="path212" />
  <path
     d="M72.13,536.56a3,3,0,0,1,2.05-.93c0,1.45-.18,2.6-.18,2.6A17.61,17.61,0,0,1,72.13,536.56Z"
     transform="translate(-19.44 -93.81)"
     opacity="0.1"
     id="path214" />
  <path
     d="M79.11,540.5a11.22,11.22,0,0,1-1.32.48L76,538.5a17,17,0,0,1,.73-2.41C77.89,536.75,78.73,538.41,79.11,540.5Z"
     transform="translate(-19.44 -93.81)"
     opacity="0.1"
     id="path216" />
  <path
     d="M69.85,556.7l-.63.11c-12.5,1.9-4.12-4.84-4.12-4.84s.57-.52,1.33-1.37c1.51-1.66,3.77-4.57,4-7.27.4-4.05.85-7.85,5.63-6.73S81.68,554.33,69.85,556.7Z"
     transform="translate(-19.44 -93.81)"
     fill="#6c63ff"
     id="path218" />
  <rect
     x="26.3"
     y="494.01"
     width="23.88"
     height="6.28"
     fill="#d4dfec"
     id="rect220" />
  <rect
     x="22.5"
     y="473.6"
     width="31.21"
     height="21.92"
     fill="#d4dfec"
     id="rect222" />
  <rect
     x="26.3"
     y="494.01"
     width="23.88"
     height="6.28"
     opacity="0.1"
     id="rect224" />
  <rect
     x="22.5"
     y="473.6"
     width="31.21"
     height="21.92"
     opacity="0.1"
     id="rect226" />
  <rect
     x="27.87"
     y="494.01"
     width="23.88"
     height="6.28"
     fill="#d4dfec"
     id="rect228" />
  <path
     d="M61.41,549.2c.53,1.87.81,3.16.81,3.16L58.49,554a22.2,22.2,0,0,1-2-1.12A9.61,9.61,0,0,1,61.41,549.2Z"
     transform="translate(-19.44 -93.81)"
     opacity="0.1"
     id="path230" />
  <path
     d="M69.85,556.7l-.63.11c-12.5,1.9-4.12-4.84-4.12-4.84s.57-.52,1.33-1.37A8.28,8.28,0,0,1,69.85,556.7Z"
     transform="translate(-19.44 -93.81)"
     opacity="0.1"
     id="path232" />
  <path
     d="M49.53,568.65s7-25,16.81-17.33-4,19.62-4,19.62Z"
     transform="translate(-19.44 -93.81)"
     fill="#6c63ff"
     id="path234" />
  <circle
     cx="33.62"
     cy="447.37"
     r="0.79"
     opacity="0.1"
     id="circle236" />
  <circle
     cx="33.56"
     cy="451.03"
     r="0.79"
     opacity="0.1"
     id="circle238" />
  <circle
     cx="56.32"
     cy="448.09"
     r="0.79"
     opacity="0.1"
     id="circle240" />
  <circle
     cx="38.01"
     cy="466.86"
     r="0.79"
     opacity="0.1"
     id="circle242" />
  <circle
     cx="54.69"
     cy="454.17"
     r="0.79"
     opacity="0.1"
     id="circle244" />
  <circle
     cx="46.58"
     cy="462.28"
     r="0.79"
     opacity="0.1"
     id="circle246" />
  <circle
     cx="36.3"
     cy="448.94"
     r="0.79"
     opacity="0.1"
     id="circle248" />
  <circle
     cx="54.16"
     cy="450.44"
     r="0.79"
     opacity="0.1"
     id="circle250" />
  <circle
     cx="51.48"
     cy="456.52"
     r="0.79"
     opacity="0.1"
     id="circle252" />
  <circle
     cx="43.24"
     cy="466.27"
     r="0.79"
     opacity="0.1"
     id="circle254" />
  <circle
     cx="41.54"
     cy="462.41"
     r="0.79"
     opacity="0.1"
     id="circle256" />
  <circle
     cx="37.48"
     cy="453.71"
     r="0.79"
     opacity="0.1"
     id="circle258" />
  <rect
     x="27.87"
     y="494.01"
     width="23.88"
     height="2.29"
     opacity="0.1"
     id="rect260" />
  <rect
     x="24.07"
     y="473.6"
     width="31.21"
     height="21.92"
     fill="#d4dfec"
     id="rect262" />
  <circle
     cx="44.29"
     cy="469.8"
     r="0.79"
     opacity="0.1"
     id="circle264" />
  <circle
     cx="39.58"
     cy="470.79"
     r="0.79"
     opacity="0.1"
     id="circle266" />
</svg>
